CoelacanthPearlItalicRefined.sfdir
StartChar: dollar
Encoding: 36 36 1406
Width: 463
VWidth: 1159
UnlinkRmOvrlpSave: 1
Flags: W
HStem: -20 34<167.172 294.696> 634 26<305.809 408.209>
LayerCount: 2
Fore
SplineSet
352.498046875 712 m 5
 382.498046875 712 l 5
 215.2421875 -73 l 5
 184.427734375 -72 l 5
 352.498046875 712 l 5
510.395507812 588 m 5
 481.784179688 554.166992188 464.051757812 530 436.186523438 501 c 5
 419.236328125 512 l 5
 429.657226562 525 435.587890625 535.356445312 438.688476562 552 c 4
 447.799804688 600.899414062 409.484375 634 361.965820312 634 c 7
 297.189453125 634 229.088867188 586.356445312 216.7265625 520 c 4
 201.526367188 438.41796875 269.525390625 409.427734375 331.84765625 365 c 4
 409.530273438 309.622070312 460.693359375 262.197265625 442.3984375 164 c 4
 422.87109375 59.1904296875 316.424804688 -20 212.1171875 -20 c 7
 127.767578125 -20 66.25 54.025390625 49.9267578125 140 c 5
 71.951171875 162.013671875 101.96484375 186.633789062 127.340820312 212 c 5
 146.732421875 198 l 5
 132.588867188 184.888671875 127.018554688 161.958984375 122.740234375 139 c 4
 110.155273438 71.4521484375 159.33203125 14 224.451171875 14 c 7
 306.744140625 14 371.387695312 78.064453125 383.671875 144 c 4
 398.142578125 221.665039062 352.423828125 243.120117188 286.805664062 295 c 4
 212.368164062 353.852539062 128.80859375 391.629882812 148.25390625 496 c 4
 165.91796875 590.802734375 267.3515625 660 366.810546875 660 c 7
 434.401367188 660 484.28515625 621.051757812 510.395507812 588 c 5
EndSplineSet
EndChar
StartChar: percent
Encoding: 37 37 961
Width: 689
Flags: W
HStem: -80.1904 58.0342<457.981 557.622> 136.84 58.3115<442.774 542.266> 198.81 58.0342<171.981 271.622> 415.84 58.3115<156.774 256.266>
VStem: 68.54 73.6611<287.905 400.642> 285.659 70.3408<271.272 386.813> 354.54 73.6611<8.9046 121.642> 571.659 70.3408<-7.7276 107.813>
LayerCount: 2
Back
SplineSet
248.9609375 415.83984375 m 7
 215.688476562 415.83984375 182.372070312 386.58203125 176.010742188 356.658203125 c 4
 163.705078125 298.760742188 189.776367188 256.84375 236.452148438 256.84375 c 7
 278.620117188 256.84375 305.57421875 291.288085938 311.204101562 317.775390625 c 4
 322.889648438 372.75 302.245117188 415.83984375 248.9609375 415.83984375 c 7
276.803710938 474.151367188 m 7
 352.27734375 474.151367188 401.75390625 412.850585938 385.096679688 334.481445312 c 4
 367.134765625 249.98046875 286.27734375 198.809570312 211.4609375 198.809570312 c 7
 134.232421875 198.809570312 80.7783203125 255.172851562 97.55859375 334.115234375 c 4
 114.955078125 415.9609375 202.022460938 474.151367188 276.803710938 474.151367188 c 7
534.657226562 136.83984375 m 7
 501.384765625 136.83984375 468.068359375 107.58203125 461.708007812 77.658203125 c 4
 449.401367188 19.7607421875 475.473632812 -22.15625 522.149414062 -22.15625 c 7
 564.317382812 -22.15625 591.271484375 12.2880859375 596.901367188 38.775390625 c 4
 608.5859375 93.75 587.94140625 136.83984375 534.657226562 136.83984375 c 7
562.5 195.151367188 m 7
 637.973632812 195.151367188 687.451171875 133.850585938 670.79296875 55.4814453125 c 4
 652.83203125 -29.01953125 571.974609375 -80.1904296875 497.158203125 -80.1904296875 c 7
 419.9296875 -80.1904296875 366.475585938 -23.8271484375 383.254882812 55.115234375 c 4
 400.65234375 136.9609375 487.71875 195.151367188 562.5 195.151367188 c 7
170.390625 -67.025390625 m 5
 128.672851562 -29.712890625 l 5
 617.33203125 475.025390625 l 5
 659.05078125 437.712890625 l 5
 170.390625 -67.025390625 l 5
EndSplineSet
Fore
Refer: 939 8260 N 1 0 0 1 106 -51 2
Refer: 1501 8320 N 1 0 0 1 328 0 2
Refer: 1501 8320 S 1 0 0 1 42 279 2
Position2: "'lnum-2' vertical adjustment" dx=0 dy=80 dh=0 dv=0
EndChar
StartChar: parenleft
Encoding: 40 40 60
Width: 383
VWidth: 1515
Flags: W
VStem: 37 48<49.4585 379.9>
LayerCount: 2
Fore
SplineSet
337 724 m 9
 358 689 l 1
 173.908045977 597 85 426 85 214 c 27
 85 2 161.356321839 -154 358 -263 c 9
 339 -301 l 1
 145 -194 37 -18 37 214 c 27
 37 445 149 627 337 724 c 9
EndSplineSet
Validated: 1
Position2: "cpsp-1" dx=0 dy=0 dh=10 dv=20
Position2: "'case' vertical ajustments for all-caps-1" dx=0 dy=125 dh=0 dv=0
EndChar
StartChar: parenright
Encoding: 41 41 61
Width: 380
VWidth: 1516
Flags: W
VStem: 296 48<49.4585 379.9>
LayerCount: 2
Fore
SplineSet
46 724 m 1
 234 627 344 445 344 214 c 3
 344 -18 237 -194 43 -301 c 1
 25 -263 l 1
 221.71042471 -154 296 2 296 214 c 3
 296 426 209.154440154 597 25 689 c 1
 46 724 l 1
EndSplineSet
Validated: 1
Position2: "cpsp-1" dx=0 dy=0 dh=10 dv=20
Position2: "'case' vertical ajustments for all-caps-1" dx=0 dy=125 dh=0 dv=0
EndChar
StartChar: comma
Encoding: 44 44 47
Width: 183
VWidth: 1159
Flags: W
HStem: -125 247
VStem: 5.56055 162.308
LayerCount: 2
Fore
SplineSet
16.6875 -125 m 1
 5.560546875 -100 l 1
 42.2939453125 -79 89.5859375 -42 80.66796875 -11 c 0
 74.4365234375 11 55.9599609375 26 38.3447265625 37 c 0
 34.4140625 39 32.6591796875 46 32.8681640625 52 c 1
 33.078125 58 38.251953125 63 43.322265625 65 c 0
 64.7060546875 76 81.2646484375 92 95.998046875 113 c 0
 98.1728515625 118 105.3125 122 111.3125 122 c 3
 117.3125 122 122.172851562 118 122.998046875 113 c 0
 131.264648438 92 145.706054688 76 163.322265625 65 c 0
 167.251953125 63 168.078125 58 167.868164062 52 c 1
 167.659179688 46 141.95703125 -60 16.6875 -125 c 1
EndSplineSet
Validated: 33
Position2: "cpsp-1" dx=0 dy=0 dh=10 dv=20
EndChar
StartChar: zero
Encoding: 48 48 64
Width: 503
VWidth: 1159
Flags: W
HStem: 1 33<167.776 279.07> 375 36<209.091 325.043>
LayerCount: 2
Fore
SplineSet
263.017578125 375 m 3
 187.447265625 375 139.41015625 298.412109375 125.08984375 227 c 0
 106.099609375 123.569335938 129.801757812 34 227.72265625 34 c 3
 307.885742188 34 345.719726562 126.92578125 358.567382812 195 c 0
 377.422851562 294.771484375 359.709960938 375 263.017578125 375 c 3
290.35546875 411 m 3
 395.118164062 411 461.342773438 317.724609375 439.810546875 206 c 0
 418.274414062 93.4091796875 318.922851562 1 206.997070312 1 c 3
 97.4560546875 1 26.837890625 93.4091796875 47.810546875 206 c 0
 69.8212890625 315.674804688 181.051757812 411 290.35546875 411 c 3
EndSplineSet
Substitution2: "dnom-1" zero.denom
Substitution2: "numr-1" zero.numerator
Substitution2: "lnum-1" zero.proportionallining
Substitution2: "tnum-1" zero.tabulartext
EndChar
StartChar: two
Encoding: 50 50 66
Width: 445
VWidth: 1159
Flags: W
HStem: -11 21G<298.934 321.898> 2 64<80.9961 312.83> 405 53<151.591 258.051>
LayerCount: 2
Fore
SplineSet
77.3447265625 367 m 1x60
 113.602539062 414.314453125 161.87109375 458 229.891601562 458 c 0
 305.891601562 458 357.08984375 405 342.823242188 335 c 0
 319.791992188 222 102.684570312 89 80.99609375 66 c 9x60
 298.607421875 69 l 2
 330.607421875 69 361.556640625 108 389.671875 138 c 1
 406.20703125 121 l 1
 406.20703125 121 329.493164062 39 314.303710938 -11 c 1xa0
 283.563476562 5 207.952148438 2 133.952148438 2 c 0
 43.9521484375 2 -15.455078125 0 -20.455078125 0 c 1
 -22.7861328125 18 l 1
 30.8310546875 75 244.658203125 187 272.786132812 325 c 0
 284.40234375 382 242.08984375 405 198.08984375 405 c 0
 152.08984375 405 120.19921875 381 94.4921875 353 c 1
 77.3447265625 367 l 1x60
EndSplineSet
Substitution2: "dnom-1" two.denom
Substitution2: "numr-1" two.numerator
Substitution2: "tnum-1" two.tabulartext
Substitution2: "lnum-1" two.proportionallining
EndChar
StartChar: three
Encoding: 51 51 67
Width: 490
Flags: W
HStem: -177.1 53.4707<114.552 147.554> 425.581 81.8042<172.493 275.111>
VStem: 291.367 91.4232<300.86 409.107> 326.294 91.4463<0.994154 126.769>
LayerCount: 2
Fore
SplineSet
65.3828125 -123.62890625 m 1xd0
 249.600585938 -65.6123046875 324.26171875 -9.55859375 338.162109375 55.8349609375 c 0xd0
 354.555664062 132.962890625 306.688476562 159.036132812 273.1640625 184.943359375 c 1
 253.452148438 173.912109375 196.669921875 147.880859375 160.161132812 138.388671875 c 1
 138.532226562 183.491210938 l 1
 245.760742188 235.645507812 350.999023438 280.543945312 368.348632812 362.170898438 c 0
 375.912109375 397.75 351.629882812 425.581054688 319.158203125 425.581054688 c 3
 262.030273438 425.581054688 221.612304688 388.9765625 188.733398438 364.872070312 c 1
 159.5078125 402.51171875 l 1
 194.213867188 444.116210938 287.559570312 507.384765625 356.868164062 507.384765625 c 3
 439.041992188 507.384765625 478.020507812 448.021484375 463.852539062 381.3671875 c 0xe0
 446.038085938 297.55859375 385.926757812 261.564453125 357.352539062 240.3359375 c 1
 394.797851562 214.649414062 452.942382812 165.614257812 432.291992188 68.4609375 c 0
 405.958007812 -55.4287109375 182.245117188 -148.784179688 80.3564453125 -177.099609375 c 1
 65.3828125 -123.62890625 l 1xd0
EndSplineSet
Substitution2: "dnom-1" three.denom
Substitution2: "numr-1" three.numerator
Substitution2: "tnum-1" three.tabulartext
Substitution2: "lnum-1" three.proportionallining
EndChar
StartChar: four
Encoding: 52 52 68
Width: 641
Flags: W
HStem: -8.63477 21G<542.871 565.894> 1.04492 72.3633<161.038 359.951 442.193 518.943> 495.018 20G<391.258 439.155>
VStem: 360.952 81.2412<-104.114 1.04492 77.3945 330.084>
LayerCount: 2
Fore
SplineSet
375.884765625 74.9599609375 m 1x70
 397.239257812 175.426757812 417.828125 266.608398438 427.036132812 334.5234375 c 1
 427.036132812 334.5234375 274.4296875 172.404296875 176.493164062 73.408203125 c 1
 234.900390625 74.9599609375 329.290039062 74.9599609375 375.884765625 74.9599609375 c 1x70
567.959960938 479.17578125 m 1
 536.698242188 432.868164062 516.044921875 350.6953125 488.567382812 224.267578125 c 0
 472.932617188 152.33203125 475.750976562 160.5546875 458.64453125 77.39453125 c 1
 533.109375 76.5283203125 520.575195312 82.03515625 575.913085938 122.48046875 c 1
 575.913085938 122.48046875 613.999023438 105.833007812 617.149414062 103.841796875 c 1
 617.149414062 103.841796875 580.428710938 36.2333984375 557.225585938 -8.634765625 c 1xb0
 526.62109375 -0.279296875 477.430664062 1.9873046875 442.649414062 2.1435546875 c 1
 431.627929688 -46.3525390625 431.684570312 -89.4580078125 442.943359375 -105.715820312 c 1
 393.34765625 -113.103515625 389.211914062 -156.094726562 354.356445312 -177.099609375 c 1
 354.356445312 -177.099609375 292.728515625 -142.959960938 290.90625 -138.801757812 c 1
 336.037109375 -101.5546875 348.385742188 -57.79296875 361.173828125 1.044921875 c 1
 59.8154296875 1.044921875 128.081054688 9.9443359375 72.7216796875 -34.75390625 c 1
 72.7216796875 -34.75390625 22.3056640625 4.044921875 19.1455078125 7.71484375 c 1
 43.0322265625 27.455078125 472.56640625 447.77734375 514.59765625 515.017578125 c 1
 567.959960938 479.17578125 l 1
EndSplineSet
Substitution2: "dnom-1" four.denom
Substitution2: "numr-1" four.numerator
Substitution2: "tnum-1" four.tabulartext
Substitution2: "lnum-1" four.proportionallining
EndChar
StartChar: greater
Encoding: 62 62 334
Width: 463
VWidth: 0
Flags: W
HStem: -7 21G<70.4615 113.429> 392 20G<91.5605 135.282>
LayerCount: 2
Fore
SplineSet
72.5 365.6 m 25
 106 412 l 25
 412 203 l 25
 82 -7 l 25
 67 19 l 25
 332.5 187.6 l 25
 72.5 365.6 l 25
EndSplineSet
Validated: 1
EndChar
StartChar: question
Encoding: 63 63 75
Width: 378
VWidth: 1159
Flags: W
HStem: -18 140<102.901 131.663> 680.8 20G<154.749 189.614>
VStem: 49 136 133.068 18.2549<184.428 208.086>
LayerCount: 2
Fore
SplineSet
140.3515625 556.799804688 m 5xd0
 184.7578125 690.440429688 124.537109375 689.404296875 184.959960938 700.799804688 c 5
 194.268554688 645.799804688 201.268554688 645.799804688 231.268554688 645.799804688 c 7
 327.401367188 645.799804688 405.272460938 565.836914062 379.544921875 444.799804688 c 4
 343.768554688 276.485351562 227.291015625 267.418945312 211.647460938 261.799804688 c 4
 181.361328125 247.799804688 162.662109375 225.799804688 151.323242188 185 c 13
 151.323242188 185 137.868164062 183.799804688 133.068359375 183.799804688 c 5
 141.16015625 259.505859375 147.849609375 320.763671875 188.2265625 339.799804688 c 4
 218.153320312 353.909179688 326.346679688 321.544921875 350.631835938 435.799804688 c 4
 369.416015625 524.169921875 285.55078125 571.465820312 140.3515625 556.799804688 c 5xd0
EndSplineSet
Refer: 49 46 N 1 0 0 1 18 0 2
Validated: 33
Position2: "cpsp-1" dx=0 dy=0 dh=10 dv=20
EndChar
StartChar: at
Encoding: 64 64 902
Width: 802
VWidth: 1159
Flags: W
HStem: -184 52<274.516 489.617> -31 20G<653.839 695.998> 1.09961 47.7002<458.768 559.989> 6.5 58.5<278.488 363.298> 517 44<340.612 575.563>
VStem: 33.6895 69<46.5036 276.909> 222.851 64.098<81.8659 195.602> 723.143 47.3154<199.565 383.386>
LayerCount: 2
Fore
SplineSet
564.755 335 m 1xdf
 539.555 278.3 520.869 211.186 510.755 150.5 c 0
 505.822 120.901 501.64 87.547 501.64 75.1396 c 3
 501.64 56.5948 506.697 48.7998 515.255 48.7998 c 3
 536.667 48.7998 581.1 56.0977 613.5 83.5 c 0
 676.636494033 131.958 723.142578125 199 723.142578125 285 c 3
 723.142578125 435.003 599.642467632 517 456.526367188 517 c 3
 262.188160561 517 102.689453125 367.01 102.689453125 157 c 3
 102.689453125 -16.493 235.456928373 -132 375.314453125 -132 c 3
 504.714775173 -132 614.64687028 -81.1985 693.03125 -11 c 1
 698.964658203 -17.63 702.311708984 -21.37 708.245117188 -28 c 1
 632.699931377 -108 503.302569708 -184 358.848632812 -184 c 3
 194.781056917 -184 33.689453125 -52.6006 33.689453125 157 c 3
 33.689453125 379.824 234.356786808 561 481.151367188 561 c 3
 626.990116911 561 770.458007812 456.039 770.458007812 288 c 3
 770.458007812 187.436 686.922295872 103.668 629.5 65.5 c 0
 593.246 39.4713 536.574 1.09961 478.355 1.09961 c 3xef
 439.181 1.09961 436.86 44.567 439.655 89.2998 c 1
 395.555 42.4999 337.055 6.5 301.955 6.5 c 3
 255.02 6.5 222.851 50.7988 222.851 103.97 c 3
 222.851 201.658 297.9 289.633 360.455 322.4 c 0
 401.855 344.9 452.255 353 519.755 368.3 c 0
 531.919 371.057 544.824 385.269 549.455 394.4 c 1
 596.255 398.9 l 1
 585.463 377.317 575.358 356.207 564.755 335 c 1xdf
479.155 314.8 m 1
 470.155 316.6 445.855 318.4 437.755 318.4 c 3
 409.855 318.4 377.455 303.1 358.556 289.6 c 0
 323.189 264.337 286.949 213.234 286.949 145.586 c 3
 286.949 102.981 305.419 65 351.455 65 c 3xdf
 379.355 65 417.155 91.3378 442.355 116.7 c 1
 451.355 154.163 463.055 195.981 472.955 237.8 c 0
 478.177 259.858 483.105 283.587 483.105 298.967 c 3
 483.105 306.389 481.962 311.994 479.155 314.8 c 1
EndSplineSet
Validated: 33
Position2: "cpsp-1" dx=0 dy=0 dh=10 dv=20
EndChar
StartChar: A
Encoding: 65 65 26
Width: 715
Flags: HMW
HStem: -177 78.1279<-199.919 -98.3319> 0.542969 50.457<-136.281 -117.822>
VStem: -272.816 98.4385<-124.671 -35.1372>
AnchorPoint: "Ogonek" 446.622 23 basechar 0
AnchorPoint: "Top" 530.622 699 basechar 0
AnchorPoint: "Bottom" 276.622 -15 basechar 0
LayerCount: 2
Back
SplineSet
290.420898438 297.2734375 m 1
 339.197265625 294.2578125 407.708984375 294.033203125 450.482421875 294.002929688 c 1
 447.626953125 373.998046875 445.059570312 426.684570312 442.130859375 501.32421875 c 1
 385.639648438 424.76171875 342.694335938 367.932617188 290.420898438 297.2734375 c 1
385.051757812 -8.9658203125 m 1
 385.051757812 -8.9658203125 386.040039062 13.607421875 386.040039062 27 c 2
 386.040039062 48.1162109375 l 1
 395.227539062 50.3310546875 l 2
 438.948242188 57.6630859375 453.01953125 63.4384765625 451.818359375 75 c 2
 451.791992188 75.36328125 l 1
 451.788085938 75 l 2
 451.110351562 139.06640625 450.630859375 177.677734375 449.98828125 237.762695312 c 1
 397.99609375 246.533203125 320.1171875 251.241210938 246.176757812 245.458984375 c 1
 202.9296875 183.259765625 170.938476562 146.422851562 134.111328125 87.2958984375 c 0
 128.647460938 74.83203125 127.19140625 66.44921875 127.516601562 60.8466796875 c 0
 128.03125 59.0263671875 136.84765625 55.994140625 185.1484375 56.93359375 c 2
 202.587890625 58.2333984375 l 1
 197.526367188 33 l 1
 184.526367188 -10 l 1
 181.297851562 -12.443359375 l 1
 170.412109375 -10 l 2
 123.8359375 0.7177734375 22.6083984375 3.80078125 -27.951171875 -5 c 2
 -45 -7.8955078125 l 1
 -41.7451171875 -0.4833984375 l 1
 -41.7451171875 -0.4833984375 -36.8173828125 24.5771484375 -35.91796875 34.9931640625 c 2
 -35.2275390625 53.83984375 l 1
 -27.216796875 56.0986328125 l 2
 22.685546875 68.7314453125 43.9697265625 77.0009765625 57.517578125 94.2548828125 c 0
 214.498046875 298.291992188 349.141601562 474.040039062 468.487304688 639.870117188 c 0
 495.98046875 678.313476562 491.609375 676.310546875 505.329101562 711 c 2
 508.383789062 711 l 1
 540.4296875 711 l 1
 531.4296875 711 l 1
 570.666015625 711 l 1
 567.095703125 705.375976562 l 2
 560.7734375 680.200195312 557.202148438 654.921875 557.392578125 642 c 0
 560.561523438 418.744140625 560.811523438 281.572265625 567.61328125 66.123046875 c 0
 571.556640625 56.9599609375 581.259765625 56.048828125 607.954101562 54.9306640625 c 2
 621.705078125 53.880859375 l 1
 618.764648438 31 l 2
 618.721679688 30.8115234375 613.82421875 8.7490234375 609.424804688 -4 c 2
 606.172851562 -5.71875 l 1
 596.03515625 -4 l 2
 538.71484375 6.1142578125 457.680664062 5.9755859375 400.131835938 -10 c 2
 384.34765625 -14.208984375 l 1
 385.051757812 -8.9658203125 l 1
EndSplineSet
Fore
SplineSet
270.0234375 252 m 1
 312.874023438 248 419.545898438 255 459.661132812 255 c 1
 458.321289062 332 456.47265625 424 455.225585938 507 c 1
 403.963867188 426 329.552734375 331 270.0234375 252 c 1
422.333984375 -10 m 1
 422.333984375 -10 418.9375 53 418.9375 54 c 1
 439.782226562 60 464.840820312 56.1376953125 464.1015625 83 c 0
 462.9453125 125 462.629882812 146 461.631835938 189 c 1
 385.555664062 190 322.467773438 191 222.26953125 192 c 1
 193.200195312 150 181.739257812 139.184570312 156.864257812 96 c 0
 145.022460938 75.44140625 163.268554688 70 183.0625 64 c 1
 174.758789062 -8 l 1
 145.321289062 -1 109.997070312 1 74.671875 1 c 3
 37.83203125 1 0.9931640625 0 -30.1787109375 -3 c 1
 -30.64453125 14 -31.109375 37 -31.5751953125 61 c 1
 32.451171875 71 39.15625 75.111328125 57.0771484375 97 c 0
 219.182617188 295 339.55078125 462.7890625 439.780273438 599 c 0
 474.443359375 646.107421875 473.778320312 650 491.91015625 689 c 1
 560.91015625 689 l 1
 559.366210938 653 554.047851562 645.3125 554.993164062 600 c 0
 558.576171875 387 558.84765625 276.037109375 567.463867188 80 c 0
 568.575195312 59.6142578125 587.096679688 63 619 59 c 1
 616.758789062 42 612.275390625 17 610.034179688 -2 c 1
 573.283203125 -1 538.829101562 1 506.671875 1 c 3
 477.979492188 1 451.026367188 -1 422.333984375 -10 c 1
EndSplineSet
Position2: "cpsp-1" dx=0 dy=0 dh=10 dv=20
Substitution2: "c2pc-1" a.pcap
Substitution2: "c2sc-1" a.smcp
EndChar
StartChar: B
Encoding: 66 66 27
Width: 640
Flags: HMW
HStem: -4 38<-2.97646 72.9443 168.149 346.524> 349 30<239.024 374.228> 653 41<166.024 213.337 316.608 437.009>
AnchorPoint: "Top" 379.72 699 basechar 0
AnchorPoint: "Bottom" 249.415 -15 basechar 0
LayerCount: 2
Back
SplineSet
-4.171875 34 m 5
 39.7763671875 36 75.2275390625 35.1494140625 81.8076171875 73 c 4
 82.67578125 78 108.219726562 175.720703125 134.072265625 292 c 4
 171.647460938 461 198.975585938 604.989257812 199.640625 614 c 4
 200.37890625 624 200.6796875 640.092773438 182.802734375 646 c 4
 176.75 648 138.567382812 655 132.541015625 656 c 5
 147.545898438 694 l 5
 156.545898438 694 189.807617188 684 241.807617188 684 c 7
 283.860351562 684 329.016601562 694 368.545898438 694 c 7
 488.549804688 694 538.3203125 578.6796875 526.154296875 518 c 4
 511.918945312 447 459.1328125 402 370.055664062 369 c 5
 493.689453125 363 563.197265625 278.422851562 539.979492188 181 c 4
 513.524414062 70 398.017578125 -4 242.823242188 -4 c 7
 192.823242188 -4 147.666015625 2 94.666015625 2 c 7
 40.666015625 2 -2.228515625 -2 -9.228515625 -2 c 5
 -4.171875 34 l 5
323.7421875 381 m 4
 384.766601562 391 424.276367188 440.204101562 437.65234375 499 c 4
 451.395507812 547 449.947265625 653 348.619140625 653 c 7
 341.255859375 653 327.1953125 650.999023438 321.723632812 649 c 4
 299.85546875 644 293.724609375 624.235351562 290.640625 614 c 4
 256.599609375 501 228.793945312 379 228.793945312 379 c 5
 304.793945312 379 313.865234375 379.381835938 323.7421875 381 c 4
292.580078125 349 m 4
 222.580078125 349 l 5
 202.146484375 251 179.903320312 154.501953125 167.205078125 96 c 4
 159.173828125 59 162.16796875 45.4716796875 184.645507812 41 c 4
 194.697265625 39 235.828125 34 258.828125 34 c 7
 350.19140625 34 432.583984375 83.3291015625 456.057617188 178 c 4
 476.885742188 262 438.421875 349 292.580078125 349 c 4
EndSplineSet
Fore
SplineSet
11.7060546875 67 m 1
 56.7060546875 67 85.4931640625 66 87.5556640625 71 c 0
 91.46875 80 110.024414062 172 134.467773438 287 c 0
 167.83984375 444 194.171875 582 192.1484375 596 c 0
 190.848632812 604 195.3359375 611 184.548828125 612 c 0
 170.76171875 613 136.611328125 617 124.037109375 619 c 1
 151.127929688 690 l 1
 181.065429688 685 189.578125 678 256.578125 678 c 3
 298.578125 678 333.703125 688 375.703125 688 c 3
 532.703125 688 593.635742188 603 573.868164062 510 c 0
 559.4140625 442 524.723632812 387 453.834960938 364 c 1
 555.43359375 348 606.916992188 275 588.212890625 187 c 0
 563.130859375 69 433.827148438 -3 283.827148438 -3 c 3
 224.827148438 -3 184.889648438 2 118.889648438 2 c 3
 43.8896484375 2 33.251953125 -1 1.8271484375 -3 c 1
 11.7060546875 67 l 1
290.598632812 377 m 3
 400.598632812 377 441.950195312 421 455.5546875 485 c 0
 466.607421875 537 462.249023438 620 361.249023438 620 c 3
 341.249023438 620 330.611328125 617 323.973632812 614 c 0
 313.124023438 610 305.384765625 583 302.258789062 573 c 0
 279.467773438 494 263.1875 408 257.598632812 377 c 1
 282.598632812 377 279.598632812 377 290.598632812 377 c 3
337.482421875 320 m 3
 317.482421875 320 266.844726562 317 243.844726562 317 c 1
 223.801757812 218 206.860351562 143 195.95703125 87 c 0
 192.91796875 68 194.493164062 66 207.493164062 66 c 0
 218.493164062 66 276.493164062 66 316.493164062 66 c 3
 387.493164062 66 456.145507812 102 475.0625 191 c 0
 489.303710938 258 433.482421875 320 337.482421875 320 c 3
EndSplineSet
Position2: "cpsp-1" dx=0 dy=0 dh=10 dv=20
Substitution2: "c2pc-1" b.pcap
Substitution2: "c2sc-1" b.smcp
EndChar
StartChar: D
Encoding: 68 68 29
Width: 804
Flags: HW
HStem: -10 70<66.5 129.877> -5 73<225.381 515.185> 617 71<262.927 468.084>
VStem: 131 118<390.955 596.715> 138 108<115.517 572.23> 663 105<214.882 437.965>
AnchorPoint: "Top" 382 679 basechar 0
AnchorPoint: "Bottom" 368 -15 basechar 0
LayerCount: 2
Back
SplineSet
269.048828125 37 m 7x70
 496.8203125 37 648.629882812 176.061523438 643.567382812 369.3828125 c 4
 638.763671875 552.821289062 490.93359375 655 342.866210938 655 c 7
 331.424804688 655 311.05859375 656.241210938 297.944335938 652 c 4
 272.171875 643.665039062 265.627929688 629.97265625 261.043945312 610 c 4
 218.779296875 425.836914062 189.83984375 265.158203125 144.765625 86 c 4
 140.237304688 68 136.65234375 50.8212890625 162.813476562 46 c 4
 189.944335938 41 227.048828125 37 269.048828125 37 c 7x70
124.896484375 692 m 5
 163.94921875 690 186.106445312 684 227.106445312 684 c 7
 289.159179688 684 316.607421875 689 357.975585938 689 c 7
 547.736328125 689 727.388671875 578.5390625 732.858398438 369.661132812 c 4
 740.000976562 96.8857421875 476.409179688 -7 255.201171875 -7 c 7x70
 185.201171875 -7 150.017578125 0 80.017578125 0 c 7
 10.017578125 0 -0.8515625 -5 -28.720703125 -10 c 5
 -23.767578125 30 l 5xb0
 14.126953125 34 46.30078125 35.9306640625 55.2373046875 68 c 4
 101.981445312 235.75 161.291015625 513.283203125 175.861328125 617 c 4
 180.91796875 653 164.997070312 650 114.997070312 650 c 5
 124.896484375 692 l 5
EndSplineSet
Fore
SplineSet
322.397460938 68 m 3x6c
 510.065802422 68 647.078125 177.085091593 647.078125 369.8125 c 3
 647.078125 564.799432516 470.736351169 613 385.090820312 613 c 3
 350.560833807 613 331.699972249 606 312.83984375 597 c 0
 298.864469211 590.33099078 295.2265625 580 294.163085938 575 c 0x74
 279.622070312 516 264.806640625 451 251.415039062 388 c 0
 228.671875 281 211.75390625 192 199.836914062 103 c 0
 198.923828125 94 194.7109375 93 209.6484375 88 c 0
 240.46422171 76 289.958932819 68 322.397460938 68 c 3x6c
132.907226562 682 m 5
 180.056640625 678 201.206054688 674 248.206054688 674 c 1
 322.74022438 674 364.423070582 684 437.182617188 684 c 3
 569.115856114 684 757.397460938 605.031250681 757.397460938 396.599609375 c 3
 757.397460938 90.8166374026 473.323138272 -5 290.880859375 -5 c 3x74
 221.880859375 -5 186.368164062 2 113.368164062 2 c 3
 76.3681640625 2 49.73046875 0 -0.1826171875 -9 c 1
 2.6962890625 60 l 1
 56.03515625 71 81.5224609375 78 85.1357421875 95 c 0
 94.42578125 134 105.69140625 187 116.744140625 239 c 0xac
 147.990234375 386 176.448242188 534 187.540039062 605 c 0
 188.815429688 611 148.390625 609 121.602539062 610 c 1
 132.907226562 682 l 5
EndSplineSet
Position2: "cpsp-1" dx=0 dy=0 dh=10 dv=20
Substitution2: "c2pc-1" d.pcap
Substitution2: "c2sc-1" d.smcp
EndChar
StartChar: E
Encoding: 69 69 30
Width: 648
Flags: HW
HStem: -14 65<25.7609 84.9054> 1 76<197.774 476.37> 306 69<256.233 424.226> 612 67<152.125 197.482 303.444 509.41> 667 20G<578.36 597.063>
VStem: 430.32 65.041<262.709 305.992> 524.092 60.0625<531 601.873>
AnchorPoint: "Top" 388.498 699 basechar 0
AnchorPoint: "Ogonek" 451.421 23.6582 basechar 0
AnchorPoint: "Bottom" 265.554 -15 basechar 0
LayerCount: 2
Back
SplineSet
150.872070312 690 m 5xec
 236.274414062 677 551.556640625 689 573.671875 700 c 5xdc
 592.850585938 674.7890625 583.733398438 675.5 545.904296875 536 c 5
 519.983398438 533 l 5
 520.708984375 584 517.311523438 614.818359375 513.819335938 618 c 4
 483.0859375 646 387.974609375 650.18359375 327.102539062 643 c 4
 310.155273438 641 294.114257812 627.129882812 288.993164062 609 c 4
 266.114257812 528 245.235351562 447 227.172851562 373 c 5
 278.704101562 375 406.9453125 374.14453125 417.094726562 376 c 4
 444.443359375 381 454.294921875 406 474.157226562 450 c 5
 505.313476562 444 l 5
 484.865234375 379.330078125 477.959960938 315.669921875 475.368164062 251 c 5
 438.603515625 242 l 5
 435.744140625 313 444.318359375 326.4453125 407.247070312 332 c 4
 371.919921875 337 293.827148438 336 219.116210938 337 c 5
 195.17578125 238.067382812 178.018554688 148.391601562 175.819335938 81 c 4
 175.264648438 64 181.666015625 50.5830078125 196.657226562 49 c 4
 281.892578125 40 344.994140625 32.2998046875 421.421875 58 c 4
 480.897460938 78 497.322265625 100 550.33203125 176 c 5
 572.489257812 170 l 5
 543.26953125 102 523.317382812 62 497.940429688 0 c 5
 319.966796875 -1 127.65234375 11 4.2021484375 -10 c 5
 3.259765625 26 l 5
 54.998046875 36 79.68359375 48 85.9501953125 76 c 5
 106.08203125 153.716796875 191.138671875 532.34375 204.7578125 618 c 4
 209.05078125 645 206.05078125 645 140.68359375 659 c 5
 150.872070312 690 l 5xec
EndSplineSet
Fore
SplineSet
152.130859375 684 m 1xa6
 215.493164062 681 326.267578125 679 422.267578125 679 c 3xb6
 498.904296875 679 568.961914062 681 587.768554688 687 c 1x2e
 606.368164062 671 611.029296875 660 608.266601562 647 c 0
 605.94921875 629 593.352539062 593 584.16015625 531 c 1
 524.09765625 526 l 1
 525.23046875 554 512.688476562 599.555664062 502.701171875 602 c 0
 472.743164062 609.33203125 432.168945312 612 390.827148438 612 c 3
 368.827148438 612 339.614257812 611 321.401367188 610 c 0
 313.189453125 609 306.551757812 606 304.213867188 595 c 0
 287.909179688 523 271.479492188 441 256.23828125 374 c 1
 292.936523438 376 422.403320312 374 426.509765625 375 c 0
 435.616210938 376 436.1953125 397 450.633789062 429 c 1
 515.237304688 416 l 1
 503.798828125 384 497.575195312 357 494.3515625 327 c 0
 492.203125 307 492.946289062 288 495.3671875 264 c 1
 430.326171875 252 l 1
 417.946289062 295 429.094726562 306 421.094726562 306 c 0
 393.436523438 305 285.84375 304 240.572265625 305 c 1
 222.080078125 218 207.263671875 153 196.935546875 95 c 0
 193.747070312 80 200.321289062 78 206.321289062 78 c 0
 245.321289062 78 287.109375 77 322.109375 77 c 3
 360.109375 77 395.321289062 78 429.534179688 79 c 0
 467.958984375 81 481.998046875 100 531.6015625 164 c 1
 585.712890625 141 l 1
 557.747070312 80 543.858398438 57 519.7421875 0 c 1
 428.104492188 -3 332.955078125 1 241.955078125 1 c 3x76
 161.955078125 1 89.7421875 0 25.7666015625 -14 c 1
 24.5830078125 51 l 1
 64.283203125 59 85.9833984375 67 87.68359375 75 c 1
 95.7607421875 113 120.567382812 225 146.287109375 346 c 0
 173.494140625 474 197.36328125 591 199.701171875 602 c 0
 200.9765625 608 176.9765625 608 142.614257812 611 c 1
 152.130859375 684 l 1xa6
EndSplineSet
Position2: "cpsp-1" dx=0 dy=0 dh=10 dv=20
Substitution2: "c2pc-1" e.pcap
Substitution2: "c2sc-1" e.smcp
EndChar
StartChar: F
Encoding: 70 70 31
Width: 605
Flags: HW
HStem: -10 74<13.8517 77.0468 191.991 273.113> 299 68<247.257 395.703> 606 70<143.999 188.643 292.42 515.408>
VStem: 399.286 73.8262<244 297.486>
AnchorPoint: "Top" 384.272 699 basechar 0
AnchorPoint: "Bottom" 140.97 -15 basechar 0
LayerCount: 2
Back
SplineSet
248.845703125 -12 m 5xbc
 157.165039062 14 111.243164062 11 -12.20703125 -10 c 5
 -13.1494140625 26 l 5x7c
 38.5888671875 36 63.2744140625 48 69.541015625 76 c 5
 89.6787109375 153.4296875 176.526367188 530.525390625 189.400390625 616 c 4
 193.693359375 643 180.693359375 643 115.327148438 657 c 5
 126.515625 688 l 5
 309.77734375 678 586.515625 688 596.122070312 703 c 5
 623.646484375 683 603.986328125 670 570.469726562 537 c 5
 541.547851562 534 l 5
 539.60546875 570 553.348632812 618 522.086914062 628 c 4
 468.615234375 646 374.405273438 654 297.66796875 644 c 4
 280.719726562 642 275.165039062 625 269.63671875 607 c 4
 246.7578125 526 230.799804688 448 214.737304688 374 c 5
 265.762695312 376 370.622070312 372.506835938 380.737304688 374 c 4
 414.606445312 379 427.952148438 404 452.799804688 448 c 5
 481.95703125 442 l 5
 452.6328125 378 442.282226562 315 437.958984375 251 c 5
 401.247070312 240 l 5
 398.387695312 311 409.020507812 325 371.889648438 330 c 4
 336.793945312 334.725585938 278.913085938 334 204.758789062 335 c 5
 182.252929688 220.649414062 163.76171875 147.7890625 160.41015625 81 c 4
 159.85546875 64 164.431640625 42 267.431640625 42 c 5
 248.845703125 -12 l 5xbc
EndSplineSet
Fore
SplineSet
270.903320312 -11 m 1
 222.603515625 -3 181.454101562 1 135.454101562 1 c 3
 93.4541015625 1 52.81640625 -2 11.1162109375 -10 c 1
 13.8447265625 64 l 1
 54.908203125 69 73.6953125 68 78.30859375 85 c 1
 83.41015625 109 94.1875 155 107.366210938 217 c 0
 137.76171875 360 177.084960938 545 188.625976562 604 c 0
 189.263671875 607 163.05078125 606 123.326171875 612 c 1
 143.9921875 681 l 1
 196.354492188 678 281.9296875 676 366.9296875 676 c 3
 467.9296875 676 567.567382812 679 590.180664062 696 c 1
 617.842773438 685 618.016601562 667 616.490234375 641 c 0
 613.98828125 601 612.374023438 584 603.74609375 534 c 1
 540.62109375 524 l 1
 524.698242188 562 522.5 594 499.137695312 597 c 0
 452.413085938 603 370.900390625 610 302.05078125 606 c 0
 299.05078125 606 295.5625 599 293.224609375 588 c 0
 275.857421875 511 262.340820312 438 247.25 367 c 1
 317.461914062 368 393.82421875 365 403.82421875 365 c 0
 413.82421875 365 419.225585938 381 440.302734375 419 c 1
 508.96484375 408 l 1
 493.80078125 379 484.2734375 353 478.747070312 327 c 0
 473.220703125 301 472.694335938 275 473.10546875 244 c 1
 399.279296875 226 l 1
 389.119140625 277 403.583007812 298 389.583007812 298 c 0
 358.795898438 299 302.583007812 298 233.795898438 299 c 1
 213.540039062 199 199.211914062 141 191.033203125 79 c 0
 188.844726562 64 192.333007812 71 299.908203125 69 c 1
 270.903320312 -11 l 1
EndSplineSet
Position2: "cpsp-1" dx=0 dy=0 dh=10 dv=20
Substitution2: "c2pc-1" f.pcap
Substitution2: "c2sc-1" f.smcp
EndChar
StartChar: G
Encoding: 71 71 32
Width: 691
VWidth: 1159
Flags: W
HStem: -9 39<273.642 471.531> 668 38<372.969 562.85> 677 20G<669.917 700.682>
VStem: 37.1426 94.4199<178.581 407.693> 651.159 27.8174<532 570.168>
AnchorPoint: "Top" 479.604 699 basechar 0
AnchorPoint: "Bottom" 335.3 -15 basechar 0
LayerCount: 2
Back
SplineSet
503.419921875 706 m 7xd8
 558.5 706 595.004882812 690 636.205078125 676 c 4
 661.44140625 667 663.1796875 677 676.655273438 697 c 13xb8
 700.681640625 696 l 13
 678.9765625 532 l 13
 651.159179688 525 l 5
 632.303710938 621 567.625976562 668 473.415039062 668 c 7
 256.643554688 668 127.342773438 456.978180566 131.5625 281.783203125 c 4
 135.84765625 136.089444337 230.827148438 30 368.122070312 30 c 15
 415.884765625 30 444.171875 37.1474609375 491.415039062 57 c 28
 507.231445312 64 510.8125 80 515.393554688 96 c 4
 525.068359375 135.68359375 542.631835938 201.474609375 556.072265625 261 c 4
 564.260742188 292 560.7109375 313 516.606445312 317 c 4
 485.553710938 319 467.553710938 319 436.52734375 320 c 13
 444.689453125 352 l 5
 536.951171875 342 642.92578125 343 689.768554688 349 c 13
 685.396484375 325 l 5
 657.6328125 316 647.763671875 311 642.313476562 290 c 4
 622.10546875 214.338867188 605.961914062 144.895507812 591.524414062 91 c 4
 585.126953125 68 590.284179688 62 607.676757812 47 c 13
 602.2265625 26 l 5
 529.401367188 16 375.2265625 -9 327.142578125 -9 c 7
 157.306640625 -9 41.908203125 101.052701368 37.142578125 264.528320312 c 4
 30.197265625 549.762447527 278.59765625 706 503.419921875 706 c 7xd8
EndSplineSet
Fore
SplineSet
503.419921875 706 m 7xd8
 558.5 706 595.004882812 690 636.205078125 676 c 4
 661.44140625 667 663.1796875 677 676.655273438 697 c 13xb8
 700.681640625 696 l 13
 678.9765625 532 l 13
 651.159179688 525 l 5
 632.303710938 621 567.625976562 668 473.415039062 668 c 7
 256.643554688 668 127.342773438 456.978180566 131.5625 281.783203125 c 4
 135.84765625 136.089444337 230.827148438 30 368.122070312 30 c 15
 415.884765625 30 444.171875 37.1474609375 491.415039062 57 c 28
 507.231445312 64 510.8125 80 515.393554688 96 c 4
 525.068359375 135.68359375 542.631835938 201.474609375 556.072265625 261 c 4
 564.260742188 292 560.7109375 313 516.606445312 317 c 4
 485.553710938 319 467.553710938 319 436.52734375 320 c 13
 444.689453125 352 l 5
 536.951171875 342 642.92578125 343 689.768554688 349 c 13
 685.396484375 325 l 5
 657.6328125 316 647.763671875 311 642.313476562 290 c 4
 622.10546875 214.338867188 605.961914062 144.895507812 591.524414062 91 c 4
 585.126953125 68 590.284179688 62 607.676757812 47 c 13
 602.2265625 26 l 5
 529.401367188 16 375.2265625 -9 327.142578125 -9 c 7
 157.306640625 -9 41.908203125 101.052701368 37.142578125 264.528320312 c 4
 30.197265625 549.762447527 278.59765625 706 503.419921875 706 c 7xd8
EndSplineSet
Position2: "cpsp-1" dx=0 dy=0 dh=10 dv=20
Substitution2: "c2pc-1" g.pcap
Substitution2: "c2sc-1" g.smcp
EndChar
StartChar: H
Encoding: 72 72 33
Width: 708
VWidth: 1159
Flags: W
HStem: -10 35<148.237 196.922 412.646 475.605> -7 42<-33.2326 38.175> 327 40<196.714 555.46> 662 38<109.454 160.066 265.975 343.965 557.306 601.595>
AnchorPoint: "Top" 451.219 699 basechar 0
AnchorPoint: "Bottom" 310.393 -15 basechar 0
LayerCount: 2
Back
SplineSet
111.174804688 700 m 5x70
 187.655273438 689 251.829101562 685 348.349609375 696 c 5
 343.96484375 659 l 5
 318.139648438 655 269.209960938 654.971679688 263.793945312 640 c 4
 250.41015625 603 222.0859375 473 196.713867188 367 c 5
 564.713867188 367 l 5
 578.701171875 436 591.836914062 515.762695312 611.841796875 616 c 4
 619.2265625 653 579.270507812 652 544.790039062 663 c 5
 557.305664062 697 l 5
 635.00390625 681 683.091796875 679 774 704 c 5
 771.615234375 667 l 5
 723.095703125 656 713.263671875 657.248046875 705.362304688 627 c 4
 660.556640625 455.499023438 577.021484375 118.518554688 582.3359375 55 c 4
 584.427734375 30 611.470703125 29 639.55859375 27 c 5
 639.55859375 27 629.431640625 7 628.04296875 -7 c 5x70
 564.387695312 8 495.30078125 10 412.173828125 -10 c 5
 412.173828125 -10 412.169921875 13 412.645507812 25 c 5xb0
 458.208984375 35 486.517578125 36.873046875 493.943359375 64 c 4
 520.8046875 162.134765625 533.678710938 223.958984375 555.459960938 327 c 5
 187.459960938 327 l 5
 169.0234375 238.698242188 146.317382812 136.66796875 135.8125 67 c 4
 130.383789062 31 179.208984375 35 207.514648438 28 c 5
 207.514648438 28 199.518554688 5 195.129882812 -9 c 5
 108.431640625 7 41.30078125 10 -34.95703125 -7 c 5
 -34.95703125 -7 -34.0048828125 17 -32.791015625 35 c 5
 0.947265625 41 38.876953125 40.7001953125 45.8125 67 c 4
 95.7373046875 256.333007812 168.719726562 593.3984375 165.012695312 635 c 4
 163.051757812 657 136.051757812 657 101.833984375 662 c 5
 111.174804688 700 l 5x70
EndSplineSet
Fore
SplineSet
111.174804688 700 m 5x70
 187.655273438 689 251.829101562 685 348.349609375 696 c 5
 343.96484375 659 l 5
 318.139648438 655 269.209960938 654.971679688 263.793945312 640 c 4
 250.41015625 603 222.0859375 473 196.713867188 367 c 5
 564.713867188 367 l 5
 578.701171875 436 591.836914062 515.762695312 611.841796875 616 c 4
 619.2265625 653 579.270507812 652 544.790039062 663 c 5
 557.305664062 697 l 5
 635.00390625 681 683.091796875 679 774 704 c 5
 771.615234375 667 l 5
 723.095703125 656 713.263671875 657.248046875 705.362304688 627 c 4
 660.556640625 455.499023438 577.021484375 118.518554688 582.3359375 55 c 4
 584.427734375 30 611.470703125 29 639.55859375 27 c 5
 639.55859375 27 629.431640625 7 628.04296875 -7 c 5x70
 564.387695312 8 495.30078125 10 412.173828125 -10 c 5
 412.173828125 -10 412.169921875 13 412.645507812 25 c 5xb0
 458.208984375 35 486.517578125 36.873046875 493.943359375 64 c 4
 520.8046875 162.134765625 533.678710938 223.958984375 555.459960938 327 c 5
 187.459960938 327 l 5
 169.0234375 238.698242188 146.317382812 136.66796875 135.8125 67 c 4
 130.383789062 31 179.208984375 35 207.514648438 28 c 5
 207.514648438 28 199.518554688 5 195.129882812 -9 c 5
 108.431640625 7 41.30078125 10 -34.95703125 -7 c 5
 -34.95703125 -7 -34.0048828125 17 -32.791015625 35 c 5
 0.947265625 41 38.876953125 40.7001953125 45.8125 67 c 4
 95.7373046875 256.333007812 168.719726562 593.3984375 165.012695312 635 c 4
 163.051757812 657 136.051757812 657 101.833984375 662 c 5
 111.174804688 700 l 5x70
EndSplineSet
Position2: "cpsp-1" dx=0 dy=0 dh=10 dv=20
Substitution2: "c2pc-1" h.pcap
Substitution2: "c2sc-1" h.smcp
EndChar
StartChar: I
Encoding: 73 73 34
Width: 391
VWidth: 1159
Flags: W
HStem: -2 40<-5.74609 95.0633 204.093 280.957> 656 43<138.421 215.708 330.979 416.446>
AnchorPoint: "Ogonek" 157.909 23 basechar 0
AnchorPoint: "Top" 283.395 699 basechar 0
AnchorPoint: "Bottom" 140.568 -15 basechar 0
LayerCount: 2
Back
SplineSet
140.39453125 699 m 5
 243.310546875 678 306.223632812 680 423.568359375 695 c 5
 416.446289062 652 l 5
 362.533203125 650 333.28125 660.922851562 320.84375 620 c 4
 285.23828125 502.858398438 233.859375 325.626953125 199.682617188 74 c 4
 194.384765625 35 240.166992188 40 290.25390625 38 c 5
 280.95703125 -1 l 5
 189.4765625 10 74.4765625 10 -10 -2 c 5
 -5.74609375 38 l 5
 49.25390625 38 97.4501953125 33.3017578125 111.202148438 85 c 4
 152.124023438 238.845703125 205.161132812 497.926757812 219.930664062 618 c 4
 224.358398438 654 177.490234375 651 128.271484375 656 c 5
 140.39453125 699 l 5
EndSplineSet
Fore
SplineSet
140.39453125 699 m 5
 243.310546875 678 306.223632812 680 423.568359375 695 c 5
 416.446289062 652 l 5
 362.533203125 650 333.28125 660.922851562 320.84375 620 c 4
 285.23828125 502.858398438 233.859375 325.626953125 199.682617188 74 c 4
 194.384765625 35 240.166992188 40 290.25390625 38 c 5
 280.95703125 -1 l 5
 189.4765625 10 74.4765625 10 -10 -2 c 5
 -5.74609375 38 l 5
 49.25390625 38 97.4501953125 33.3017578125 111.202148438 85 c 4
 152.124023438 238.845703125 205.161132812 497.926757812 219.930664062 618 c 4
 224.358398438 654 177.490234375 651 128.271484375 656 c 5
 140.39453125 699 l 5
EndSplineSet
Position2: "cpsp-1" dx=0 dy=0 dh=10 dv=20
Substitution2: "c2pc-1" i.pcap
Substitution2: "c2sc-1" i.smcp
EndChar
StartChar: J
Encoding: 74 74 35
Width: 351
VWidth: 1356
Flags: HMW
HStem: 652 39<146.291 216.947 331.911 420.291>
AnchorPoint: "Top" 272.987 699 basechar 0
AnchorPoint: "Bottom" 104.904 -138 basechar 0
LayerCount: 2
Back
SplineSet
211.055664062 620 m 4
 212.165039062 654 165.19140625 653 116.060546875 658 c 5
 130.0390625 697 l 5
 232.588867188 676 295.432617188 682 413.0390625 697 c 5
 405.165039062 654 l 5
 351.217773438 652 318.197492068 662.908445076 305.002929688 622 c 4
 266.359375 502.189453125 242.806832282 381.42085628 208.399414062 225 c 4
 179.803710938 95 176.403753495 42.7136024806 166.291015625 0 c 4
 149.965064662 -64.2857142857 98.9133765292 -110.324952712 33.423828125 -140 c 4
 7.98686069756 -152.363636364 -17.4947714289 -163.490909091 -43 -174 c 5
 -58.86328125 -141 l 5
 -34.102303361 -133.533333333 -11.9741973191 -129.604474255 2.8212890625 -117 c 4
 8.6904296875 -112 13.6551208222 -108.066796265 18.4541015625 -103 c 4
 64.7250040757 -59.5 83.1730012721 -1.95924959629 100.588867188 65 c 4
 109.719726562 104.42578125 209.868381493 583.612297593 211.055664062 620 c 4
EndSplineSet
Fore
SplineSet
211.055664062 620 m 4
 212.165039062 654 165.19140625 653 116.060546875 658 c 5
 130.0390625 697 l 5
 232.588867188 676 295.432617188 682 413.0390625 697 c 5
 405.165039062 654 l 5
 351.217773438 652 318.197492068 662.908445076 305.002929688 622 c 4
 266.359375 502.189453125 242.806832282 381.42085628 208.399414062 225 c 4
 179.803710938 95 176.403753495 42.7136024806 166.291015625 0 c 4
 149.965064662 -64.2857142857 98.9133765292 -110.324952712 33.423828125 -140 c 4
 7.98686069756 -152.363636364 -17.4947714289 -163.490909091 -43 -174 c 5
 -58.86328125 -141 l 5
 -34.102303361 -133.533333333 -11.9741973191 -129.604474255 2.8212890625 -117 c 4
 8.6904296875 -112 13.6551208222 -108.066796265 18.4541015625 -103 c 4
 64.7250040757 -59.5 83.1730012721 -1.95924959629 100.588867188 65 c 4
 109.719726562 104.42578125 209.868381493 583.612297593 211.055664062 620 c 4
EndSplineSet
Position2: "cpsp-1" dx=0 dy=0 dh=10 dv=20
Substitution2: "c2pc-1" j.pcap
Substitution2: "c2sc-1" j.smcp
EndChar
StartChar: K
Encoding: 75 75 36
Width: 742
Flags: HW
HStem: -9 60<414.205 452.517 589.551 644.272> -8 65<9.5443 74.8976 185.485 228.015> 618 68<149.336 189.979 304.897 364.725 529.326 549.67>
AnchorPoint: "Top" 444.623 699 basechar 0
AnchorPoint: "Bottom" 291.319 -15 basechar 0
LayerCount: 2
Back
SplineSet
474.873046875 686 m 5x50
 536.551757812 679 617.061523438 681 686.637695312 695 c 5
 686.5546875 660 l 5
 640.81640625 650 612.376953125 637.5546875 576.78515625 613 c 4
 470.931640625 531.0078125 367.10546875 448.00390625 263.279296875 365 c 5
 514.401367188 93 l 4
 541.134765625 65 570.763671875 41 594.129882812 27 c 5
 584.784179688 2 l 5
 558.697265625 5.3330078125 524.653320312 7 498.653320312 7 c 4
 467.653320312 7 428.747070312 3.4443359375 397.86328125 -1 c 5x60
 398.182617188 25 l 5
 427.946289062 34 442.33984375 36.70703125 428.213867188 62 c 4
 415.567382812 84.6435546875 271.051757812 233.302734375 195.5625 316 c 5
 177.985351562 237.338867188 157.567382812 134.796875 147.715820312 81 c 4
 139.841796875 38 168.841796875 38 221.208007812 24 c 5
 210.994140625 -6 l 5x80
 141.6796875 6 67.5751953125 10 -28.13671875 -1 c 5
 -24.0537109375 34 l 5
 27.919921875 35 50.6494140625 41.033203125 59.873046875 75 c 4
 105.1328125 241.677734375 148.616210938 421.020507812 178.334960938 592 c 4
 187.89453125 647 175.841796875 649 120.5546875 660 c 5
 131.794921875 689 l 5
 203.083007812 678 288.00390625 681 362.7421875 691 c 5
 358.5546875 660 l 5
 304.685546875 655 279.068359375 652.549804688 266.889648438 609 c 4
 243.116210938 523.98828125 224.182617188 445.047851562 204.48828125 357 c 5
 298.471679688 434.004882812 394.1953125 504.094726562 482.465820312 587 c 4
 494.177734375 598 509.758789062 614 512.497070312 624 c 4
 518.801757812 647.02734375 500.763671875 652 468.580078125 659 c 5
 474.873046875 686 l 5x50
EndSplineSet
Fore
SplineSet
531.116210938 681 m 1x60
 549.265625 677 566.840820312 675 584.840820312 675 c 3
 626.840820312 675 671.116210938 681 718.454101562 692 c 1
 719 624 l 1
 672.875 614 645.811523438 609 621.7734375 590 c 0
 528.736328125 515.145507812 414.434570312 437.171875 315.5234375 354 c 1
 567.345703125 85 l 1
 603.625976562 61.4375 633.624023438 58.1875 662.142578125 46 c 1
 641.665039062 -8 l 1x60
 609.514648438 -4 579.577148438 1 543.577148438 1 c 3
 489.577148438 1 459.514648438 -4 411.452148438 -9 c 1
 414.205078125 51 l 1xa0
 416.41796875 52 454.693359375 58 453.118164062 60 c 1
 439.668945312 72 303.127929688 220 228.344726562 301 c 1
 212.403320312 226 193.147460938 126 184.157226562 79 c 0
 181.606445312 67 201.90625 59 247.48046875 57 c 1
 225.665039062 -8 l 1
 185.940429688 -2 149.577148438 1 106.577148438 1 c 3
 75.5771484375 1 42.15234375 -1 1.08984375 -6 c 1
 9.5439453125 62 l 1
 56.5439453125 62 73.693359375 58 74.96875 64 c 0
 100.5 170 125.030273438 276 148.836914062 388 c 0
 164.991210938 464 178.532226562 523 189.624023438 594 c 0
 193.788085938 623 186.086914062 615 127 624 c 1
 152.178710938 686 l 1
 187.69140625 679 222.053710938 676 257.053710938 676 c 3
 295.053710938 676 331.903320312 680 371.178710938 686 c 1
 364.724609375 618 l 1
 320.875 614 308.662109375 613 306.749023438 604 c 1
 287.169921875 526 261.590820312 448 244.798828125 369 c 1
 328.889648438 440 432.40625 513 519.922851562 586 c 0
 538.32421875 602 545.174804688 606 550.024414062 610 c 0
 550.024414062 610 528.875 614 513.724609375 618 c 1
 531.116210938 681 l 1x60
EndSplineSet
Position2: "cpsp-1" dx=0 dy=0 dh=10 dv=20
Substitution2: "c2pc-1" k.pcap
Substitution2: "c2sc-1" k.smcp
EndChar
StartChar: L
Encoding: 76 76 37
Width: 674
Flags: HW
HStem: -15 21G<524.027 562.981> -8 75<3.10645 73.2597> 1 72<186.77 427.512> 609 79<133.174 176.233 291.279 388.588>
VStem: 548.764 64.2363<144.736 171.417>
AnchorPoint: "TopRight" 421.365 581 basechar 0
AnchorPoint: "Top" 283.363 699 basechar 0
AnchorPoint: "Bottom" 258.555 -15 basechar 0
LayerCount: 2
Back
SplineSet
140.061523438 696 m 5xb0
 215.685546875 675 317.477539062 682 391.151367188 693 c 5
 385.368164062 652 l 5
 301.694335938 641 294.143554688 659.99609375 271.623046875 576 c 4
 258.903320312 528.555664062 174.296875 149 174.296875 149 c 4
 161.047851562 90 155.17578125 52 192.17578125 52 c 4
 232.3203125 52 422.717773438 51.66796875 451.145507812 53 c 4
 517.02734375 57 550.017578125 91 589.791992188 166 c 5
 622 159 l 5
 609.69140625 102 601.09765625 122 545.341796875 -21 c 5
 527.075195312 -12 522.71484375 -5.0849609375 481.748046875 -1 c 4
 468.529296875 0 362.95703125 2 237.659179688 2 c 4x70
 38.6591796875 2 1.9267578125 -7 -8.0732421875 -7 c 5
 -2.37890625 37 l 5
 54.4423828125 43 66.5927734375 43.68359375 73.4931640625 75 c 4
 74.3740234375 79 98.267578125 177.79296875 124.815429688 300 c 4
 158.69921875 455.98046875 188.805664062 603.8515625 190.465820312 615 c 4
 194.634765625 643 183.486328125 648 126.426757812 650 c 5
 140.061523438 696 l 5xb0
EndSplineSet
Fore
SplineSet
399.104492188 688 m 1x58
 388.587890625 615 l 1
 291.461914062 605 294.249023438 604 288.084960938 575 c 0
 275.969726562 518 198.536132812 149 194.135742188 133 c 1
 184.932617188 85 181.381835938 73 191.381835938 73 c 0x38
 255.168945312 72 418.95703125 71 463.870117188 80 c 0
 510.783203125 89 499.908203125 99 548.763671875 183 c 1
 613 170 l 1
 599.971679688 104 590.28515625 129 535.676757812 -15 c 1x98
 512.377929688 -7 506.440429688 -2 460.65234375 -1 c 0
 446.65234375 -1 355.078125 1 248.078125 1 c 1x38
 23.078125 1 40.1650390625 -8 -5.8349609375 -8 c 1
 3.1064453125 67 l 1
 44.3193359375 68 68.744140625 70 71.8701171875 80 c 0
 74.9951171875 90 96.61328125 187 121.26953125 303 c 0
 153.366210938 454 175.573242188 582 177.974609375 598 c 0
 179.737304688 611 168.3125 609 113.3125 609 c 1
 135.104492188 688 l 1
 175.19140625 679 221.340820312 675 265.340820312 675 c 3
 311.340820312 675 358.403320312 680 399.104492188 688 c 1x58
EndSplineSet
Position2: "cpsp-1" dx=0 dy=0 dh=10 dv=20
Substitution2: "c2pc-1" l.pcap
Substitution2: "c2sc-1" l.smcp
EndChar
StartChar: M
Encoding: 77 77 38
Width: 899
Flags: W
HStem: -13 74<573.696 645.023> -11 74<-33.8779 35.1863 120.826 158.176 753.647 801.146> -3 21G<329.093 404.982> 610 72<842.901 925.391> 614 79<119.392 157.171>
AnchorPoint: "Top" 543.424 699 basechar 0
AnchorPoint: "Bottom" 397.83 -15 basechar 0
LayerCount: 2
Back
SplineSet
837.252929688 -4 m 5x60
 766.51953125 10 679.466796875 11 583.41015625 -7 c 5
 586.419921875 31 l 5x80
 664.842773438 42 686.390625 54.2177734375 701.599609375 123 c 4
 733.823242188 268.71875 756.955078125 412.413085938 772.38671875 547 c 5
 676.502929688 417.098632812 585.341796875 279.734375 495.5 144 c 4
 467.701171875 102 436.633789062 46 419.043945312 0 c 5
 381.043945312 0 l 5
 390.162109375 55 379.805664062 109.893554688 368.028320312 153 c 6
 260.38671875 547 l 5
 215.697265625 414.870117188 179.076171875 269.815429688 149.599609375 123 c 4
 133.739257812 44 154.372070312 51 226.106445312 37 c 5
 213.252929688 -4 l 5
 147.73046875 6 58.4150390625 12 -27.7470703125 -4 c 5
 -23.8935546875 37 l 5
 61.58203125 47 82.8857421875 62.958984375 96.0185546875 115 c 6
 202.015625 535 l 6
 210.405273438 568.241210938 212.676757812 602.665039062 200.509765625 621 c 4
 188.567382812 639 165.939453125 651 106.885742188 652 c 5
 123.58203125 696 l 5x50
 176.052734375 687 239.228515625 683 298.262695312 683 c 4
 315.262695312 683 316.06640625 670.01953125 318.572265625 658 c 4
 354.634765625 485 398.33203125 319 453.556640625 162 c 5
 807.681640625 675 l 4
 813.208984375 684 820.982421875 687.822265625 827.052734375 687 c 4
 871.3671875 681 922.262695312 683 970 688 c 5
 967.096679688 648 l 5
 896.200195312 646 867.743164062 637.969726562 855.762695312 578 c 4
 824.865234375 423.341796875 796.131835938 268.662109375 772.915039062 117 c 4
 761.739257812 44 782.948242188 40 846.000976562 39 c 5
 837.252929688 -4 l 5x60
EndSplineSet
Fore
SplineSet
799.392578125 -11 m 1x50
 764.092773438 -3 726.73046875 0 687.73046875 0 c 3
 650.73046875 0 612.092773438 -3 567.967773438 -13 c 1
 573.696289062 61 l 1x80
 623.459960938 74 645.459960938 74 650.073242188 91 c 0
 686.106445312 237 710.541015625 399 731.172851562 529 c 1
 641.478515625 394 546.145507812 256 462.938476562 128 c 0
 437.861328125 90 414.87109375 43 395.092773438 -3 c 1
 329.092773438 -3 l 1x20
 337.020507812 39 330.247070312 73 322.025390625 119 c 0
 293.159179688 289 227.559570312 512 227.385742188 530 c 1
 189.603515625 404 154.657226562 249 126.961914062 114 c 0
 115.05859375 58 112.948242188 81 181.759765625 66 c 1
 155.817382812 -9 l 1
 126.305664062 -2 91.73046875 0 53.73046875 0 c 3
 23.73046875 0 -8.4814453125 -1 -41.607421875 -11 c 1
 -33.8779296875 63 l 1
 31.822265625 71 43.2236328125 87 45.4111328125 102 c 1
 45.8369140625 104 157.787109375 546 158.63671875 550 c 1
 165.525390625 573 165.564453125 592 157.477539062 601 c 0
 150.96484375 608 143.453125 615 92.240234375 614 c 1
 122.032226562 693 l 1x48
 174.694335938 682 234.418945312 676 288.84375 678 c 1
 315.056640625 679 318.743164062 654 318.892578125 650 c 0
 345.458007812 488 386.662109375 329 425.502929688 173 c 1
 425.203125 181 743.805664062 659 745.018554688 660 c 0
 754.994140625 674 770.119140625 684 786.694335938 682 c 0
 836.418945312 676 882.481445312 681 933.544921875 686 c 1
 925.390625 610 l 1
 867.115234375 604 848.666015625 616 844.626953125 597 c 0
 807.555664062 432 787.333984375 271 753.010742188 86 c 0
 749.397460938 69 758.822265625 71 819.184570312 68 c 1
 799.392578125 -11 l 1x50
EndSplineSet
Position2: "cpsp-1" dx=0 dy=0 dh=10 dv=20
Substitution2: "c2pc-1" m.pcap
Substitution2: "c2sc-1" m.smcp
EndChar
StartChar: N
Encoding: 78 78 39
Width: 802
Flags: W
HStem: -13 81<-27.1152 39.0541 129.513 207.917> 0 74<-27.1152 40.7629> 610 68<104.545 140.098 787.097 854.028> 615 76<630.715 697.961>
VStem: 585.968 74.4639<6 47.7811>
AnchorPoint: "Top" 493.434 699 basechar 0
AnchorPoint: "Bottom" 351.597 -15 basechar 0
LayerCount: 2
Back
SplineSet
113.782226562 691 m 5xd0
 155.907226562 687 210.834960938 683 255.130859375 683 c 4
 269.130859375 683 271.223632812 679.5859375 275.611328125 672 c 4
 377.502929688 495.836914062 486.623046875 327.50390625 604.653320312 167 c 5
 636.45703125 289.721679688 663.666015625 411.680664062 689.416015625 539 c 4
 714.090820312 661 660.571289062 650 607.265625 657 c 5
 620.607421875 695 l 5xb0
 712.534179688 681 783.557617188 681 860 686 c 5
 856.614257812 649 l 5
 794.014648438 643 767.951171875 645.13671875 751.622070312 603 c 4
 705.666015625 438.103515625 664.63671875 261.4375 630.188476562 86 c 4
 625.280273438 61 621.938476562 23 622.942382812 0 c 5
 586.421875 -11 l 5
 580.37890625 32 561.48046875 72.7509765625 541.359375 105 c 4
 445.291015625 258.977539062 346.82421875 409.975585938 242.629882812 557 c 5
 155.001953125 159 l 6
 133.584858098 61.725034685 160.977748673 46 246.37109375 36 c 5
 228.37890625 -10 l 5
 146.025390625 21 66.8544921875 2 2.1611328125 -5 c 5
 6.2392578125 39 l 5
 59.2392578125 39 79.216796875 50.1591796875 91.6650390625 98 c 4
 131.176757812 249.852539062 162.244140625 410.952148438 195.0625 570 c 4
 201.666015625 602 172.24609375 648 103.702148438 647 c 5
 113.782226562 691 l 5xd0
EndSplineSet
Fore
SplineSet
104.544921875 684 m 1x48
 131.544921875 684 185.418945312 674 221.418945312 674 c 0
 241.418945312 674 249.65625 661 253.592773438 656 c 0
 371.8203125 483 479.55078125 350 618.817382812 196 c 1
 641.647460938 294 657.61328125 355 680.569335938 463 c 0
 686.30859375 490 691.834960938 516 697.149414062 541 c 0
 716.192382812 640 672.540039062 604 607.877929688 615 c 1
 633.032226562 691 l 1x58
 690.907226562 681 741.26953125 678 793.26953125 678 c 3
 814.26953125 678 836.481445312 679 859.907226562 681 c 1
 854.028320312 611 l 1
 809.752929688 605 793.303710938 617 791.815429688 610 c 0
 740.98046875 432 706.584960938 289 664.923828125 93 c 0
 659.184570312 66 659.3203125 29 660.431640625 6 c 1
 585.967773438 -15 l 1
 578.169921875 33 552.822265625 69 526.686523438 106 c 0
 426.657226562 247 328.1015625 362 217.008789062 498 c 1
 215.30859375 490 139.46484375 152 135.9765625 145 c 1
 111.720703125 45 142.310546875 76 234.609375 68 c 1
 205.392578125 -13 l 1xa8
 167.305664062 -4 129.15625 0 94.15625 0 c 3
 52.15625 0 11.0927734375 -5 -35.1826171875 -11 c 1
 -27.115234375 74 l 1
 21.4599609375 72 33.759765625 64 39.2236328125 85 c 0
 72.1552734375 207 99.0869140625 329 125.869140625 455 c 0
 134.159179688 494 138.41015625 514 145.63671875 548 c 1
 151.163085938 574 145.815429688 610 84.7529296875 605 c 1
 104.544921875 684 l 1x48
EndSplineSet
Position2: "cpsp-1" dx=0 dy=0 dh=10 dv=20
Substitution2: "c2pc-1" n.pcap
Substitution2: "c2sc-1" n.smcp
EndChar
StartChar: O
Encoding: 79 79 40
Width: 757
VWidth: 1159
Flags: W
HStem: -10 53<272.863 456.334> 655 50<341.459 522.992>
VStem: 36.7354 96.0459<202.593 413.03> 662.638 100.362<290.286 501.723>
AnchorPoint: "Middle" 406.734 358 basechar 0
AnchorPoint: "Ogonek" 385.734 10 basechar 0
AnchorPoint: "Top" 474.562 699 basechar 0
AnchorPoint: "Bottom" 339.562 -15 basechar 0
LayerCount: 2
Fore
SplineSet
427.563476562 655 m 3
 283.125 655 132.78125 545.053710938 132.78125 322.274414062 c 3
 132.78125 167.192382812 226.79296875 43 368.563476562 43 c 3
 518.885742188 43 662.637695312 200.982421875 662.637695312 384.791015625 c 3
 662.637695312 535.33203125 569.92578125 655 427.563476562 655 c 3
474.563476562 705 m 3
 647.458984375 705 763 579.896484375 763 411.1640625 c 3
 763 183.0703125 545.200195312 -10 338.563476562 -10 c 3
 158.209960938 -10 36.7353515625 117.641601562 36.7353515625 287.963867188 c 3
 36.7353515625 530.426757812 255.122070312 705 474.563476562 705 c 3
EndSplineSet
Position2: "cpsp-1" dx=0 dy=0 dh=10 dv=20
Substitution2: "c2pc-1" o.pcap
Substitution2: "c2sc-1" o.smcp
EndChar
StartChar: P
Encoding: 80 80 41
Width: 639
Flags: W
HStem: -15 69<10.6535 70.1419> -11 73<188.482 252.509> 198 68<222.136 387.663> 205 67<221.503 257.109> 609 72<130.464 174.157> 618 68<287.123 456.898>
AnchorPoint: "Top" 401.322 699 basechar 0
AnchorPoint: "Bottom" 143.755 -15 basechar 0
LayerCount: 2
Back
SplineSet
296.594726562 283 m 7x28
 392.829101562 283 490.5 338.01171875 518.234375 452 c 4
 538.858398438 536.767578125 503.985351562 611.611328125 467.720703125 632 c 4
 439.26171875 648 398.708007812 654 339.413085938 654 c 7
 325.413085938 654 313.696289062 642.208007812 310.790039062 627 c 4
 296.778320312 553.663085938 264.759765625 423.8359375 237.42578125 295 c 5
 254.98046875 286 271.420898438 283 296.594726562 283 c 7x28
156.953125 687 m 5xb0
 179.979492188 685 212.022460938 682 248.022460938 682 c 7
 310.953125 682 348.938476562 693 411.868164062 693 c 7
 567.456054688 693 638.852539062 570.385742188 611.150390625 458 c 4
 583.505859375 345.846679688 467.0703125 247 281.096679688 247 c 7
 259.096679688 247 245.02734375 252 227.970703125 256 c 5
 212.76171875 186.220703125 192.864257812 108.416992188 189.470703125 77 c 4
 185.043945312 36 206.91796875 45 272.987304688 40 c 5
 255.643554688 -7 l 5x68
 163.419921875 9 120.340820312 14.6669921875 9.7001953125 -11 c 5
 7.1826171875 26 l 5
 82.8056640625 53.0341796875 93.5185546875 42.7763671875 104.400390625 82 c 4
 143.366210938 227.723632812 186.32421875 444.322265625 220.02734375 610 c 4
 224.70703125 633 208.552734375 644 143.5390625 645 c 5
 156.953125 687 l 5xb0
EndSplineSet
Fore
SplineSet
281.227539062 266 m 1x20
 404.227539062 266 503.01953125 345 523.424804688 441 c 1
 537.453125 507 500.482421875 573 458.583984375 597 c 0
 438.133789062 609 395.834960938 617 365.046875 618 c 0
 331.259765625 619 287.49609375 606 287.071289062 604 c 0
 274.405273438 535 247.221679688 393 221.502929688 272 c 1x14
 239.227539062 266 259.227539062 266 281.227539062 266 c 1x20
132.438476562 681 m 1x88
 161.587890625 677 177.163085938 675 218.163085938 675 c 1
 293.163085938 675 325.500976562 686 398.500976562 686 c 1
 563.500976562 686 656.26953125 572 629.487304688 446 c 1
 608.01953125 345 495.7734375 198 257.7734375 198 c 1x24
 243.7734375 198 218.8359375 203 209.26171875 205 c 1
 198.5703125 150 189.879882812 95 187.204101562 73 c 0
 185.440429688 60 236.778320312 71 272.866210938 62 c 1
 250.349609375 -11 l 1x50
 205.474609375 -1 170.6875 0 135.6875 0 c 3
 101.6875 0 66.8994140625 1 11.4990234375 -15 c 1
 3.1650390625 54 l 1
 67.62890625 75 67.4404296875 60 69.9912109375 72 c 0
 76.79296875 104 83.5947265625 136 92.7353515625 179 c 0
 126.318359375 337 166.830078125 537 176.284179688 605 c 0
 177.346679688 610 165.133789062 609 112.133789062 609 c 1
 132.438476562 681 l 1x88
EndSplineSet
Position2: "cpsp-1" dx=0 dy=0 dh=10 dv=20
Substitution2: "c2pc-1" p.pcap
Substitution2: "c2sc-1" p.smcp
EndChar
StartChar: Q
Encoding: 81 81 42
Width: 786
Flags: HW
HStem: -171 74<614.642 752.132> -12 82<299.69 376.925> 619 73<356.095 535.886>
AnchorPoint: "Middle" 402.727 347.853 basechar 0
AnchorPoint: "Top" 484.621 699 basechar 0
AnchorPoint: "Bottom" 258.553 -15 basechar 0
LayerCount: 2
Back
SplineSet
462.775390625 684 m 7
 334.775390625 684 217.106445312 566.940429688 179.97265625 392 c 4
 142.188476562 214 198.0546875 46 349.0546875 46 c 7
 478.0546875 46 594.885742188 170.951171875 632.543945312 347 c 4
 678.10546875 560 592.775390625 684 462.775390625 684 c 7
479.658203125 716 m 7
 657.658203125 716 774.327148438 567.131835938 731.844726562 367 c 4
 694.061523438 189 541.508789062 33 375.625976562 1 c 5
 432.342773438 -84.2236328125 548.790039062 -113 655.607421875 -113 c 7
 678.91015625 -113 706.997070312 -109.142578125 717.362304688 -106 c 5
 722.4453125 -137 l 5
 704.563476562 -144.876953125 641.977539062 -162 593.318359375 -162 c 7
 443.595703125 -162 332.20703125 -99.3642578125 280.731445312 -2 c 5
 125.788085938 25 40.2734375 172.837890625 80.9501953125 364 c 4
 127.336914062 582 302.658203125 716 479.658203125 716 c 7
EndSplineSet
Fore
SplineSet
432.231445312 619 m 3
 333.231445312 619 205.55078125 517 171.329101562 356 c 0
 134.982421875 185 255.538085938 70 390.538085938 70 c 3
 501.538085938 70 625.856445312 175 656.889648438 321 c 0
 696.42578125 507 581.231445312 619 432.231445312 619 c 3
497.3984375 27 m 1
 551.755859375 -56 638.041015625 -97 705.041015625 -97 c 3
 725.041015625 -97 742.25390625 -96 751.25390625 -96 c 1
 757.775390625 -150 l 1
 735.86328125 -159 695.3125 -171 648.3125 -171 c 3
 529.3125 -171 435.490234375 -109 363.108398438 -12 c 1
 125.108398438 -12 20.54296875 150 59.228515625 332 c 0
 103.65234375 541 287.748046875 692 482.748046875 692 c 3
 678.748046875 692 808.140625 548 767.541992188 357 c 0
 735.87109375 208 625.388671875 74 497.3984375 27 c 1
EndSplineSet
Position2: "cpsp-1" dx=0 dy=0 dh=10 dv=20
Substitution2: "salt-1" Q.alt
Substitution2: "c2pc-1" q.pcap
Substitution2: "c2sc-1" q.smcp
EndChar
StartChar: R
Encoding: 82 82 43
Width: 707
Flags: HMW
AnchorPoint: "Top" 388.891 699 basechar 0
AnchorPoint: "Bottom" 340.125 -15 basechar 0
LayerCount: 2
Back
SplineSet
228.7890625 371 m 5x28
 265.805664062 369 285.825195312 367 322.825195312 367 c 7
 457.825195312 367 508.875 455.28125 521.59375 508 c 4
 536.069335938 568 501.231445312 664 393.231445312 664 c 7
 365.231445312 664 304.939453125 655.787109375 290.676757812 613 c 4
 265.340820312 537 245.126953125 447 228.7890625 371 c 5x28
151.038085938 686 m 5x70
 192.046875 685 213.046875 685 254.046875 685 c 4
 319.046875 685 349.873046875 705 422.873046875 705 c 4
 545.873046875 705 629.505859375 622.46875 604.489257812 520 c 4
 583.247070312 433 503.780273438 372 423.041992188 342 c 5
 484.815429688 139 571.958007812 8 695.995117188 4 c 5
 681.30859375 -32 l 5xa8
 514.3515625 -37 366.692382812 153 338.208007812 323 c 5
 329.216796875 322 322.216796875 322 315.216796875 322 c 4
 277.216796875 322 257.190429688 325 220.173828125 327 c 5
 201.39453125 232.170898438 187.16015625 164.038085938 172.296875 84 c 4
 165.610351562 48 183.662109375 42 235.70703125 37 c 5
 219.08984375 -7 l 5
 148.94140625 10 73.9326171875 11 -4.9365234375 -4 c 5
 -1.29296875 37 l 5
 48.689453125 39 63.662109375 42 74.3916015625 73 c 5
 137.881835938 303.684570312 157.951171875 392.1796875 201.798828125 599 c 5
 206.485351562 635 199.379882812 647 141.362304688 649 c 5
 151.038085938 686 l 5x70
EndSplineSet
Fore
SplineSet
220.017578125 360 m 1
 245.805664062 359 274.379882812 357 302.379882812 357 c 3
 375.379882812 357 466.0703125 412 483.5 494 c 0
 498.8046875 566 449.495117188 621 379.495117188 621 c 3
 323.495117188 621 270.993164062 613.255859375 268.393554688 597 c 0
 265.35546875 578 235.959960938 435 220.017578125 360 c 1
116.97265625 675 m 1
 159.760742188 674 185.547851562 673 223.547851562 673 c 3
 283.547851562 673 313.586914062 692 383.586914062 692 c 3
 508.586914062 692 616.557617188 626 590.201171875 502 c 0
 569.158203125 403 483.829101562 345 420.665039062 316 c 1
 504.216796875 121 580.637695312 43 695 40 c 1
 665.333007812 -29 l 1
 491.18359375 -25 349.71875 161 304.776367188 293 c 1
 293.564453125 292 281.3515625 291 266.3515625 291 c 3
 242.3515625 291 224.776367188 293 205.989257812 294 c 1
 193.59765625 231 173.405273438 136 161.501953125 80 c 0
 158.73828125 67 183.313476562 65 228.1015625 64 c 1
 198.521484375 -14 l 1
 165.647460938 -4 129.497070312 0 92.4970703125 0 c 3
 58.4970703125 0 22.6474609375 -4 -14.265625 -13 c 1
 -11.8984375 64 l 1
 42.888671875 63 52.0771484375 78 52.6513671875 76 c 1
 81.033203125 186 98.1875 262 114.553710938 339 c 0
 131.771484375 420 144.799804688 486 164.90625 590 c 1
 166.09375 605 153.881835938 604 102.306640625 606 c 1
 116.97265625 675 l 1
EndSplineSet
Position2: "cpsp-1" dx=0 dy=0 dh=10 dv=20
Substitution2: "salt-1" R.alt
Substitution2: "c2pc-1" r.pcap
Substitution2: "c2sc-1" r.smcp
EndChar
StartChar: S
Encoding: 83 83 44
Width: 563
Flags: HW
HStem: -14 77<171.634 343.191> -1 21G<3.28672 68.9244> 613 74<279.446 459.37>
VStem: 3.28672 62.1494<2.54947 24.1148> 20.9723 69.125<145.497 185>
AnchorPoint: "Top" 389.931 699 basechar 0
AnchorPoint: "Bottom" 229.862 -15 basechar 0
LayerCount: 2
Back
SplineSet
32.7119140625 202 m 5xd8
 65.501953125 208 l 5
 69.091796875 149 68.5634765625 128.506835938 81.994140625 108 c 4
 112.89453125 66.58203125 188.685546875 33 246.61328125 33 c 7
 341.61328125 33 400.159179688 102.38671875 409.283203125 157 c 4
 431.572265625 290.41796875 296.87109375 317.834960938 228.124023438 362 c 4
 209.7109375 373.829101562 117.540039062 436 145.349609375 556 c 4
 162.301757812 629.151367188 245.169921875 710 374.971679688 710 c 7xd8
 424.219726562 710 463.08203125 695.456054688 480.740234375 688 c 4
 494.94921875 682 500.333984375 671 524.286132812 701 c 5xb8
 551.600585938 692 l 5
 518.39453125 612 521.463867188 610.009765625 523.280273438 558 c 4
 524.012695312 537 515.641601562 519 484.432617188 525 c 5
 481.873046875 541 483.204101562 565.840820312 479.372070312 584 c 4
 469.241210938 632 417.1171875 672 352.298828125 672 c 7
 311.891601562 672 228.293945312 644.06640625 217.0703125 564 c 4
 203.89453125 470.0078125 266.827148438 453.661132812 380.83203125 399 c 4
 503.470703125 339.081054688 505.18359375 237.479492188 490.689453125 174 c 4
 473.092773438 96.931640625 395.676757812 -10 215.115234375 -10 c 7
 165.282226562 -10 116.798828125 2.4521484375 75.857421875 26 c 4
 58.0244140625 35.5458984375 56.978515625 34.181640625 41.9052734375 -4 c 5
 8.765625 0 l 5
 29.5068359375 71.845703125 30.01953125 90.587890625 32.7119140625 202 c 5xd8
EndSplineSet
Fore
SplineSet
20.97265625 185 m 1x68
 90.09765625 195 l 1
 110.895507812 147 116.64453125 127 127.943359375 119 c 0
 146.9921875 91 206.041015625 63 255.041015625 63 c 3
 351.041015625 63 388.880859375 114 400.784179688 170 c 0
 417.36328125 248 305.291015625 290 224.943359375 326 c 0
 205.643554688 334 95.783203125 377 122.352539062 502 c 0
 141.6953125 593 249.67578125 687 386.67578125 687 c 3
 449.67578125 687 486.337890625 676 509.211914062 666 c 0
 521.149414062 661 513.57421875 663 526.400390625 681 c 1
 584 665 l 1
 564.985351562 632 561.372070312 615 559.333007812 596 c 0
 551.478515625 512 546.801757812 490 476.71484375 499 c 1
 472.98046875 552 479.869140625 575 465.419921875 587 c 0
 449.18359375 600 417.946289062 613 360.946289062 613 c 3
 301.946289062 613 235.719726562 579 224.2421875 525 c 0
 209.575195312 456 265.599609375 442 405.145507812 374 c 0
 507.517578125 324 511.513671875 244 497.91015625 180 c 0
 480.267578125 97 399.673828125 -14 221.673828125 -14 c 3xa8
 177.673828125 -14 124.649414062 0 79.9638671875 25 c 1
 79.2626953125 17 72.4130859375 13 65.4365234375 -1 c 1
 3.287109375 3 l 1x70
 21.37890625 74 18.228515625 78 20.97265625 185 c 1x68
EndSplineSet
Position2: "cpsp-1" dx=0 dy=0 dh=10 dv=20
Substitution2: "c2pc-1" s.pcap
Substitution2: "c2sc-1" s.smcp
EndChar
StartChar: T
Encoding: 84 84 45
Width: 711
VWidth: 1159
Flags: HMW
HStem: -21 51<146.854 251.432> -11 44<363.699 433.854> 632 51<195.933 406.854 497.181 715.797> 676 34G<181.854 198.354 774.854 797.854>
AnchorPoint: "Top" 424.346 699 basechar 0
AnchorPoint: "Bottom" 298.509 -15 basechar 0
LayerCount: 2
Fore
SplineSet
216.869140625 687 m 0x20
 380.956054688 685 545.04296875 683 710.956054688 685 c 0
 725.956054688 685 740.737304688 690 750.301757812 700 c 1
 769 684 l 1
 748.5703125 648 726.317382812 608 714.368164062 561 c 1
 679.106445312 567 l 1
 692.796875 597 l 0
 712.658203125 646 528.137695312 635 475.137695312 635 c 1
 432.556640625 456.666992188 394.880859375 281.35546875 360.489257812 100 c 0
 348.239257812 37 351.977539062 43 449.4140625 33 c 1
 434.333984375 -11 l 1x60
 358.461914062 9 224.766601562 2 144.771484375 -21 c 1
 145.544921875 30 l 1
 257.065429688 41 258.541015625 53 264.537109375 76 c 0
 295.4765625 197.870117188 380.805664062 573.553710938 380.094726562 636 c 1xa0
 321.051757812 637 261.094726562 636 203.356445312 630 c 0
 157.575195312 625 157.356445312 630 107.5859375 556 c 1
 74.84375 573 l 1
 101.142578125 612 144.650390625 692 159.689453125 714 c 1x10
 177.475585938 696 196.869140625 687 216.869140625 687 c 0x20
EndSplineSet
Position2: "cpsp-1" dx=0 dy=0 dh=10 dv=20
Substitution2: "c2pc-1" t.pcap
Substitution2: "c2sc-1" t.smcp
EndChar
StartChar: U
Encoding: 85 85 54
Width: 816
Flags: W
HStem: -13 88<256.871 487.114> 613 73<122.332 162.857 276.319 344.304 648.743 689.282 771.82 839.028>
AnchorPoint: "Ogonek" 365.686 10 basechar 0
AnchorPoint: "Top" 498.036 699 basechar 0
AnchorPoint: "Bottom" 316.471 -15 basechar 0
LayerCount: 2
Back
SplineSet
112.318359375 690 m 5
 166.5390625 683 288.5390625 683 365.318359375 690 c 5
 361.418945312 655 l 5
 296.638671875 648 268.94921875 648.659179688 258.3671875 593 c 4
 256.630859375 583.892578125 182.045898438 286.654296875 174.987304688 255 c 4
 160.967773438 192 162.19140625 140.728515625 188.700195312 105 c 4
 216.89453125 67 272.6171875 44 368.6171875 44 c 7
 391.6171875 44 471.813476562 45.8740234375 536.794921875 102 c 4
 579.6328125 139 601.733398438 189.1015625 621.830078125 260 c 4
 649.155273438 356.104492188 680.993164062 512.041992188 698.895507812 608 c 4
 707.44921875 654 680.544921875 651 618.512695312 652 c 5
 628.318359375 690 l 5
 675.5390625 683 812.6015625 681 844.318359375 690 c 5
 837.576171875 650 l 5
 790.606445312 649 769.286132812 656.360351562 756.581054688 618 c 4
 752.888671875 606.876953125 727.217773438 487.592773438 671.987304688 255 c 4
 652.563476562 173 614.622070312 107.98046875 560.95703125 65 c 4
 498.529296875 15 415.314453125 -10 317.314453125 -10 c 7
 208.314453125 -10 142.056640625 18.771484375 108.86328125 68 c 4
 80.54296875 110 76.9677734375 165.724609375 90.5849609375 236 c 4
 96.673828125 267.348632812 171.453125 581.645507812 174.272460938 596 c 4
 182.890625 640 173.827148438 642 98.544921875 651 c 5
 112.318359375 690 l 5
EndSplineSet
Fore
SplineSet
124.182617188 686 m 1
 151.119140625 681 195.694335938 679 241.694335938 679 c 3
 280.694335938 679 320.119140625 681 350.969726562 685 c 1
 344.303710938 616 l 1
 295.028320312 610 281.728515625 618 278.327148438 602 c 0
 274.926757812 586 229.627929688 387 206.5078125 250 c 0
 198.092773438 201 191.952148438 158 214.000976562 130 c 0
 240.561523438 95 288.310546875 75 398.310546875 75 c 3
 417.310546875 75 487.16015625 79 541.087890625 121 c 0
 576.827148438 148 595.904296875 186 613.657226562 246 c 0
 641 337 671.921875 506 691.115234375 601 c 0
 694.515625 617 675.453125 612 632.666015625 613 c 1
 650.182617188 686 l 1
 676.119140625 681 723.056640625 676 764.056640625 676 c 3
 800.056640625 676 833.694335938 679 850.39453125 687 c 1
 839.028320312 610 l 1
 797.240234375 611 772.815429688 609 771.752929688 604 c 0
 768.776367188 590 747.844726562 468 696.657226562 246 c 0
 678.865234375 167 642.686523438 105 588.546875 62 c 0
 525.70703125 11 439.60546875 -13 344.60546875 -13 c 3
 228.60546875 -13 154.34375 14 114.333984375 61 c 0
 80.8369140625 101 79.58984375 161 90.0439453125 229 c 0
 95.908203125 266 165.864257812 581 164.051757812 596 c 0
 163.602539062 608 152.602539062 608 101.666015625 613 c 1
 124.182617188 686 l 1
EndSplineSet
Position2: "cpsp-1" dx=0 dy=0 dh=10 dv=20
Substitution2: "c2pc-1" u.pcap
Substitution2: "c2sc-1" u.smcp
EndChar
StartChar: V
Encoding: 86 86 55
Width: 691
VWidth: 1159
Flags: W
HStem: 651 42<102.467 150.064 254.484 335.001 557.449 609.482 700.59 769.885>
VStem: 160.765 42.7793<-27 14.614> 161.254 85.0049<111 591.14> 161.391 92.2598<137.86 646.685>
AnchorPoint: "Top" 446 699 basechar 0
AnchorPoint: "Bottom" 186.649 -15 basechar 0
LayerCount: 2
Fore
SplineSet
344.227539062 692 m 1x90
 335.000976562 656 l 1
 309.216796875 657 290.305664062 656.294921875 278.688476562 654 c 0
 248.3203125 648 253.848632812 631.770507812 253.650390625 618 c 2x90
 246.258789062 111 l 1xa0
 602.623046875 608 l 2
 616.521484375 623.654296875 618.797851562 651 595.044921875 651 c 0
 589.46484375 651 550.916992188 653 546.267578125 653 c 1
 557.44921875 693 l 1
 624.286132812 678 729.21484375 681 776 693 c 1
 769.884765625 651 l 1
 733.358398438 650 706.204101562 641.541992188 654.834960938 594 c 0
 623.390625 558.201171875 367.18359375 221.500976562 255.0234375 60 c 0
 234.216796875 35.64453125 215.328125 0 203.543945312 -27 c 1
 160.764648438 -27 l 1xc0
 160.115234375 0 161.248046875 21.015625 161.25390625 57 c 0xa0
 161.272460938 169.40625 161.331054688 403.74609375 161.390625 610 c 0
 161.403320312 652.190429688 132.327148438 649 90.41015625 656 c 1
 104.80078125 694 l 1
 201.557617188 676 238.787109375 687 344.227539062 692 c 1x90
EndSplineSet
Position2: "cpsp-1" dx=0 dy=0 dh=10 dv=20
Substitution2: "c2pc-1" v.pcap
Substitution2: "c2sc-1" v.smcp
EndChar
StartChar: W
Encoding: 87 87 56
Width: 1038
Flags: W
HStem: -8 20G<121.263 189.873 500.177 567.969> 616 74<258.979 310.764 468.996 497.26 634.305 680.65 848.349 915.987> 672 20G<75.99 92.332>
VStem: 130.987 114.949<151 590.799> 503.392 120.608<175 349.212> 510.559 119.325<178.621 378 431.275 598.489>
AnchorPoint: "Top" 583 699 basechar 0
AnchorPoint: "Bottom" 355 -15 basechar 0
LayerCount: 2
Back
SplineSet
1027 693 m 5x88
 1023 657 l 5
 941.095703125 630 925.485351562 607.025390625 856 496 c 4
 657.6171875 179.017578125 592.538085938 79.681640625 569 42 c 4
 553.713867188 17.5302734375 543.451171875 7 533 -15 c 5
 497 -16 l 5
 501 2 498.1796875 18.5419921875 498 58 c 4
 497.370117188 196.162109375 496.629882812 337.837890625 496 476 c 5
 314.416015625 172.07421875 252.02734375 66.6865234375 228 23 c 4
 217 3 211 -9 206 -21 c 5
 172 -21 l 5
 172 -1 172.338867188 23.3837890625 172 89 c 4xa8
 170.658203125 348.821289062 166.040039062 558.569335938 166 574 c 4
 165.922851562 603.966796875 158 627.045898438 147 637 c 4
 128.606445312 653.645507812 106.771484375 659.451171875 83 661 c 5
 91 690 l 5
 143.333007812 678.9765625 285.666992188 681.379882812 347 690 c 5
 344 655 l 5
 294.655273438 655 273.747070312 643.354492188 263 619 c 4
 258 607.668945312 256.120117188 585.325195312 256 572 c 6
 252 130 l 5
 498 556 l 5
 498 611.3125 498 626.78125 495 631 c 5
 481.983398438 656 448.849609375 656 424 661 c 5
 436 690 l 5
 501 679 607 678 691 694 c 5
 686 658 l 5
 680 657 636.943359375 657.461914062 627 656 c 4
 593 651 589.611328125 626.842773438 589 609 c 6xd0
 572 113 l 5
 663.740234375 257.756835938 746.68359375 398.971679688 820 525 c 4
 866.002929688 604.078125 882 653.576171875 780 656 c 5
 787 688 l 5
 839 679 935 679 1027 693 c 5x88
EndSplineSet
Fore
SplineSet
1101.07617188 690 m 1xd8
 1098.046875 624 l 1
 1030.8828125 595 1044.94921875 617 974.522460938 528 c 1
 770.42992519 268.390852391 699.293672107 182.424644351 603.68359375 44 c 0
 586.090259385 18.5283018868 585.801438604 17.5849056604 567.96875 -6 c 1
 498.909179688 -9 l 1
 501.445314486 11 502.109814516 31.6783884017 503.391601562 66 c 0xd8
 507.275622348 170 507.652276526 276 510.55859375 378 c 1
 353.178710938 200 213.302648141 30.4798418729 206.799804688 22 c 0
 195.81977743 7.68181818182 195.482496057 4.95454545455 184.262695312 -8 c 1
 121.262695312 -8 l 1
 124.413293323 31 127.896826607 36.8744093494 130.987304688 113 c 0
 135.534179688 225 136.065956269 472.831704252 131.997070312 552 c 0
 131.47890661 562.081908828 129.335749498 587.616947542 118.88671875 597 c 0
 102.182617188 612 87.49609375 612 63.1337890625 615 c 1
 80.5009765625 692 l 1xb4
 104.163085938 681 147.100585938 676 192.100585938 676 c 3
 236.100585938 676 282.012695312 685 310.076171875 690 c 1
 317.346679688 616 l 1
 274.43359375 607 267 602 254.768554688 591 c 0
 250.140674586 586.838048586 247.542760129 574.304347826 247.647460938 559 c 1
 248.01492631 502.862407862 247.366595684 207.137592138 245.936523438 151 c 1
 260.711212913 168.588235294 498.217087277 438.619377163 505.981445312 450 c 1
 510.19868394 554.67721519 507.541835732 588.459715053 497.646484375 599 c 0
 489.509736503 607.667063758 475.105072879 608 456.346679688 611 c 1
 470.225585938 686 l 1
 493.950195312 680 535.100585938 676 572.100585938 676 c 3
 610.100585938 676 649.950195312 680 680.650390625 688 c 1
 682.133789062 615 l 1
 675.708984375 613 666.243036081 611.203682302 655.858398438 609 c 0
 637.008789062 605 628.12109375 592 629.883789062 580 c 1xd4
 630.750544522 509.482352941 625.822480203 218.835294118 624 175 c 1
 725.636811404 305.13283208 834.683141719 444.498331462 907.703125 554 c 0
 941.711914062 605 903.646484375 608 831.708984375 613 c 1
 850.012695312 685 l 1
 877.950195312 680 917.3125 677 961.3125 677 c 3
 1004.3125 677 1053.16308594 681 1101.07617188 690 c 1xd8
EndSplineSet
Position2: "cpsp-1" dx=0 dy=0 dh=10 dv=20
Substitution2: "c2pc-1" w.pcap
Substitution2: "c2sc-1" w.smcp
EndChar
StartChar: X
Encoding: 88 88 57
Width: 723
Flags: HW
HStem: -9 70<168.811 201.513 408.515 460.405 595.649 637.949> 0 67<167.287 200.435> 613 66<231.3 309.271 540.562 554.809> 621 62<123.15 171.319 307.837 344.972 540.613 558.581 655.625 736.759>
AnchorPoint: "Top" 457.718 699 basechar 0
AnchorPoint: "Bottom" 338.661 -15 basechar 0
LayerCount: 2
Back
SplineSet
160.19921875 686 m 1x50
 267.409179688 680 303.444335938 679 404.955078125 693 c 1
 398.142578125 659 l 1
 392.211914062 657 375.43359375 657.044921875 360.31640625 654 c 0
 335.4921875 649 333.182617188 631.026367188 339.610351562 617 c 2
 437.084960938 403 l 1
 503.969726562 476.005859375 560.58984375 547.182617188 590.727539062 585 c 0
 607.028320312 605 624.868164062 635.3671875 595.631835938 645 c 0
 589.551757812 647.286132812 551.15234375 658.713867188 546.072265625 661 c 1
 559.12890625 688 l 1
 634.478515625 678 716.374023438 681 796.024414062 691 c 1
 791.142578125 659 l 1
 774.211914062 657 728.2109375 648.15234375 676.993164062 606 c 0
 657.478515625 589.63671875 641.047851562 571.227539062 453.854492188 381 c 1
 490.790039062 314.563476562 599.489257812 112.913085938 613.984375 91 c 0
 640.41796875 50 657.522460938 47 701.872070312 37 c 1
 687.1640625 0 l 1x60
 624.744140625 12 498.883789062 8 428.444335938 -8 c 1x80
 432.255859375 26 l 1
 444.01171875 33 468.436523438 36.1787109375 479.766601562 40 c 0
 515.34765625 52 507.336914062 80.244140625 499.6015625 102 c 0
 481.01171875 152.47265625 453.145507812 227.645507812 405.985351562 320 c 1
 321.44921875 230.28125 250.981445312 145.796875 204.0546875 89 c 0
 190.6484375 72 176.483398438 43.1220703125 204.836914062 38 c 0
 215.90625 36 238.9765625 34 249.01171875 33 c 1
 242.094726562 2 l 1
 157.883789062 8 94.814453125 10 14.1640625 0 c 1
 21.01171875 33 l 1
 30.8720703125 37 83.5390625 45.646484375 129.124023438 87 c 0
 146.860351562 102.416992188 161.587890625 116.805664062 386.077148438 346 c 1
 245.435546875 590.099609375 238.407226562 603.336914062 227.610351562 617 c 0
 201.45703125 650 173.282226562 655 155.107421875 660 c 1
 160.19921875 686 l 1x50
EndSplineSet
Fore
SplineSet
123.149414062 683 m 1x50
 168.724609375 681 204.299804688 679 231.299804688 679 c 3x20
 269.299804688 679 299.724609375 681 356.212890625 688 c 1
 344.971679688 621 l 1x10
 333.12109375 617 323.908203125 616 309.270507812 613 c 0
 307.270507812 613 305.294921875 599 306.083007812 598 c 1
 307.083007812 598 402.184570312 415 403.759765625 413 c 1
 422.6484375 436 525.155273438 556 554.807617188 592 c 0
 560.083007812 598 564.783203125 606 558.995117188 607 c 1
 550.420898438 609 524.845703125 611 517.758789062 620 c 1
 541.362304688 684 l 1
 566.299804688 679 589.875 677 614.875 677 c 3
 655.875 677 697.512695312 680 745 687 c 1
 736.758789062 620 l 1
 675.6328125 610 662.05859375 612 623.768554688 573 c 0
 614.85546875 564 592.904296875 536 431.194335938 368 c 1
 447.818359375 338 570.905273438 122 582.442382812 101 c 1
 600.065429688 71 608.852539062 70 663.939453125 61 c 1
 635.060546875 -9 l 1xa0
 608.548828125 -2 575.973632812 0 540.973632812 0 c 3
 490.973632812 0 438.973632812 0 399.2734375 -8 c 1
 408.514648438 59 l 1
 422.365234375 63 438.365234375 63 447.577148438 64 c 0
 465.427734375 68 464.703125 74 460.403320312 82 c 0
 405.059570312 198 368.064453125 278 359.103515625 297 c 1
 293.436523438 228 207.54296875 125 167.340820312 77 c 1
 166.127929688 76 169.21484375 67 175.21484375 67 c 0
 186.002929688 66 206.21484375 67 216.15234375 62 c 1
 199.911132812 -5 l 1
 156.760742188 -1 120.973632812 0 84.9736328125 0 c 3
 51.9736328125 0 18.9736328125 0 -21.513671875 -7 c 1
 -11.3359375 55 l 1
 32.365234375 63 52.640625 69 85.1669921875 95 c 0
 93.654296875 102 132.432617188 148 328.66796875 342 c 1
 191.768554688 573 181.4453125 595 171.995117188 607 c 0
 157.758789062 620 131.908203125 616 108.971679688 621 c 1
 123.149414062 683 l 1x50
EndSplineSet
Position2: "cpsp-1" dx=0 dy=0 dh=10 dv=20
Substitution2: "c2pc-1" x.pcap
Substitution2: "c2sc-1" x.smcp
EndChar
StartChar: Y
Encoding: 89 89 58
Width: 670
VWidth: 1159
Flags: W
HStem: -11 41<137 215.388> -5 42<347.234 415> 649 39<90.9459 139.89 267.248 328 531.029 572.562 672.962 751>
AnchorPoint: "Top" 412 699 basechar 0
AnchorPoint: "Bottom" 283 -15 basechar 0
LayerCount: 2
Fore
SplineSet
328 649 m 1xa0
 328 649 305 649 293 649 c 0
 276 649 258.8984375 636.963867188 265 620 c 0
 315 483.288085938 374 386.901367188 378 381 c 1
 467 485.5 553.465820312 585.603515625 557 590 c 0
 573 610 583.615234375 633.192382812 562 644 c 0
 552 649 536 650 521 654 c 1
 532 692 l 1
 565 686 696 675 761 691 c 1
 751 648 l 1
 691 646 661.059570312 627.9296875 629 601 c 0
 554 538.248046875 463 429.676757812 397 348 c 1
 384.307617188 296.431640625 366.258789062 242.5546875 342 85 c 0
 336 46 354 41 429 37 c 1
 415 -5 l 1x60
 323 9 240 15 137 -11 c 1
 137 30 l 1
 213 42 251.646484375 57.087890625 263 105 c 2
 312 311 l 1
 307 321.852539062 249.916015625 472.883789062 168 606 c 0
 151 634 129 635 79 651 c 1
 92 690 l 1
 144 684 277 677 334 688 c 1
 328 649 l 1xa0
EndSplineSet
Position2: "cpsp-1" dx=0 dy=0 dh=10 dv=20
Substitution2: "c2pc-1" y.pcap
Substitution2: "c2sc-1" y.smcp
EndChar
StartChar: Z
Encoding: 90 90 59
Width: 689
VWidth: 1159
Flags: W
HStem: 4 40<126.113 496.248> 646 43<195.288 597.917>
AnchorPoint: "Top" 418.516 699 basechar 0
AnchorPoint: "Bottom" 284.689 -15 basechar 0
LayerCount: 2
Fore
SplineSet
92.1474609375 570 m 1
 158.388671875 679 156.772460938 716 183.3359375 726 c 1
 195.515625 699 228.924804688 690.24609375 238.952148438 689 c 0
 268.280273438 684.284179688 604.0625 679.569335938 701.643554688 684.6171875 c 0
 711.2890625 685.001953125 718.610351562 685.4609375 723.083007812 686 c 1
 730 665 l 1
 717.067382812 651.998046875 l 0
 126.11328125 44 l 1
 197.11328125 44 269.200195312 42 340.200195312 42 c 0
 485.200195312 42 579.41015625 83 618.1796875 157 c 1
 640.747070312 144 l 1
 587.719726562 53 568.291992188 17 538.08203125 -24 c 1
 521.6015625 -13 507.037109375 -0.099609375 429.990234375 1 c 0
 289.903320312 3 63.5537109375 11 -11.140625 4 c 1
 -14.40625 33 l 1
 26.6767578125 54 64.931640625 88.2509765625 94.8388671875 119 c 0
 261.729492188 289.559570312 430.420898438 465.3203125 594.134765625 639 c 0
 597.916992188 644 l 1
 259.829101562 646 l 2
 207.822265625 646.154296875 164.702148438 626 113.93359375 552 c 1
 92.1474609375 570 l 1
EndSplineSet
Position2: "cpsp-1" dx=0 dy=0 dh=10 dv=20
Substitution2: "c2pc-1" z.pcap
Substitution2: "c2sc-1" z.smcp
EndChar
StartChar: underscore
Encoding: 95 95 339
Width: 463
VWidth: 0
Flags: W
HStem: -238 44<0 463>
LayerCount: 2
Fore
SplineSet
0 -238 m 25
 0 -194 l 25
 463 -194 l 25
 463 -238 l 25
 0 -238 l 25
EndSplineSet
Validated: 1
EndChar
StartChar: a
Encoding: 97 97 0
Width: 499
VWidth: 1159
Flags: W
HStem: -10 97<92.6952 182.78 307.637 392.042> 485 20G<377.221 443.268>
VStem: 17.0587 97.9413<96.1417 221.174>
AnchorPoint: "Top" 335.908 550 basechar 0
AnchorPoint: "Ogonek" 386.366 23 basechar 0
AnchorPoint: "Bottom" 198.193 -15 basechar 0
LayerCount: 2
Fore
SplineSet
304.250976562 383.374023438 m 1
 298.044866381 384.647949218 287.532929319 385.921875 281.99609375 385.921875 c 3
 261.057315672 385.921875 231 376 217 364 c 0
 170.83629003 324.43110574 115 253.267331077 115 155 c 3
 115 119.014887725 129.798752159 87 160 87 c 7
 197.031194791 87 256.118693007 165.516193966 281 253 c 0
 297.401092644 310.194306805 310.862569432 376 304.250976562 383.374023438 c 1
360.978041999 174.031413612 m 0
 356.600577907 151.516048834 353.248864679 129.087658928 353.510742188 122.78515625 c 0
 354.527967504 98.303995866 361.81448315 91 372.2890625 91 c 3
 386.382790714 91 421.558009563 119 435 133 c 1
 473.459627962 83.298102981 l 1
 438.032681479 47.2741085838 384.526707306 -11 326.073123817 -11 c 3
 289.200656529 -11 271.120300502 25.3135292891 271.120300502 52.8237787506 c 3
 271.120300502 61.5348073493 271.677292676 71.771757219 273 83 c 1
 222.978849183 30.434612406 159.214052551 -10 122.331957513 -10 c 3
 63.0584053174 -10 17.0587456862 48.7736448328 17.0587456862 119.467049095 c 3
 17.0587456862 198.614876873 63.704858815 282.168855457 99.8044559808 333.094276094 c 0
 131.56454336 377.897984064 180.742320202 410.577496484 205.351860821 428.675441935 c 0
 244.819538974 457.700115631 288.369766063 479.206856751 341 486 c 0
 356.664532023 488.021868459 365.257651949 494.190787683 377.220703125 501.541015625 c 1
 460.53515625 505 l 1
 426 421 386.286337756 304.203928771 360.978041999 174.031413612 c 0
EndSplineSet
Substitution2: "case-1" A
Substitution2: "pcap-1" a.pcap
Substitution2: "smcp-1" a.smcp
EndChar
StartChar: b
Encoding: 98 98 1
Width: 512
VWidth: 1159
Flags: HMW
HStem: -9 58<115.481 228.954> 347 56<242.013 322.382>
VStem: 345.205 70.1571<192.971 323.898>
AnchorPoint: "Top" 285.712 749 basechar 0
AnchorPoint: "Bottom" 189.68 -15 basechar 0
LayerCount: 2
Fore
SplineSet
181.876953125 318 m 1
 165.43852206 246.883366142 150.66712213 192.69980315 139.840820312 134 c 1
 140.5521694 120 143.001201444 113.217642511 145.91796875 106 c 0
 153.461473844 90.25 170.170511444 79 186.905273438 79 c 3
 278.624162613 79 387.645126436 185.118072093 386.265625 324.865234375 c 0
 385.840935889 368.762283124 359.082929434 401 313.301757812 401 c 3
 263.436237226 401 212.483426016 354.239758614 181.876953125 318 c 1
136.249142085 699 m 1
 154.067754672 720 196.639834367 737 239.211914062 754 c 1
 277.61125545 734 299.069481735 708 319.140625 683 c 1
 283.771440386 664.071714421 252.574359814 578.165084367 205 418 c 1
 226.721906738 437.118759931 310.086818827 491 370 491 c 3
 431.227108428 491 476.021881344 434.749574719 478.834960938 367.098632812 c 0
 486.311299086 185.671247282 295.199204196 -9 148.173828125 -9 c 3
 97.5334442886 -9 87.654798308 9.3285881065 68.5693359375 13 c 0
 51.9740960908 16.3173828125 31.8289295861 19 25.044921875 18 c 1
 8.0439453125 32 l 1
 53.9484703199 163.101089844 118.741082671 459.951411892 134.896968093 539 c 0
 142.935017523 578.329101562 145.264140721 613.137682502 143.899719808 640 c 0
 142.890702577 659.865234375 140.046592071 681.0234375 136.249142085 699 c 1
EndSplineSet
Substitution2: "case-1" B
Substitution2: "pcap-1" b.pcap
Substitution2: "smcp-1" b.smcp
EndChar
StartChar: c
Encoding: 99 99 2
Width: 417
VWidth: 1159
Flags: HMW
HStem: -15 53<138.021 225.281> 359 63<200.666 292.636>
VStem: 31.6688 74.9532<71.9391 229.688>
AnchorPoint: "Top" 294.068 550 basechar 0
AnchorPoint: "Bottom" 175.314 -15 basechar 0
LayerCount: 2
Fore
SplineSet
346 368 m 1
 324.748830439 383.360197368 295.301050116 416 257 416 c 3
 186.536180416 416 128.417977373 333.372314734 136.252929688 177.336914062 c 0
 138.923964155 125.816358087 166.487901475 85 214 85 c 7
 247.827939947 85 278.229290374 102.714285714 297 116 c 1
 332.799803339 68.3551401869 l 1
 304.441547528 38.8683462007 238.571668838 -7 175.73431717 -7 c 3
 119.70955196 -7 36.4830195477 30.8229485395 31.2987816565 154.107062208 c 0
 23.7040924846 334.713072734 170.967132814 507 299.576471528 507 c 3
 353.790764051 507 400.213146654 472.643640777 413.839409716 434.00616679 c 1
 407.239794917 412.378657905 389.856653778 383.875994972 346 368 c 1
EndSplineSet
Substitution2: "case-1" C
Substitution2: "pcap-1" c.pcap
Substitution2: "smcp-1" c.smcp
EndChar
StartChar: d
Encoding: 100 100 3
Width: 535
VWidth: 1159
Flags: HMW
HStem: -23 54<297.635 374.885> -9 55<97.3336 209.668> 357 50<188.71 289.162> 659 30<325.178 370.283> 748 20G<468.878 507.878>
VStem: 29.9995 69.6452<81.7189 228.754>
AnchorPoint: "TopRight" 584.693 581 basechar 0
AnchorPoint: "Top" 405.819 734 basechar 0
AnchorPoint: "Bottom" 208.832 -15 basechar 0
LayerCount: 2
Fore
SplineSet
302.598632812 90 m 1xbc
 253.066057442 42.2533434852 176.907512799 -9 132.899414062 -9 c 3x7c
 64.1830629008 -9 20.7086245988 49.6956936009 16.8408203125 132.672851562 c 0
 10.1384173912 276.461498751 183.829426571 485 360 485 c 3
 369.250049785 485 380.588649187 481.245492788 384 477 c 1
 395.441100295 520.42411155 402.448117338 569.06321984 402 581 c 0
 400.358926554 618.634214019 384.065277811 629.518554688 369.151367188 629.518554688 c 3
 365.082375344 629.518554688 336.883149257 625.074110243 329.594726562 624.518554688 c 1
 326.657226562 689 l 1
 386.602883456 700 467.487932364 734 519.284179688 768 c 1
 538.814453125 750 l 1
 535.282895524 705 471.803654484 392.823784867 407.908203125 189 c 0
 397.418547181 155.53844161 390.041709002 128.571104835 391.24609375 110.447265625 c 0
 391.958566691 99.7258204654 396.986784821 91 409.479492188 91 c 3
 423.673436016 91 452.928876305 106.5 473 122 c 1
 508.251953125 69 l 1
 467.334300036 27 390.142994084 -11 352.909179688 -11 c 3
 317.437949007 -11 302.197076411 9.47435700841 300.044921875 40.1328125 c 0
 298.950474329 55.7237335153 299.73920392 72.5019348456 302.598632812 90 c 1xbc
306 391 m 3
 229.038190454 391 111.190197229 309.94358402 116.171875 175.091796875 c 0
 117.993379679 125.784480649 136.657005975 85 168 85 c 3
 209.029315767 85 295.3308927 152.721969677 318 225 c 0
 333.2097499 273.494665005 353.910317823 346.826741929 356.604492188 376.551757812 c 0
 357.548212574 386.963891437 321.385018956 391 306 391 c 3
EndSplineSet
Substitution2: "case-1" D
Substitution2: "pcap-1" d.pcap
Substitution2: "smcp-1" d.smcp
EndChar
StartChar: e
Encoding: 101 101 4
Width: 436
VWidth: 1159
Flags: HMW
HStem: -15 51<132.022 226.541> 367 54<183.053 254.388>
VStem: 34.0341 71.9619<61.4685 197.627> 271.504 60<289.245 349.853>
AnchorPoint: "Top" 270.504 537 basechar 0
AnchorPoint: "Ogonek" 284.606 26 basechar 0
AnchorPoint: "Bottom" 178.006 -15 basechar 0
LayerCount: 2
Back
SplineSet
263.869140625 505 m 7
 326.581963554 505 394.467405189 428.609800073 397.80859375 350.809570312 c 4
 398.116213414 343.482990788 400.496007244 333.540136485 406.49609375 330.922851562 c 5
 402.516601562 296.556640625 l 5
 334.710566237 274.651765743 211.498173395 236.3208828 108.444870103 206.202531646 c 5
 108.363967377 196.844478779 107.681466936 188.260132602 108.288279552 173.544234483 c 4
 111.706737616 91.4397665698 161.210800086 42.3642578125 209.84375 42.3642578125 c 7
 263.410247868 42.3642578125 309.520048675 65.274885611 342.385742188 94.5498046875 c 5
 358.659179688 72.912109375 l 5
 319.061885278 32.0089351472 257.58821684 -10 179.28125 -10 c 7
 89.8532161539 -10 40.1524586634 62.2153558258 36.3975083886 154.005962775 c 4
 27.9846724127 360.289970128 191.044432562 505 263.869140625 505 c 7
237.111328125 454.569335938 m 7
 188.466332413 454.569335938 123.252504632 363.887901257 110.63512864 240.568693137 c 5
 149.102306556 250.036157445 291.545329807 292.522775681 310.161132812 297.829101562 c 4
 322.55508114 301.452686875 334.794390276 311.830036462 333.955078125 332.1953125 c 5
 331.319425001 400.534036224 284.861913119 454.569335938 237.111328125 454.569335938 c 7
EndSplineSet
Fore
SplineSet
263.373046875 505 m 7
 326.0859375 505 394.299804688 434.569335938 397.3125 362.809570312 c 4
 397.620117188 355.483398438 400 345.540039062 406 342.922851562 c 5
 402.020507812 281.556640625 l 5
 338.529296875 260.732421875 237.157226562 227.291015625 140.661132812 198.658203125 c 5
 140.580078125 193.598632812 140.165039062 188.973632812 140.50390625 181 c 4
 143.4296875 112.22265625 172.879882812 74 214.50390625 74 c 7
 257.22265625 74 293.907226562 96.1376953125 324.50390625 129 c 5
 370.50390625 86 l 5
 328.182617188 38.640625 262.479492188 -10 178.78515625 -10 c 7
 89.357421875 -10 39.64453125 62.21484375 35.9013671875 154.005859375 c 4
 27.48828125 360.290039062 190.547851562 505 263.373046875 505 c 7
235.615234375 413.569335938 m 7
 193.90625 413.569335938 153.668945312 361.13671875 142.850585938 267.024414062 c 5
 175.771484375 275.217773438 278.73828125 305.705078125 295.665039062 312.829101562 c 4
 303.9609375 316.3203125 305.342773438 325.89453125 304.50390625 335 c 5
 302.170898438 389.375 277.875 413.569335938 235.615234375 413.569335938 c 7
EndSplineSet
Substitution2: "case-1" E
Substitution2: "pcap-1" e.pcap
Substitution2: "smcp-1" e.smcp
EndChar
StartChar: f
Encoding: 102 102 5
Width: 401
VWidth: 1159
Flags: HMW
HStem: -326 36<-133.616 -92.9902> 341 42<184.488 322.356> 697 57<339.417 429.04>
AnchorPoint: "Top" 259.674 748 basechar 0
AnchorPoint: "Bottom" 123.202 -204 basechar 0
LayerCount: 2
Fore
SplineSet
485.883789062 754 m 3
 521.954101562 754 604.565429688 728 629 706 c 1
 622.65234375 670 611.225585938 660.666992188 545.206054688 626 c 1
 503.318359375 644 459.103515625 677 416.051757812 677 c 3
 332.967773438 677 304.005859375 605.294921875 261.028320312 498 c 0
 257.909179688 489.870117188 239.555664062 434.581054688 229.794921875 397 c 1
 256.556640625 398 369.420898438 410 396.182617188 411 c 1
 387.528320312 341 l 1
 361.930664062 342 243.248046875 334 217.649414062 335 c 1
 200.432617188 262.86328125 156.647460938 20.5712890625 133.4765625 -53 c 0
 116.331054688 -102.716796875 90.8212890625 -136.57421875 62.3271484375 -171 c 1
 46.57421875 -170 48.1494140625 -169 -18.013671875 -169 c 3
 -39.86328125 -169 -73.158203125 -173 -85.64453125 -174 c 1
 -91.4619140625 -111 l 1
 -43.947265625 -103.9765625 -12.46875 -88.8544921875 7.4111328125 -60 c 0
 52.0146484375 9.4912109375 88.662109375 198.500976562 116.345703125 329 c 1
 94.2646484375 327.875 73.142578125 324.5 51.0615234375 320 c 1
 45.87890625 390 l 1
 73.0224609375 388.5 101.34765625 394.5 128.491210938 393 c 1
 136.16015625 430.984375 146.532226562 483.666992188 148.088867188 493 c 0
 173.505859375 633.672851562 232.205078125 668.56640625 316.803710938 713 c 0
 361.154296875 735.88671875 414.495117188 754 485.883789062 754 c 3
EndSplineSet
Substitution2: "salt-1" f.alt
Substitution2: "case-1" F
Substitution2: "pcap-1" f.pcap
Substitution2: "smcp-1" f.smcp
EndChar
StartChar: g
Encoding: 103 103 6
Width: 530
VWidth: 1159
UnlinkRmOvrlpSave: 1
Flags: HMW
HStem: -337 64<20.3914 156.022> 325 55<349.705 429.963> 378 38<170.55 260.831>
AnchorPoint: "Top" 317.978 535 basechar 0
AnchorPoint: "Bottom" 245.154 -225 basechar 0
LayerCount: 2
Back
SplineSet
187.05078125 123.301757812 m 5
 194.591796875 121.20703125 205.87109375 119.958984375 220.296875 119.958984375 c 4
 255.818359375 119.958984375 303.08203125 134 343.833007812 134 c 4
 352.786132812 134 361.169921875 133.271484375 368.999023438 131.880859375 c 4
 433.67578125 120.286132812 456.529296875 63.4814453125 449.639648438 18.185546875 c 4
 420.553710938 -121.309570312 220.313476562 -174 130.290039062 -174 c 4
 115.447265625 -174 101.71875 -173.098632812 89.0498046875 -171.3984375 c 4
 -1.2470703125 -159.799804688 -37.73828125 -107.858398438 -30.302734375 -59.701171875 c 4
 -22.005859375 3.2978515625 51.05078125 46.2998046875 86.3544921875 63.6611328125 c 5
 70.6787109375 74.7119140625 56.673828125 90.4375 53.5166015625 112.126953125 c 6
 52.53125 129.310546875 l 5
 59.6923828125 133.208007812 l 6
 80.8857421875 145.1953125 104.640625 151.844726562 126.432617188 158.575195312 c 5
 82.5625 184.770507812 54.6474609375 237.661132812 63.36328125 308.440429688 c 4
 82.591796875 432.66796875 213.94140625 505 311.674804688 505 c 4
 361.643554688 505 399.943359375 480.080078125 421.998046875 455.651367188 c 5
 452.064453125 465.05859375 480.30078125 469 505.12109375 469 c 4
 523.916992188 469 548.025390625 469 560.104492188 463 c 6
 568.47265625 457.463867188 l 5
 564.505859375 453.51171875 l 5
 534.279296875 383.288085938 l 5
 528.642578125 364.885742188 l 5
 516.701171875 372.673828125 l 6
 498.5078125 383.338867188 471.124023438 390 451.923828125 390 c 4
 451.280273438 390 450.896484375 389.987304688 450.896484375 389.987304688 c 5
 455.75 376.049804688 456.637695312 362.963867188 454.352539062 351.319335938 c 4
 437.954101562 243.78125 329.8125 180.241210938 240.887695312 144 c 4
 211.254882812 131.413085938 193.28515625 125.8203125 187.05078125 123.301757812 c 5
272.985351562 443 m 4
 224.923828125 443 179.916992188 388.456054688 170.588867188 316.518554688 c 4
 161.305664062 250.817382812 193.536132812 215.62890625 236.365234375 193.084960938 c 5
 292.186523438 219.603515625 334.834960938 269.30078125 345.994140625 345.859375 c 4
 348.005859375 358.545898438 348.99609375 369.887695312 349.001953125 380.659179688 c 4
 349.026367188 419.649414062 330.20703125 443 272.985351562 443 c 4
68.3330078125 -34.0400390625 m 6
 67.7392578125 -37.9921875 67.46875 -41.640625 67.4619140625 -45.0205078125 c 4
 67.3681640625 -72.6279296875 121.466796875 -86 179.860351562 -86 c 4
 253.723632812 -86 353.537109375 -60.619140625 364.123046875 -19.7197265625 c 4
 365.022460938 -16.5849609375 365.479492188 -13.56640625 365.494140625 -10.8896484375 c 4
 365.563476562 12.4501953125 357.389648438 31 321.833007812 31 c 4
 296.100585938 31 240.744140625 20 211.833984375 20 c 4
 185.54296875 20 162.90234375 22.5322265625 137.013671875 32.8076171875 c 5
 94.8837890625 14.400390625 70.1923828125 -17.73046875 68.4453125 -34.0400390625 c 6
 68.3994140625 -33.68359375 l 5
 68.3330078125 -34.0400390625 l 6
EndSplineSet
Fore
SplineSet
418 454.686523438 m 1x80
 450.341947343 464.503045745 483.258170248 469 510.288085938 469 c 3
 528.423950196 469 552.605102539 467 558.650390625 463 c 1
 526 367 l 1
 505.1345112 378.877472015 483.04788152 389.580159514 454.872935816 389.580159514 c 0
 451.663362543 389.580159514 448.374782264 389.441272622 445 389.149414062 c 1
 443.689619851 389.205917353 416.9992737 454.357678634 418 454.686523438 c 1x80
454.651367188 354.936523438 m 1
 439.766500495 258.310143687 357.006471975 197.134422544 266.000003244 155.086777189 c 0
 235.849021764 141.156143531 204.792881236 129.325076523 175 119 c 1
 171 118 179 139 182 135 c 1
 189 126.72265625 191.726420291 120 218 120 c 3
 257.988675606 120 307.192993637 135 347 135 c 3
 429.468085106 135 456.18884062 68.7647427338 449 18 c 1
 419.980771547 -118 232.400052534 -174 118.456790123 -174 c 3
 2.38865050681 -174 -37.5097724863 -114.356482164 -30.2555137603 -63.083984375 c 1
 -21.6500457082 4.28291098537 52.7687821139 48.3296042584 102.298828125 69.79296875 c 1
 103.645242776 70.4516751077 155.312121785 40.5639782166 154 40 c 1
 110.8 24.5181469885 77.8054763213 -6.81370712786 70 -28 c 0
 52.9234149755 -74.3507307807 124.053653492 -86 176.028320312 -86 c 3
 246.270369037 -86 351.261560885 -64.5205427241 364 -17 c 1
 369.512985864 9.78772671309 358.294104545 31 321 31 c 3
 290.260887341 31 248 20 200.000976562 20 c 3
 149.310817409 20 46.1661706897 60 53.0009765625 129 c 1
 97.8194011316 162.879069767 160.739443281 177.200420716 231 207 c 0
 285.90990991 230.288916146 332.891127969 272.967919195 346 346 c 0
 357.778397241 411.619746458 341.2 443 294 443 c 3
 230.685745804 443 187.166684506 391.685234215 169.673828125 317 c 0
 157.44763224 264.800617388 196.896050347 219.548371254 267.673828125 198 c 1
 268.761126061 197.357981509 160.984671002 161.441750997 160 162 c 1
 100.351442729 183.254465527 51.0664844187 232.238780021 63.10546875 307.892578125 c 1
 82.1474843002 431.333589805 214.25146718 505 311.841796875 505 c 3
 385.777224167 505 469.778667352 441 454.651367188 354.936523438 c 1
EndSplineSet
Substitution2: "smcp-1" g.smcp
Substitution2: "pcap-1" g.pcap
Substitution2: "case-1" G
EndChar
StartChar: h
Encoding: 104 104 7
Width: 498
VWidth: 1159
Flags: HMW
HStem: 343 60<211.946 308.529> 662 38<75.6544 108.407>
VStem: -21.3461 78<-4 76.7172> 334.654 56.9735<180.359 316.446>
AnchorPoint: "Top" 384.631 733 basechar 0
AnchorPoint: "Bottom" 148.633 -15 basechar 0
LayerCount: 2
Back
SplineSet
148.905273438 265.485351562 m 0
 119.2421875 190.928710938 101.08203125 86.0439453125 92.9658203125 -4 c 2
 91.9853515625 -4 l 1
 105.013671875 -4 l 1
 -21 -4 l 1
 -12.576171875 -4 l 1
 -8.6025390625 2.1220703125 l 2
 28.716796875 142.327148438 111.916992188 500.098632812 129.515625 592 c 0
 134.075195312 617.095703125 136.078125 633.278320312 135.982421875 637.416015625 c 0
 135.591796875 643.184570312 134.92578125 644 125.140625 644 c 0
 122.502929688 644 94.5166015625 639.165039062 83.3779296875 638.109375 c 2
 65.4697265625 636.395507812 l 1
 70.7666015625 662 l 2
 71.8486328125 665.846679688 74.08984375 693.841796875 73.9658203125 699.416015625 c 2
 73.716796875 698.157226562 l 1
 83.806640625 700 l 2
 144.310546875 711.231445312 214.678710938 722.225585938 291.16015625 759 c 2
 299.44921875 762.920898438 l 1
 305.41015625 759 l 1
 323.375 738 l 1
 331.076171875 727.779296875 l 1
 322.172851562 719.962890625 l 2
 307.499023438 707.713867188 288.288085938 685.698242188 282.220703125 677.3515625 c 0
 252.54296875 634.270507812 209.5234375 529.897460938 170.432617188 376.440429688 c 1
 212.958984375 423.337890625 282.245117188 486 352.9140625 486 c 0
 431.734375 486 482.788085938 426.958007812 484.258789062 362.162109375 c 0
 486.8984375 196.435546875 384.504882812 53.583984375 322.150390625 -20 c 2
 317.086914062 -22.2646484375 l 1
 309.490234375 -20 l 2
 262.036132812 -7.748046875 243.326171875 10.7724609375 244.48046875 52.5732421875 c 2
 244.708007812 73.5888671875 l 1
 254.063476562 75.509765625 l 2
 313.615234375 87.15625 403.5234375 199.784179688 403.5234375 312 c 0
 403.5234375 370.712890625 363.76953125 402 322.479492188 402 c 0
 262.309570312 402 176.094726562 325.580078125 148.905273438 265.485351562 c 0
EndSplineSet
Fore
SplineSet
149.653320312 234 m 0
 135.874023438 175.701171875 109.985351562 75.2255859375 99.7529296875 -4 c 1
 -2.2607421875 -4 l 1
 33.3046875 137.5234375 111.389648438 496.974609375 129.044921875 590 c 0
 133.674804688 614.395507812 135.89453125 629.545898438 135.717773438 636 c 0
 135.6015625 640.266601562 134.802734375 644 128.879882812 644 c 3
 123.604492188 644 99.4482421875 640.666992188 89.9736328125 640 c 1
 93.2880859375 651.237304688 95.9638671875 689.762695312 95.7021484375 701 c 1
 149.065429688 712.74609375 212.735351562 724.491210938 282.030273438 764 c 1
 311.995117188 728 l 1
 298.7109375 714 283.288085938 690.680664062 277.088867188 681 c 0
 250.412109375 639.336914062 217.545898438 539.502929688 180.653320312 387 c 1
 201.045898438 411.174804688 279.248046875 486 350.653320312 486 c 3
 429.166992188 486 482 426.857421875 482 360.192382812 c 3
 482 195.588867188 382.590820312 51.6015625 319.653320312 -23 c 1
 251.53125 -5.5009765625 243.268554688 14.5 244.653320312 72 c 1
 289.0859375 90 401.262695312 199.383789062 401.262695312 312 c 3
 401.262695312 368.489257812 365.532226562 402 325.653320312 402 c 3
 260.3359375 402 173.009765625 333.311523438 149.653320312 234 c 0
EndSplineSet
Substitution2: "case-1" H
Substitution2: "pcap-1" h.pcap
Substitution2: "smcp-1" h.smcp
EndChar
StartChar: k
Encoding: 107 107 10
Width: 472
VWidth: 1159
UnlinkRmOvrlpSave: 1
Flags: HMW
HStem: -6 21G<-13.1696 -10.6696> 372.562 46.4375<237.197 328.796> 661 28<60.5804 102.442> 749 20G<201.33 240.33>
VStem: -13.6696 70<-5 81.6634> 306.229 68.0957<292.691 368.052>
AnchorPoint: "Top" 349.024 749 basechar 0
AnchorPoint: "Bottom" 152.711 -15 basechar 0
LayerCount: 2
Back
SplineSet
69.0478515625 -5 m 1
 31.025390625 -5 l 2
 25.6962890625 -5 5.736328125 -6 -0.94140625 -6 c 2
 -12.5048828125 -6 l 1
 -12.93359375 -6 l 2
 -15.263671875 56.66015625 47.9140625 202.353515625 63.4228515625 275.485351562 c 0
 117.307617188 528.936523438 115.471679688 610.629882812 111.998046875 637.989257812 c 0
 110.3125 643.333984375 107.00390625 644.897460938 96.04296875 645.009765625 c 0
 89.80078125 644.638671875 50.6796875 638.16796875 40.314453125 637.123046875 c 2
 29.0380859375 635.977539062 l 1
 27.251953125 657.21875 l 1
 22.7841796875 685.21875 l 1
 20.947265625 686.830078125 l 1
 32.400390625 689 l 2
 87.9599609375 699.778320312 161.991210938 735.123046875 210.572265625 769 c 2
 218.19921875 774.193359375 l 1
 225.177734375 769 l 1
 244.831054688 752 l 1
 249.169921875 748.247070312 l 1
 248.973632812 751.177734375 l 2
 246.466796875 676.663085938 211.5546875 534.180664062 174.512695312 387.209960938 c 1
 233.233398438 459.6953125 305.522460938 510 375.358398438 510 c 0
 427.685546875 510 464.081054688 478.118164062 466.233398438 442.640625 c 0
 472.961914062 313.31640625 318.600585938 247.823242188 189.760742188 217.776367188 c 1
 236.440429688 139.697265625 310.291992188 71.9814453125 483.139648438 -21.0771484375 c 2
 491.124023438 -25.564453125 l 1
 488.90234375 -42 l 2
 481.659179688 -64.4853515625 431.314453125 -70.552734375 411.21875 -73 c 2
 408.063476562 -73.4951171875 l 1
 405.079101562 -73 l 2
 325.140625 -43.74609375 189.887695312 66.3427734375 121.82421875 187.114257812 c 1
 103.966796875 114.461914062 89.15234375 48.2705078125 80.91015625 -5 c 2
 79.3486328125 -5 l 1
 69.0478515625 -5 l 1
150.049804688 262.08984375 m 1
 260.885742188 297.821289062 376.2890625 357.46875 372.072265625 426.260742188 c 0
 371.366210938 432.524414062 355.185546875 439.5625 335.606445312 439.5625 c 0
 287.176757812 439.5625 211.693359375 377.571289062 150.049804688 262.08984375 c 1
EndSplineSet
Fore
SplineSet
80.689453125 -5 m 1
 70.896484375 -5 30.091796875 -5 18.6669921875 -5 c 0
 12.099609375 -5 -9.7333984375 -6 -16.30078125 -6 c 1
 -18.412109375 50.87109375 40.181640625 198.732421875 59.8037109375 273 c 0
 122.051757812 508.59765625 116.84375 586.0390625 116 613 c 0
 115.5859375 626.235351562 109.350585938 636 96 636 c 3
 90.8623046875 636 52.193359375 630.75 43 630 c 1
 36.275390625 690 l 1
 94.029296875 701.549804688 168.33984375 738.299804688 218 774 c 1
 248 750 l 1
 243 590 112.569335938 203.19921875 80.689453125 -5 c 1
96 251 m 1
 201.989257812 266.08984375 370.1640625 332.561523438 363.69140625 416.72265625 c 0
 362.865234375 427.466796875 349.130859375 435 336 435 c 3
 270.5078125 435 168 338.446289062 115 168 c 1
 77.2626953125 211 l 1
 152 441 261.172851562 510 371 510 c 3
 426.341796875 510 462.541015625 473.619140625 465 435 c 0
 473.807617188 296.678710938 318.154296875 237.170898438 205 209 c 1
 249.112304688 130.540039062 325.271484375 68 491 -26 c 1
 491 -60.2978515625 469.391601562 -66.9365234375 397 -78 c 1
 311.115234375 -43.677734375 150.291992188 103.053710938 96 251 c 1
EndSplineSet
Substitution2: "case-1" K
Substitution2: "pcap-1" k.pcap
Substitution2: "smcp-1" k.smcp
EndChar
StartChar: l
Encoding: 108 108 11
Width: 259
VWidth: 1159
Flags: HMW
HStem: -10 21G<47.0016 91.8281> 749 20G<211.328 241.328>
VStem: 16.3285 82<53.6655 157.415>
AnchorPoint: "TopRight" 292.755 581 basechar 0
AnchorPoint: "Top" 221.22 749 basechar 0
LayerCount: 2
Back
SplineSet
187.513671875 406.817382812 m 0
 162.314453125 313.278320312 125.528320312 160.1171875 124.283203125 90.005859375 c 0
 123.950195312 79.759765625 125.9140625 77.154296875 132.79296875 76.9658203125 c 0
 142.01171875 76.47265625 185.069335938 99.9169921875 209.163085938 119.232421875 c 2
 216.641601562 125.953125 l 1
 224.381835938 119.87109375 l 1
 249.833007812 99.87109375 l 1
 258.884765625 92.7578125 l 1
 252.153320312 81 l 2
 223.591796875 43.43359375 146.560546875 -10 94.7353515625 -10 c 0
 35.748046875 -10 25.3359375 14.24609375 20.5078125 37.04296875 c 0
 17.470703125 55.1572265625 20.7919921875 73.9287109375 25.130859375 99.9423828125 c 0
 37.6767578125 174.177734375 77.763671875 311.81640625 97.14453125 401 c 0
 137.298828125 590.341796875 140.803710938 625.909179688 140.803710938 663 c 0
 140.803710938 667.446289062 136.732421875 672.106445312 133.859375 672.850585938 c 2
 129.344726562 675.271484375 l 1
 127.970703125 687.564453125 l 2
 126.220703125 693.59765625 124.219726562 699.50390625 122.1875 705.091796875 c 2
 119.548828125 707.662109375 l 1
 125.518554688 713 l 2
 150.694335938 734.4453125 204.068359375 749.247070312 255.18359375 764 c 2
 260.239257812 765.532226562 l 1
 264.783203125 764 l 2
 279.147460938 756.541992188 285.216796875 746.587890625 290.522460938 740 c 2
 294.427734375 734.461914062 l 1
 291.702148438 730.346679688 l 2
 280.159179688 704.3828125 260.029296875 649.399414062 251.744140625 622.912109375 c 0
 233.725585938 564.739257812 217.58203125 519.360351562 187.513671875 406.817382812 c 0
EndSplineSet
Fore
SplineSet
194.203125 413 m 0
 168.874023438 320.94140625 131.728515625 171.416992188 130.569335938 100 c 0
 130.46484375 93.5673828125 130.80078125 86.3779296875 137.706054688 86 c 1
 146.290039062 86 181.776367188 100.625 199.706054688 112 c 1
 241.706054688 70 l 1
 193.932617188 22 138.71484375 -10 86.01953125 -10 c 3
 42.7060546875 -10 23.90625 11.3916015625 19.6201171875 37 c 0
 17.0986328125 52.0634765625 19.90234375 69.880859375 24.251953125 96 c 0
 36.57421875 170 76.6572265625 309.90234375 96.1630859375 401 c 0
 136.297851562 588.435546875 140.087890625 624.796875 140.087890625 663 c 3
 140.087890625 673.250976562 136.88671875 688.598632812 126.815429688 694 c 1
 124.974609375 700.612304688 122.892578125 707.0078125 120.801757812 713 c 1
 147.486328125 732.125 213.19140625 748.517578125 276.947265625 764 c 1
 288.51171875 757.142578125 292.955078125 748.571289062 299 740 c 1
 287.092773438 712.8984375 267.051757812 657.459960938 258.564453125 630 c 0
 240.635742188 572 225.231445312 525.776367188 194.203125 413 c 0
EndSplineSet
Substitution2: "case-1" L
Substitution2: "pcap-1" l.pcap
Substitution2: "smcp-1" l.smcp
EndChar
StartChar: m
Encoding: 109 109 12
Width: 791
VWidth: 1159
Flags: W
HStem: -10 104<607.067 686.898> -2 21G<74.7333 82.1299 333.881 341.9> 406 96<578.577 689.172> 421 92<330.46 428.853>
VStem: 50.3084 90.3722<0.323105 108.59> 567.095 102.905<53.5363 176.777>
AnchorPoint: "Top" 422 537 basechar 0
AnchorPoint: "Bottom" 349.738 -15 basechar 0
LayerCount: 2
Back
SplineSet
648.09765625 87.24609375 m 2
 659.8984375 87.24609375 695.228515625 140.727539062 713.78515625 168.278320312 c 2
 721.36328125 173.911132812 l 1
 731.948242188 173.356445312 l 1
 754.194335938 153.412109375 l 1
 760.802734375 147.48828125 l 1
 757.07421875 135.541992188 l 2
 736.659179688 93.4599609375 679.583007812 -10 604.315429688 -10 c 0
 558.659179688 -10 545.157226562 40.439453125 545.157226562 72.0380859375 c 0
 545.157226562 144.405273438 602.51171875 269.188476562 601.719726562 350.890625 c 0
 601.364257812 377.3125 591.358398438 390.75390625 578.603515625 390.75390625 c 0
 541.002929688 390.75390625 439.044921875 214.79296875 431.6328125 181.359375 c 0
 422.876953125 140.245117188 410.361328125 70.37109375 402.9375 33.474609375 c 0
 400.640625 23.1298828125 400.731445312 11.84765625 393.326171875 1 c 2
 390.65625 2.0966796875 l 1
 385.641601562 1 l 2
 377.961914062 -0.5380859375 348.918945312 -2 340.271484375 -2 c 0
 334.689453125 -2 313.680664062 -3.0595703125 304.171875 -1 c 2
 303.791992188 -0.841796875 l 1
 303.423828125 -1 l 2
 283.709960938 7.3359375 296.364257812 41.33203125 296.76171875 42.869140625 c 0
 306.696289062 81.4794921875 322.498046875 140.250976562 330.6484375 175.637695312 c 0
 342.318359375 227.42578125 356.946289062 284.315429688 361.143554688 321.921875 c 0
 362.385742188 333.116210938 363.168945312 344.294921875 363.196289062 354.689453125 c 0
 363.29296875 382.82421875 354.841796875 395 339.8828125 395 c 0
 286.465820312 395 187.334960938 227.3515625 177.981445312 182.454101562 c 0
 165.236328125 118.80859375 158.034179688 91.3623046875 147.50390625 37.0341796875 c 0
 144.922851562 23.58203125 141.1328125 8.857421875 139.493164062 1 c 2
 139.247070312 2.11328125 l 1
 138.76953125 1 l 2
 130.872070312 -1.224609375 91.814453125 0 91.814453125 0 c 2
 83.7548828125 0 68.125 0.68359375 59.1767578125 4 c 2
 57.015625 5.037109375 l 1
 55.419921875 4 l 2
 44.744140625 14.2919921875 52.953125 37.095703125 53.666015625 40.599609375 c 0
 64.4912109375 101.706054688 76.962890625 150.96875 90.3984375 217.924804688 c 0
 99.4013671875 263.317382812 108.549804688 303.684570312 111.184570312 323.012695312 c 0
 114.830078125 345.43359375 105.061523438 365.732421875 98.6083984375 370.569335938 c 1
 95.232421875 368.036132812 90.1650390625 362.646484375 85.1787109375 355.4140625 c 0
 77.7265625 344.129882812 70.6201171875 328.984375 67.6025390625 314.1796875 c 2
 63.705078125 292.274414062 l 1
 47.5419921875 307.564453125 l 1
 26.458984375 327.5078125 l 1
 20.642578125 333.009765625 l 1
 23.490234375 336.225585938 l 2
 27.486328125 346.286132812 33.8525390625 358.98828125 41.9375 372.795898438 c 0
 64.9208984375 411.538085938 101.26171875 460.357421875 139.889648438 471.015625 c 0
 152.16796875 473.520507812 189.706054688 479.036132812 204.130859375 459 c 0
 208.374023438 450.771484375 212.770507812 436.516601562 214.481445312 417.401367188 c 0
 215.634765625 397.883789062 215.461914062 377.181640625 213.591796875 355.171875 c 1
 256.466796875 412.240234375 319.837890625 482 383.381835938 482 c 0
 444.639648438 482 466.818359375 432.793945312 470.529296875 386.64453125 c 0
 470.989257812 378.30078125 471.151367188 366.825195312 471.0703125 360.4453125 c 1
 506.1328125 407.091796875 555.673828125 471 622.845703125 471 c 0
 627.123046875 471 631.267578125 470.717773438 635.263671875 470.147460938 c 0
 694.544921875 460.734375 702.530273438 390.571289062 689.296875 321.74609375 c 0
 672.840820312 226.8359375 645.534179688 171.659179688 645.534179688 97.6826171875 c 0
 645.534179688 91.62109375 647.015625 88.1494140625 647.696289062 87.2490234375 c 2
 648.09765625 87.24609375 l 2
EndSplineSet
Fore
SplineSet
683 94 m 3xac
 688.158643965 94 719.818738932 138.270383449 729.875 155.486328125 c 1
 775 126 l 1
 749.10738255 75 694.935141549 -10 628.251953125 -10 c 3
 585.882636169 -10 567.094726562 35.0344234978 567.094726562 72.0380859375 c 3
 567.094726562 142.888574312 632.336914062 282.621336746 632.336914062 374.139648438 c 3
 632.336914062 397.933565168 621.789181529 406 604.681640625 406 c 3xac
 572.805337652 406 475.4268059 331.736982091 439 171 c 0
 430.907074345 135.289143286 420.401300785 65.271889158 414.102539062 33.474609375 c 0
 411.536821481 20.5224064881 411.144480699 9.41934317129 406.015625 1 c 1
 398.559201259 5.55111512313e-17 347.592766129 -2 336.208007812 -2 c 1
 331.553871662 -2 307.119656863 -2 304.711914062 -1 c 1
 299.892498071 1.40002441406 303.005693672 31.5698939802 304.434570312 37.400390625 c 0
 315.427476477 82.2566789104 335.009850179 159.783345189 344.973632812 204 c 0
 356.601147952 255.59986344 368.182457828 312.863960882 375.689453125 351.599609375 c 0
 384.679799373 397.989260403 377.109979 421 357.681640625 421 c 3x5c
 312.999191479 421 208.61829858 312.286594426 179 186 c 0
 164.934823849 126.028857792 158.610901057 89.1994578082 148.653320312 37.0341796875 c 0
 146.16407974 23.9936701425 142.425669612 9.40797526042 140.680664062 1 c 1
 139.175503556 -1 86.5085691047 0 77.7512716121 0 c 1
 71.715298969 0 54.4728907888 2 50.3084233353 4 c 1
 48.1618176754 6.40443901801 50.5904846492 31.7432442583 51.4228563831 36.4599267431 c 0
 64.1155704661 108.383923871 78.944153529 166.708034418 94.7880859375 246.590820312 c 0
 103.770362014 291.878140288 112.889262603 331.940896496 115.692382812 352.385742188 c 0
 118.035805634 369.477737685 110.851954279 386 103.681640625 386 c 3
 95.7744897452 386 82.0838308159 370.754098361 70.681640625 355 c 1
 32.681640625 384 l 1
 47.5653251267 416.839785599 101.159009073 491.737252333 145.837890625 502 c 1x2c
 160.935976685 505.833007812 197.078596894 510.610229717 209.885742188 490 c 0
 214.265259554 482.952148438 221.474620607 468.023610976 222.131835938 448.49609375 c 0
 222.532844893 434.227307229 222.077375305 417.646537016 220 400 c 1
 254.185747975 437.66642781 331.352967251 513 398 513 c 3x1c
 459.705670953 513 480.431582754 468.576554879 488.178710938 417.64453125 c 0
 488.563847971 412.131554269 488.220565648 406.573205282 489.681640625 401 c 1
 515.97837456 430.904012162 576.486525444 502 647.46484375 502 c 3
 730.878684443 502 748.425405225 436.453834636 730.096679688 354.822265625 c 0
 708.021167928 256.503445914 670 170 670 116 c 3
 670 95.5414300377 675.425358026 94 683 94 c 3xac
EndSplineSet
Substitution2: "case-1" M
Substitution2: "pcap-1" m.pcap
Substitution2: "smcp-1" m.smcp
EndChar
StartChar: n
Encoding: 110 110 13
Width: 522
VWidth: 1159
Flags: HMW
HStem: -11 73<330.961 387.216> 346 65<308.172 403.961>
VStem: 45.461 17<275.412 284.988> 61.461 65<0 38.5218>
AnchorPoint: "Top" 316 537 basechar 0
AnchorPoint: "Bottom" 219.51 -15 basechar 0
LayerCount: 2
Back
SplineSet
117.435546875 361 m 2
 120.986328125 373.431640625 110.19921875 393.672851562 104.075195312 397.1171875 c 1
 93.8232421875 392.451171875 66.6865234375 361.229492188 58.85546875 329.497070312 c 2
 54.5712890625 309.411132812 l 1
 39.1767578125 323.004882812 l 1
 21.0576171875 330.009765625 l 1
 15.8857421875 334.576171875 l 1
 17.23046875 348 l 2
 33.7802734375 427.168945312 113.091796875 482.436523438 160.409179688 506 c 2
 164.153320312 506.818359375 l 1
 168.301757812 506 l 2
 183.650390625 503.677734375 197.677734375 493.624023438 203.788085938 482 c 0
 207.354492188 473.869140625 211.1328125 459.458984375 212.575195312 440.49609375 c 0
 213.286132812 428.66796875 212.188476562 410.80859375 210.071289062 392.109375 c 1
 253.879882812 443.373046875 318.23046875 504 380.119140625 504 c 0
 387.088867188 504 393.629882812 503.4921875 399.7578125 502.478515625 c 0
 466.016601562 490.84765625 467.911132812 423.072265625 456.122070312 367.345703125 c 0
 434.532226562 259.736328125 414.081054688 197.114257812 405.909179688 123 c 0
 403.776367188 107.298828125 402.749023438 90.5439453125 405.024414062 85.267578125 c 1
 411.2890625 87.9775390625 424.938476562 99.2421875 434.874023438 111.698242188 c 0
 449.25 132.51171875 464.650390625 155.9921875 472.3984375 166.39453125 c 2
 480.196289062 169.6015625 l 1
 489.943359375 169.990234375 l 1
 508.0625 153.990234375 l 1
 514.640625 148.181640625 l 1
 511.098632812 136 l 2
 494.7421875 100.056640625 472.63671875 63.76171875 441.19921875 31 c 0
 421.473632812 11.6435546875 390.287109375 -9 361.208984375 -9 c 0
 318.84765625 -9 306.932617188 37.708984375 306.248046875 62 c 0
 306.232421875 62.548828125 306.224609375 63.103515625 306.224609375 63.6630859375 c 0
 306.224609375 120.638671875 371.150390625 335.716796875 371.150390625 381.1328125 c 0
 371.150390625 401.459960938 360.889648438 415 337.665039062 415 c 0
 282.985351562 415 188.438476562 286.220703125 175.388671875 235.202148438 c 0
 155.41015625 152.6953125 148.396484375 116.049804688 134.8984375 36 c 0
 133.296875 27.7998046875 135.598632812 10.4345703125 124.436523438 0 c 2
 120.868164062 0 l 1
 139.580078125 0 l 1
 102.580078125 0 l 1
 26.580078125 0 l 1
 44.9482421875 0 l 1
 41.349609375 0 l 2
 29.1982421875 13.0849609375 39.509765625 37.1806640625 41.1123046875 43.9619140625 c 0
 57.193359375 119.3203125 83.1044921875 222.450195312 104.333007812 296.286132812 c 0
 109.416015625 313.640625 113.818359375 339.712890625 117.264648438 361 c 2
 117.333984375 360.56640625 l 1
 117.435546875 361 l 2
EndSplineSet
Fore
SplineSet
116 361 m 1xd0
 118.602539062 373.864257812 111.11328125 394 103.874023438 394 c 3
 96.294921875 394 80.1787109375 378.262695312 73 362 c 1
 30.880859375 382 l 1xe0
 53 440 135.952148438 504 165.860351562 504 c 3
 183.380859375 504 206.05859375 493.509765625 211.5390625 482 c 0
 214.380859375 474.952148438 218.508789062 459.9921875 219.485351562 440.49609375 c 0
 220.017578125 429.880859375 217.9375 405.829101562 214 386 c 1
 245.661132812 427.989257812 319.55859375 504 380 504 c 3
 463.916015625 504 469.439453125 438.813476562 456.23046875 372 c 0
 434.772460938 263.461914062 418.868164062 199.111328125 405.860351562 123 c 0
 403.127929688 107.008789062 401.250976562 88 404.125 88 c 3
 408.456054688 88 415.5 89.0517578125 423.608398438 98 c 0
 434.947265625 110.512695312 447.17578125 127.538085938 452.880859375 134 c 1
 501 118 l 1
 486.697265625 88.033203125 467.94921875 57.732421875 440.29296875 31 c 0
 419.6015625 11 386.673828125 -9 361.08984375 -9 c 3
 319.974609375 -9 301.10546875 33.78125 301.10546875 63.6630859375 c 3
 301.10546875 116.46875 366.03125 331.407226562 366.03125 381.1328125 c 3
 366.03125 398.584960938 358.129882812 415 337.545898438 415 c 3
 288.21875 415 194.014648438 287.75390625 182.600585938 238 c 0
 162.586914062 154.53125 155.447265625 116.881835938 141.943359375 36 c 0
 139.942382812 24.0166015625 139.946289062 6 134.4609375 0 c 1
 126.893554688 0 81.48828125 0 78.4609375 0 c 1
 75.5322265625 0 40.3896484375 0 37.4609375 0 c 1
 32.4775390625 6 37.6767578125 29.2685546875 39.7333984375 39 c 0
 55.736328125 114.7265625 81.6259765625 218.78515625 102.754882812 293 c 0
 108.1640625 312 112.538085938 339 116 361 c 1xd0
EndSplineSet
Substitution2: "case-1" N
Substitution2: "pcap-1" n.pcap
Substitution2: "smcp-1" n.smcp
EndChar
StartChar: o
Encoding: 111 111 14
Width: 490
VWidth: 1159
Flags: W
HStem: -10 65<174.096 258.023> 433 74<227.748 322.787>
VStem: 31.0957 109.074<94.5032 295.923> 350.17 108.83<201.003 404.137>
AnchorPoint: "Top" 316.17 537 basechar 0
AnchorPoint: "Horn" 435.808 420.164 basechar 0
AnchorPoint: "Ogonek" 289.169 19 basechar 0
AnchorPoint: "Bottom" 209.786 -15 basechar 0
AnchorPoint: "Middle" 246.505 251.029 basechar 0
LayerCount: 2
Back
SplineSet
309.208007812 507 m 3
 395.5078125 507 452.313476562 437.104492188 458.047851562 343.228515625 c 0
 458.494140625 335.916015625 458.712890625 328.646484375 458.712890625 321.42578125 c 0
 458.712890625 139.922851562 320.465820312 -10 187.846679688 -10 c 3
 101.143554688 -10 38.0615234375 50.2939453125 31.4990234375 157.76953125 c 0
 31.03515625 165.36328125 30.80859375 172.84765625 30.80859375 180.220703125 c 0
 30.80859375 387.733398438 209.884765625 507 309.208007812 507 c 3
277.671875 434.16015625 m 0
 232.443359375 434.16015625 145.991210938 350.456054688 145.991210938 204.500976562 c 0
 145.991210938 197.3203125 146.203125 190.012695312 146.640625 182.583007812 c 0
 152.200195312 88.234375 187.028320312 55 213.73046875 55 c 0
 259.212890625 55 345.182617188 147.427734375 345.182617188 300.202148438 c 0
 345.182617188 308.083007812 344.951171875 316.08984375 344.47265625 324.212890625 c 0
 339.28515625 412.243164062 302.791015625 434.16015625 277.671875 434.16015625 c 0
EndSplineSet
Fore
SplineSet
309.495117188 507 m 3
 403.1328125 507 459 427.673828125 459 321.42578125 c 0
 459 139.922851562 320.752929688 -10 188.133789062 -10 c 3
 94.0673828125 -10 31.095703125 60.2529296875 31.095703125 180.220703125 c 0
 31.095703125 387.733398438 210.171875 507 309.495117188 507 c 3
278.169921875 433 m 3
 218.71875 433 140.169921875 340.102539062 140.169921875 202 c 3
 140.169921875 114.98828125 170.575195312 55 214.169921875 55 c 3
 265.135742188 55 350.169921875 157.19140625 350.169921875 300 c 3
 350.169921875 396.821289062 319.2109375 433 278.169921875 433 c 3
EndSplineSet
Substitution2: "case-1" O
Substitution2: "pcap-1" o.pcap
Substitution2: "smcp-1" o.smcp
EndChar
StartChar: p
Encoding: 112 112 15
Width: 511
VWidth: 1159
Flags: HMW
HStem: -322 34<61.3024 139.999> -1 42<106.986 229.246> 351 46<224.026 344.499>
AnchorPoint: "Top" 370.038 537 basechar 0
AnchorPoint: "Bottom" 132.041 -156 basechar 0
LayerCount: 2
Back
SplineSet
45.291015625 70.3681640625 m 0
 74.55859375 195.107421875 105.694335938 316.842773438 108.29296875 357.694335938 c 0
 109.358398438 368.967773438 107.297851562 375.500976562 105.465820312 378.6953125 c 1
 89.9716796875 373.1484375 66.482421875 360.981445312 54.826171875 358.264648438 c 2
 41.22265625 355.15234375 l 1
 40.18359375 379.872070312 l 1
 37.029296875 422.100585938 l 1
 36.3046875 421.168945312 l 1
 45.638671875 423.888671875 l 2
 118.481445312 446.658203125 129.784179688 438.140625 160.78125 538 c 2
 163.239257812 537.231445312 l 1
 170.98046875 538 l 2
 200.600585938 541.170898438 217.349609375 546.915039062 231.825195312 542.764648438 c 0
 259.176757812 535.536132812 244.959960938 502.518554688 235.79296875 470.397460938 c 1
 277.180664062 486.670898438 326.67578125 505.080078125 375.739257812 505.080078125 c 0
 378.741210938 505.080078125 381.7265625 504.961914062 384.688476562 504.728515625 c 0
 457.493164062 498.614257812 510.448242188 421.366210938 500.326171875 321.842773438 c 0
 484.115234375 165.698242188 346.3515625 60.7978515625 231.233398438 36.4013671875 c 0
 201.462890625 30.96875 164.083007812 28.962890625 136.770507812 29.822265625 c 1
 128.1953125 -16.25 117.455078125 -75.7626953125 116.909179688 -93.177734375 c 0
 117.392578125 -95.36328125 133.206054688 -97.767578125 150.811523438 -98.029296875 c 0
 171.29296875 -99.0341796875 205.258789062 -101.036132812 224.21875 -102.033203125 c 2
 237.784179688 -102.74609375 l 1
 235.403320312 -126 l 1
 229.349609375 -160 l 1
 227.543945312 -160.243164062 l 1
 217.251953125 -160 l 2
 174.934570312 -158.998046875 157.995117188 -159 125.923828125 -159 c 0
 96.7880859375 -159 8.123046875 -169.083007812 -22.9765625 -174 c 2
 -37 -176.1953125 l 1
 -36.83203125 -173.716796875 l 1
 -36.4541015625 -141.716796875 l 1
 -36.376953125 -125.064453125 l 1
 -30.7724609375 -121.594726562 l 2
 -23.927734375 -118.3828125 -19.9560546875 -116.3203125 -16.0234375 -112.405273438 c 0
 -11.3603515625 -106.633789062 -3.8701171875 -85.4482421875 6.04296875 -58.775390625 c 0
 14.796875 -34.009765625 32.828125 17.130859375 45.291015625 70.3681640625 c 0
315.022460938 434.21484375 m 0
 264.366210938 434.21484375 234.749023438 414.620117188 217.274414062 395.676757812 c 1
 151.799804688 113.841796875 l 1
 173.541992188 103.359375 197.529296875 96.3662109375 230.2578125 96.3662109375 c 0
 315.5703125 96.3662109375 388.912109375 178.90625 397.998046875 295.733398438 c 2
 398.025390625 296.11328125 l 1
 398.077148438 296.491210938 l 2
 399.30078125 305.381835938 399.91015625 314.369140625 399.916992188 323.28515625 c 0
 399.96875 383.861328125 367.291992188 434.21484375 315.022460938 434.21484375 c 0
EndSplineSet
Fore
SplineSet
44.8515625 64.947265625 m 0
 74.15234375 191.33203125 100.783203125 314.038085938 108.140625 357.694335938 c 0
 109.831054688 367.725585938 104.987304688 372.138671875 99.095703125 374.947265625 c 1
 87.6708984375 373.774414062 50.2763671875 355.005859375 40.021484375 352.66015625 c 1
 36.8671875 421.888671875 l 1
 124.26171875 446.372070312 128.109375 440.427734375 160.038085938 538 c 1
 247.262695312 546.774414062 262.315429688 557.65234375 234.51171875 469.21484375 c 1
 273.518554688 483.39453125 327.872070312 505.080078125 377.610351562 505.080078125 c 3
 453.721679688 505.080078125 517.821289062 419.658203125 497.038085938 303 c 0
 469.1796875 146.626953125 336.094726562 57.228515625 216.702148438 34.3662109375 c 1
 192.00390625 30.3662109375 158.37109375 29.033203125 137.955078125 30.3662109375 c 1
 129.314453125 -12.064453125 116.306640625 -73.5166015625 115.774414062 -94 c 1
 116.25390625 -97.5712890625 144.146484375 -98.201171875 161.094726562 -99 c 0
 182.303710938 -100 217.662109375 -102 237.459960938 -103 c 1
 230.40625 -160 l 1
 176.45703125 -159 154.59765625 -159 113.794921875 -159 c 3
 82.884765625 -159 -5.0263671875 -169 -36.9619140625 -174 c 1
 -36.583984375 -124 l 1
 -28.861328125 -120.840820312 -21.908203125 -119.060546875 -16.603515625 -112.94140625 c 0
 -10.162109375 -105.510742188 -3.71875 -88.880859375 4.240234375 -66.705078125 c 0
 13.2412109375 -41.6279296875 32.189453125 10.330078125 44.8515625 64.947265625 c 0
317.038085938 434 m 3
 266.01953125 434 235.263671875 414.885742188 218.020507812 396.639648438 c 1
 152.038085938 114 l 1
 171.348632812 103.923828125 194.235351562 96.3662109375 225.12890625 96.3662109375 c 3
 314.358398438 96.3662109375 374.038085938 168 395.038085938 265 c 0
 416.659179688 364.8671875 375.559570312 434 317.038085938 434 c 3
EndSplineSet
Substitution2: "case-1" P
Substitution2: "pcap-1" p.pcap
Substitution2: "smcp-1" p.smcp
EndChar
StartChar: q
Encoding: 113 113 16
Width: 490
VWidth: 1159
Flags: HMW
HStem: -342 36<293.303 361.679> -5 43<115.888 214.273> 369 49<188.341 301.544> 409 20G<403.179 433.679>
AnchorPoint: "Top" 357.394 537 basechar 0
AnchorPoint: "Bottom" 273.413 -144 basechar 0
LayerCount: 2
Back
SplineSet
324.333007812 174.10546875 m 1
 342.889648438 248.228515625 357.990234375 319.561523438 369.151367188 377.809570312 c 0
 368.922851562 382.69921875 366.5546875 392.768554688 363.518554688 398.184570312 c 0
 347.927734375 424.697265625 316.044921875 431 289.5859375 431 c 0
 215.098632812 431 138.109375 335.30859375 125.2578125 218.24609375 c 0
 123.8984375 207.23828125 123.254882812 197.21484375 123.2265625 187.478515625 c 0
 123.043945312 133.05859375 147.321289062 104 187.103515625 104 c 0
 241.94140625 104 312.0625 156.313476562 324.333007812 174.10546875 c 1
301.513671875 82.3828125 m 1
 250.08203125 44.990234375 201.444335938 24.69140625 137.875976562 24.69140625 c 0
 43.671875 24.69140625 14 96.5537109375 14 147.142578125 c 0
 14 290.790039062 166.099609375 504 341.103515625 504 c 0
 399.80859375 504 421.114257812 478 421.241210938 478 c 0
 437.146484375 478 453.001953125 501.021484375 464.125 511.122070312 c 2
 469.923828125 514.256835938 l 1
 476.786132812 511.122070312 l 1
 507.696289062 497 l 1
 517.451171875 492.54296875 l 1
 514.114257812 489.532226562 l 2
 511.861328125 482.458984375 505.54296875 468.08984375 502.1796875 459.654296875 c 0
 494.461914062 440.956054688 482.59375 406.602539062 460.137695312 337.543945312 c 0
 451.094726562 310.4921875 421.631835938 208.91015625 410.109375 158.9375 c 0
 379.3203125 19.4814453125 370.611328125 -43.3212890625 369.205078125 -71.1669921875 c 0
 367.958007812 -88.83984375 392.518554688 -96.7978515625 411.279296875 -99.9248046875 c 0
 423.830078125 -102.716796875 463.454101562 -108 469.254882812 -108 c 2
 483.313476562 -108 l 1
 481.106445312 -132 l 1
 475.3828125 -168 l 1
 473.708007812 -168.422851562 l 1
 463.0546875 -168 l 2
 437.493164062 -166.982421875 397.778320312 -164 353.627929688 -164 c 0
 323.900390625 -164 247.899414062 -170.056640625 216.58984375 -174 c 2
 202.090820312 -175.809570312 l 1
 203.133789062 -172.287109375 l 1
 205.423828125 -140.287109375 l 1
 206.110351562 -119.68359375 l 1
 215.62109375 -118.263671875 l 2
 216.875976562 -118.138671875 217.1640625 -118.056640625 217.1640625 -118.056640625 c 2
 217.6328125 -117.853515625 219.86328125 -116.583007812 223.803710938 -114.787109375 c 0
 234.381835938 -107.395507812 242.854492188 -95.255859375 255.114257812 -70.587890625 c 0
 260.966796875 -57.1875 283.559570312 16.935546875 301.513671875 82.3828125 c 1
EndSplineSet
Fore
SplineSet
319.90625 173.750976562 m 1xe0
 341.608398438 245.5703125 357.822265625 316.377929688 370.462890625 374.03515625 c 1
 370.462890625 381.157226562 368.137695312 390.491210938 358.59375 403.708984375 c 0
 343.436523438 425.348632812 315.55078125 431 294.03125 431 c 3
 223.126953125 431 133.212890625 325.1015625 125.625 219.602539062 c 0
 120.393554688 146 134.296875 104 186.393554688 104 c 3
 242.875976562 104 309.271484375 155.5546875 319.90625 173.750976562 c 1xe0
296.313476562 78.65625 m 1
 243.2734375 43.2998046875 199.725585938 24.69140625 138.166015625 24.69140625 c 3
 43.974609375 24.69140625 14.2900390625 94.6201171875 14.2900390625 147.142578125 c 3
 14.2900390625 290.353515625 169.966796875 504 342.393554688 504 c 3xe0
 401.576171875 504 411.370117188 479 426.53125 479 c 3
 438.579101562 479 459.345703125 507.477539062 465.08984375 514.122070312 c 1xd0
 517 497 l 1
 515.209960938 491.533203125 508.783203125 477.094726562 505.366210938 468.755859375 c 0
 497.3515625 449.202148438 486.297851562 414.291992188 463.0078125 344.91796875 c 0
 453.369140625 316.209960938 422.399414062 211.532226562 410.686523438 158.9375 c 0
 379.827148438 20.3798828125 372.0625 -42.1962890625 369.510742188 -71.1669921875 c 0
 367.740234375 -91.26171875 402.354492188 -97.169921875 420.869140625 -101.309570312 c 0
 435.4453125 -104.568359375 474.798828125 -110 483.544921875 -110 c 1
 475.821289062 -168 l 1
 445.134765625 -167 396.315429688 -164 341.91796875 -164 c 3
 311.006835938 -164 235.448242188 -170.599609375 203.393554688 -175 c 1
 209.68359375 -113 l 1
 216.551757812 -112.599609375 216.98046875 -113.494140625 223.420898438 -109.79296875 c 0
 235.583007812 -102.225585938 246.907226562 -92.4091796875 255.345703125 -70.4443359375 c 0
 261.197265625 -55.96875 282.479492188 21.2353515625 296.313476562 78.65625 c 1
EndSplineSet
Substitution2: "case-1" Q
Substitution2: "pcap-1" q.pcap
Substitution2: "smcp-1" q.smcp
EndChar
StartChar: r
Encoding: 114 114 17
Width: 426
VWidth: 1159
Flags: HMW
HStem: 406 20G<319.7 340.2> 413 20G<151.7 177.7 319.7 340.2>
VStem: 41.7002 19<295.105 306.953> 52.7002 68<0 66.3041>
AnchorPoint: "Top" 269 537 basechar 0
AnchorPoint: "Bottom" 110.95 -15 basechar 0
LayerCount: 2
Back
SplineSet
127.134765625 353.951171875 m 0
 127.022460938 377.62109375 120.528320312 395.904296875 116.02734375 400.296875 c 1
 113.360351562 397.989257812 109.603515625 393.670898438 105.65234375 387.913085938 c 0
 95.921875 372.494140625 85.3447265625 348.444335938 80.595703125 325.0625 c 2
 76.7646484375 304.40234375 l 1
 60.9169921875 318.200195312 l 1
 39.8369140625 336.5546875 l 1
 34.244140625 332.374023438 l 1
 36.09765625 345.60546875 l 2
 41.98828125 367.294921875 51.400390625 387.403320312 62.81640625 405.678710938 c 0
 94.19921875 456.513671875 140.584960938 493.594726562 173.912109375 512.337890625 c 2
 178.119140625 513.5078125 l 1
 182.849609375 512.337890625 l 2
 220.920898438 503.948242188 230.999023438 462.774414062 232.138671875 419.352539062 c 0
 232.361328125 407.623046875 232.216796875 393.216796875 231.7421875 380.794921875 c 1
 285.379882812 445.274414062 352.866210938 500.719726562 381.638671875 508.896484375 c 2
 384.610351562 509.572265625 l 1
 387.6328125 508.896484375 l 2
 418.622070312 502.826171875 452.203125 473.856445312 447.252929688 439.88671875 c 0
 442.438476562 406.876953125 406.659179688 353.723632812 365.135742188 339.182617188 c 2
 353.216796875 335.404296875 l 1
 349.930664062 355.75390625 l 2
 345.453125 368.1484375 332.341796875 381.443359375 328.560546875 382.80859375 c 0
 302.333007812 381.5078125 222.69921875 313.567382812 201.404296875 229.681640625 c 0
 197.53515625 213.248046875 194.763671875 197.124023438 193.130859375 188.504882812 c 0
 185.297851562 148.028320312 180.388671875 118.216796875 176.95703125 97.8193359375 c 0
 175.1328125 87.068359375 174.048828125 77.4912109375 171.008789062 65.6982421875 c 0
 168.916015625 57.5732421875 165.348632812 45.130859375 162.610351562 37.01953125 c 0
 158.614257812 25.12890625 155.484375 13.51953125 149.818359375 0.310546875 c 2
 146.177734375 -1.1650390625 l 1
 137.25390625 0.396484375 l 2
 131.821289062 0.474609375 107.8984375 -2.0341796875 100.776367188 -1.9833984375 c 0
 97.490234375 -1.9833984375 73.365234375 -4.4990234375 61.8037109375 1.4580078125 c 2
 58.853515625 4.728515625 l 1
 58.7041015625 1.9794921875 l 2
 58.7568359375 15.388671875 63.8564453125 38.65625 64.767578125 43.7373046875 c 0
 65.5302734375 48.0205078125 67.91015625 68.140625 70.3583984375 75.8154296875 c 0
 71.423828125 80.3203125 74.0693359375 98.10546875 76.3583984375 105.177734375 c 0
 80.90625 118.978515625 101.2109375 214.461914062 115.34765625 265.399414062 c 0
 123.053710938 293.770507812 126.913085938 329.813476562 127.134765625 353.951171875 c 0
EndSplineSet
Fore
SplineSet
125.813476562 354.030273438 m 1x80
 125.76171875 379.022460938 122.778320312 398.712890625 117.75390625 398.712890625 c 3
 108.061523438 398.712890625 87.8818359375 363.856445312 80.208984375 321 c 1
 37.9423828125 346.749023438 l 1
 60.462890625 431.883789062 131.028320312 487.733398438 177.647460938 514.337890625 c 1
 215.290039062 507.28515625 231.528320312 469.979492188 231.8203125 419.352539062 c 0
 231.885742188 407.9765625 231.74609375 394.526367188 231.209960938 380 c 1
 276.561523438 440.842773438 359.030273438 502.758789062 382.69140625 508.896484375 c 1
 420.702148438 501.80859375 463.975585938 466.3671875 456.052734375 429.508789062 c 1
 441.208984375 367 408.677734375 337.194335938 363.1875 322.060546875 c 1
 356.966796875 349.21484375 346.375976562 381.799804688 326.71875 381.799804688 c 3
 303.096679688 381.799804688 220.591796875 313.940429688 201.40234375 232.431640625 c 0
 197.434570312 215.578125 194.6171875 199.17578125 193.01953125 190.739257812 c 0
 185.157226562 149.241210938 180.221679688 118.627929688 176.794921875 97.8193359375 c 0
 174.905273438 86.34765625 173.861328125 76.947265625 171.045898438 65.6982421875 c 0
 169.03515625 57.66796875 165.4609375 44.8681640625 162.88671875 37.01953125 c 0
 158.74609375 24.400390625 155.711914062 12.9296875 150.427734375 0.310546875 c 1
 143.758789062 0.9482421875 97.4541015625 -2.0263671875 87.498046875 -1.9833984375 c 1
 81.498046875 -1.9833984375 61.5322265625 -3.130859375 57.392578125 1.4580078125 c 1
 57.1484375 9.48828125 62.3798828125 34.7255859375 63.240234375 39.314453125 c 0
 64.1005859375 43.90234375 66.6513671875 63.763671875 68.3671875 67.9931640625 c 0
 69.2978515625 70.287109375 72.7138671875 92.40234375 74.458984375 97.8193359375 c 0
 79.6259765625 113.862304688 99.5537109375 210.456054688 113.607421875 262.2578125 c 0
 121.69921875 292.083984375 125.58203125 328.79296875 125.813476562 354.030273438 c 1x80
EndSplineSet
Substitution2: "case-1" R
Substitution2: "pcap-1" r.pcap
Substitution2: "smcp-1" r.smcp
EndChar
StartChar: s
Encoding: 115 115 18
Width: 376
VWidth: 1159
Flags: HMW
HStem: -10.1663 54.1517<53.1162 176.58> 369 47<178.157 254.577>
VStem: 77.7775 70.1657<259.483 332.875> 192.028 68.2592<62.772 153.436> 282.12 44<317.5 339.554>
AnchorPoint: "Top" 282.104 537 basechar 0
AnchorPoint: "Bottom" 138.301 -15 basechar 0
LayerCount: 2
Back
SplineSet
47.7314453125 111.149414062 m 2
 80.203125 77.1728515625 130.225585938 59.9853515625 161.708984375 59.9853515625 c 0
 181.333007812 59.9853515625 208.626953125 74.4248046875 206.9921875 112.6640625 c 0
 205.747070312 148.038085938 177.918945312 188.194335938 148.379882812 223.110351562 c 0
 120.517578125 256.032226562 83.3916015625 280.380859375 80.6142578125 345.866210938 c 0
 80.318359375 352.668945312 80.544921875 359.939453125 81.3212890625 367.620117188 c 0
 87.294921875 426.049804688 192.815429688 508.765625 266.85546875 508.765625 c 0
 302.905273438 508.765625 322.599609375 495.741210938 338.653320312 489 c 2
 343.810546875 486.72265625 l 1
 345.349609375 489 l 2
 349.4609375 474.64453125 353.481445312 440.434570312 362.043945312 399.80859375 c 2
 363.811523438 383.434570312 l 1
 356.344726562 379.078125 l 1
 311.415039062 352.866210938 l 1
 298.854492188 345.5390625 l 1
 294.04296875 365.65625 l 2
 279.498046875 403.102539062 255.287109375 440 231.18359375 440 c 0
 197.483398438 440 167.864257812 416.623046875 168.771484375 394.684570312 c 0
 169.688476562 366.928710938 187.973632812 333.034179688 222.020507812 296.118164062 c 0
 262.354492188 252.36328125 296.3125 210.172851562 298.384765625 158.924804688 c 0
 302.83203125 55.7255859375 214.288085938 11.3466796875 159.520507812 -2.00390625 c 0
 139.025390625 -7.0703125 114.426757812 -9.166015625 90.01171875 -9.166015625 c 0
 55.7724609375 -9.166015625 22.162109375 -6.3056640625 0.1494140625 -1 c 2
 -11.8857421875 2.0302734375 l 1
 -8.453125 5.6376953125 l 2
 -2.125 27.12109375 7.318359375 69.830078125 9.84375 93.01171875 c 2
 10.7041015625 111.37890625 l 1
 18.5322265625 113.577148438 l 1
 35.50390625 118.342773438 l 1
 42.7451171875 120.375976562 l 1
 47.7314453125 111.149414062 l 2
EndSplineSet
Fore
SplineSet
39.669921875 119.236328125 m 1
 74.654296875 79.73828125 127.299804688 59.9853515625 162.630859375 59.9853515625 c 3
 183.21484375 59.9853515625 207.202148438 76.8466796875 205.90625 112.6640625 c 0
 204.426757812 153.549804688 172.752929688 199.424804688 142.4765625 230.84375 c 0
 111.0234375 263.484375 83.0888671875 286.168945312 80.525390625 346.87890625 c 0
 80.2548828125 353.288085938 80.4560546875 360.182617188 81.1875 367.638671875 c 1
 87.1044921875 413 169.301757812 508.765625 278.776367188 508.765625 c 3
 299.81640625 508.765625 327.826171875 495.10546875 345.7265625 486 c 1
 349.83984375 472.0859375 355.036132812 431.609375 365.21875 384.80859375 c 1
 300.2890625 346.596679688 l 1
 287.19921875 387.9609375 264.043945312 440 231.104492188 440 c 3
 198.376953125 440 168.890625 418.014648438 169.69921875 394.684570312 c 0
 170.828125 362.103515625 193.485351562 326.970703125 229.104492188 288 c 0
 269.194335938 244.137695312 296.30078125 204.063476562 298.31640625 157.958007812 c 0
 302.779296875 55.8525390625 213.990234375 12.068359375 157.416015625 -2.00390625 c 0
 134.02734375 -7.8212890625 104.293945312 -9.166015625 74.9326171875 -9.166015625 c 3
 41.4658203125 -9.166015625 8.291015625 -6.1083984375 -12 -1 c 1
 -3.658203125 27.1171875 8.3173828125 80.6748046875 11.697265625 111.470703125 c 1
 39.669921875 119.236328125 l 1
EndSplineSet
Substitution2: "case-1" S
Substitution2: "pcap-1" s.pcap
Substitution2: "smcp-1" s.smcp
EndChar
StartChar: t
Encoding: 116 116 19
Width: 304
VWidth: 1159
Flags: HMW
HStem: -15 53<87.8374 167.367> 342 26<61.8374 95.7364> 352 38<192.837 298.768> 358 41<193.902 299.837>
VStem: 38.8374 267
AnchorPoint: "TopRight" 265.167 601 basechar 0
AnchorPoint: "Bottom" 99.4274 -15 basechar 0
AnchorPoint: "Top" 186.239 595.346 basechar 0
LayerCount: 2
Back
SplineSet
64.595703125 479 m 2
 126.889648438 503.637695312 131.88671875 499.100585938 165.81640625 612.720703125 c 2
 168.407226562 612.525390625 l 1
 176.983398438 612.720703125 l 1
 227.918945312 613.879882812 l 1
 244.48046875 614.256835938 l 1
 239.676757812 606.920898438 l 2
 236.932617188 597.064453125 222.72265625 532.30078125 216.078125 502.208007812 c 1
 245.485351562 504.703125 293.657226562 509.8671875 312.352539062 510.791015625 c 2
 326 511.467773438 l 1
 324.909179688 508.874023438 l 1
 321.560546875 467.083007812 l 1
 320.67578125 445 l 1
 309.598632812 445 l 2
 291.221679688 445 230.470703125 440.333007812 201.5546875 439.22265625 c 1
 180.875976562 354.0703125 146.752929688 211.643554688 135.521484375 99.5615234375 c 0
 133.422851562 76.181640625 140.34375 66.6328125 159.729492188 66.6328125 c 0
 176.650390625 66.6328125 219.44140625 97.5556640625 244.844726562 117.771484375 c 2
 255.6015625 126.80078125 l 1
 262.842773438 111.762695312 l 2
 262.970703125 111.53515625 270.887695312 97.7314453125 276.055664062 84.001953125 c 2
 279.154296875 80.6748046875 l 1
 273.006835938 75.0654296875 l 2
 237.409179688 43.7265625 177.810546875 -11 115.7265625 -11 c 0
 92.6357421875 -11 32.2724609375 4.646484375 39.625 89.6240234375 c 0
 47.5927734375 199.47265625 86.4716796875 331.137695312 107.469726562 432.505859375 c 1
 73.8359375 429.12109375 l 1
 62.4384765625 427.973632812 l 1
 60.7626953125 449.489257812 l 1
 56.91796875 475.489257812 l 1
 55.498046875 475.606445312 l 1
 64.595703125 479 l 2
EndSplineSet
Fore
SplineSet
56.8017578125 482 m 1xc8
 127.414003107 496.192798069 126.119552484 498.300746645 165.26953125 612.720703125 c 1
 255.205078125 613.879882812 l 1
 251.220703125 600.729385463 231.403320312 516.342809326 227.541992188 501 c 1xa8
 249.087289227 502.087890625 316.415623086 509.703125 337.959960938 510.791015625 c 1
 332.611328125 441 l 1x98
 310.237214503 441 235.374113622 435 213 435 c 1xa8
 193.371706325 355.213932112 158.009762614 212.104179985 146.573242188 99.3896484375 c 1
 145.957674636 86.3857421875 148.307649065 76.6328125 156.7421875 76.6328125 c 3
 180.126348915 76.6328125 220.342539331 109.376933195 243.573242188 128.389648438 c 1
 243.573242188 128.389648438 262.515155587 99.9341052826 273.931640625 74.0654296875 c 1
 235.895816276 41.5095244984 174.855851065 -11 116.739257812 -11 c 3
 95.0280201111 -11 33.4491482475 0.81382455757 39.604997306 87.8065326633 c 1
 47.2653643885 196.482770043 86.5183535237 329.168845228 105.323242188 429 c 1
 105.323242188 429 69.5820115916 425 60.646484375 424 c 1
 56.8017578125 482 l 1xc8
EndSplineSet
Substitution2: "case-1" T
Substitution2: "pcap-1" t.pcap
Substitution2: "smcp-1" t.smcp
EndChar
StartChar: u
Encoding: 117 117 20
Width: 545
VWidth: 1159
Flags: HMW
HStem: -18 56<294.047 386.116> -10 70<85.5471 175.547> 341 75<126.547 185.547> 387 20G<438.047 445.547>
AnchorPoint: "Ogonek" 436.791 23 basechar 0
AnchorPoint: "Bottom" 236.818 -15 basechar 0
AnchorPoint: "Top" 324.975 528 basechar 0
LayerCount: 2
Back
SplineSet
432.659179688 496 m 2
 443.833007812 501.563476562 474.978515625 504 489.595703125 504 c 1
 489.595703125 504 534.098632812 506.740234375 536.58203125 497 c 2
 536.709960938 495.57421875 l 1
 536.565429688 494.301757812 l 2
 524.435546875 387.52734375 464.833984375 343.1484375 436.268554688 170.965820312 c 0
 431.1015625 139.826171875 426.963867188 94.9833984375 427.662109375 74.2724609375 c 2
 427.676757812 73.9013671875 l 1
 427.66015625 73.4658203125 l 2
 427.259765625 71.330078125 429.798828125 70.583984375 429.813476562 70.5810546875 c 0
 429.907226562 70.712890625 430.141601562 71 430.666015625 71 c 0
 435.821289062 71 466.407226562 83.1572265625 506.249023438 127.931640625 c 2
 514.353515625 138.87890625 l 1
 523.669921875 130.216796875 l 1
 544.735351562 110.62890625 l 1
 552.342773438 103.555664062 l 1
 546.431640625 93.0537109375 l 2
 519.2421875 55.3310546875 487.439453125 28.65625 457.823242188 11.1982421875 c 0
 439.095703125 0.62890625 413.060546875 -9 385.90234375 -9 c 0
 343.633789062 -9 327.5390625 17.8544921875 324.591796875 45.341796875 c 0
 322.295898438 73.34765625 325.13671875 105.53515625 328.662109375 132.47265625 c 1
 276.127929688 77.7138671875 200.091796875 -8 128.216796875 -8 c 0
 92.8759765625 -8 64.390625 11.5830078125 55.578125 41 c 2
 55.4423828125 41.5361328125 l 1
 55.357421875 41 l 2
 49.8583984375 75.66015625 61.94921875 140.951171875 72.80078125 193.44140625 c 0
 88.4482421875 267.171875 114.915039062 333.854492188 123.203125 407.321289062 c 1
 105.224609375 388.981445312 79.4599609375 355.234375 68.796875 342.848632812 c 2
 59.9091796875 332.194335938 l 1
 50.7490234375 342.37109375 l 1
 33.1181640625 361.958984375 l 1
 27.44140625 368.265625 l 1
 31.49609375 378.014648438 l 2
 57.212890625 423.201171875 129.649414062 513 193.328125 513 c 0
 235.438476562 513 249.901367188 488.6484375 245.47265625 463.037109375 c 0
 241.1796875 392.763671875 211.756835938 381.788085938 179.287109375 218.989257812 c 0
 172.514648438 184.798828125 167.928710938 152.344726562 167.911132812 126.653320312 c 0
 167.884765625 95.43359375 177.44921875 84 194.674804688 84 c 0
 214.208984375 84 301.71875 170.388671875 350.833007812 243.375976562 c 1
 359.201171875 278.653320312 373.12109375 336.185546875 375.626953125 345.161132812 c 0
 383.9609375 375.623046875 396.630859375 422.061523438 407.502929688 450.883789062 c 0
 414.62890625 469.622070312 423.124023438 485.654296875 427.981445312 496 c 2
 429.51953125 494.096679688 l 1
 432.659179688 496 l 2
EndSplineSet
Fore
SplineSet
427.283203125 496 m 1x60
 434.021088488 499.200195312 476.280169634 504 492 504 c 1
 518.885985898 504 536.272787986 503 537.045898438 497 c 1
 525.523098399 395.146874999 467.042099504 348.412733409 436.833007812 172.921875 c 0
 431.532427233 142.129706689 427.318571886 99.0204491047 428.073242188 77.4658203125 c 1
 427.936057069 73.8219401042 429.01119516 72 431.0703125 72 c 3
 440.694424574 72 464.977706643 83.6035622188 495.90234375 117.640625 c 1
 535.967773438 79.0537109375 l 1
 507.011078769 44.3415600046 473.15429954 17.2535117853 442 4 c 0
 426.866641895 -2.43796018405 406.070581082 -9 385.306640625 -9 c 3x90
 343.723342093 -9 326.325800973 19.5967522174 324.948242188 45.341796875 c 0
 323.482304773 72.7385400101 326.272186403 106.301394314 328.140625 131.384765625 c 1
 282.518690712 81.8179911292 197.237226051 -8 128.62109375 -8 c 3
 93.0003409003 -8 64.6926527695 11 55.6162109375 41 c 1
 50.7641096444 71.960174076 61.5739849496 138.477627051 72.9619140625 191.040039062 c 0
 88.099356757 260.908800259 114.243651847 336.269493266 122.603515625 398.009765625 c 0
 122.977648332 400.772855535 125.380009541 401.789987664 120.69921875 402 c 1
 111.34347288 402 76.8649246913 352.56923077 66 339 c 1
 30.44140625 378.014648438 l 1
 57.9198320003 424.824084867 131.657519605 513 193.732421875 513 c 3
 236.62103264 513 249.130210779 491.29787234 243.9296875 462 c 1
 240.169219018 396.286026786 214.431860801 384.96967524 177.919921875 217.3203125 c 0
 156.071409819 125.215611004 169.782267083 94 191.079101562 94 c 3
 218.064753436 94 303.517809901 182.185457295 350.483398438 252.733398438 c 1
 358.156073308 281.760306442 373.447720303 338.017000958 375.61328125 345.161132812 c 0
 383.927761907 375.854807207 396.636443357 422.737189291 407.1484375 450.883789062 c 0
 413.979276921 469.17383952 422.22323926 485.025969726 427.283203125 496 c 1x60
EndSplineSet
Substitution2: "case-1" U
Substitution2: "pcap-1" u.pcap
Substitution2: "smcp-1" u.smcp
EndChar
StartChar: v
Encoding: 118 118 21
Width: 429
VWidth: 1159
Flags: HMW
HStem: 327 68<58.4914 165.923> 428 20G<399.923 430.923>
VStem: 392.923 59.0557<298.23 368.797>
AnchorPoint: "Bottom" 105.324 -15 basechar 0
AnchorPoint: "Top" 273.614 528 basechar 0
LayerCount: 2
Back
SplineSet
201.879882812 121.97265625 m 1
 359.694335938 270.080078125 371.294921875 342.178710938 371.294921875 434.653320312 c 0
 371.294921875 443.673828125 365.985351562 450.737304688 350.094726562 450.737304688 c 0
 347.180664062 450.737304688 347.950195312 450.815429688 343.819335938 450.129882812 c 2
 332.783203125 446.197265625 l 1
 328.586914062 464.141601562 l 1
 319.428710938 488.015625 l 1
 316.241210938 491.149414062 l 1
 323.26953125 496.611328125 l 2
 343.745117188 510.762695312 363.760742188 516.896484375 378.426757812 516.896484375 c 0
 441.319335938 516.896484375 470.853515625 481.65234375 470.853515625 434 c 0
 470.853515625 314.422851562 314.905273438 139.193359375 223.763671875 67.0029296875 c 0
 197.658203125 45.1611328125 160.889648438 13.7900390625 143.49609375 -11 c 2
 138.458007812 -13.5302734375 l 1
 130.240234375 -11 l 1
 107.34375 -3.951171875 l 1
 99.1162109375 -1.41796875 l 1
 98.8642578125 -3.4326171875 l 2
 95.0810546875 133.399414062 91.150390625 252.234375 91.150390625 389.904296875 c 0
 91.150390625 394.407226562 90.3837890625 404.891601562 89.1982421875 409.095703125 c 1
 76.603515625 404.05859375 57.134765625 387.21484375 46.1123046875 374.706054688 c 2
 36.9033203125 363.038085938 l 1
 27.5 374.390625 l 1
 8.0380859375 397.888671875 l 1
 1.4267578125 405.495117188 l 1
 8.36328125 413.197265625 l 2
 29.966796875 436.209960938 105.392578125 507.043945312 146.646484375 507.043945312 c 0
 188.192382812 507.043945312 194.853515625 475.889648438 194.853515625 450 c 0
 194.853515625 341.973632812 198.145507812 212.049804688 201.879882812 121.97265625 c 1
EndSplineSet
Fore
SplineSet
202 128 m 1
 344.145969906 262.226009751 368.44140625 369.038517646 368.44140625 430.653320312 c 3
 368.44140625 435.083633314 365.571643961 440.737304688 355.241210938 440.737304688 c 3
 345.639748575 440.737304688 340.725073812 439.650878905 329.9375 435.737304688 c 5
 313.779296875 486.611328125 l 1
 340.817328902 508.407048041 366.825463267 516.896484375 382.573242188 516.896484375 c 3
 438.302833648 516.896484375 471 483.700923274 471 434 c 3xa0
 471 319.313415527 315.499767337 144.258562484 228.344726562 67.0029296875 c 0
 203.413753113 44.9037130159 167.95596679 13.2375142995 149.916992188 -14 c 1
 99.0205078125 -1.951171875 l 1
 95.2612620555 132.178929461 91.296875 250.448534889 91.296875 385.904296875 c 3
 91.296875 387.888424821 91.0821891332 392.721679688 89.275390625 392.721679688 c 3
 82.3049461779 392.721679688 57.4877864613 373.387899519 46.888671875 359.69921875 c 1
 6.4267578125 411.197265625 l 1
 29.6642365244 435.483416494 107.59423207 507.043945312 146.79296875 507.043945312 c 3
 189.008360214 507.043945312 197 482.827187798 197 452 c 3
 197 343.17601924 199.371284094 212.954186499 202 128 c 1
EndSplineSet
Substitution2: "case-1" V
Substitution2: "pcap-1" v.pcap
Substitution2: "smcp-1" v.smcp
EndChar
StartChar: w
Encoding: 119 119 22
Width: 685
VWidth: 1159
Flags: HW
HStem: -12.8359 21G<38.5452 122.861 309.303 371.512> 412.055 98.9453<93.8194 179.993> 432 79.2686<545.753 636.75> 483.191 20G<377.099 452.376>
VStem: 103.017 111.593<274.567 412.036>
AnchorPoint: "Top" 419.633 537 basechar 0
AnchorPoint: "Bottom" 178.901 -15 basechar 0
LayerCount: 2
Back
SplineSet
272.981445312 -6.0205078125 m 1
 256.870117188 -1.2060546875 l 1
 257.16796875 -2.7080078125 l 2
 259.53125 69.7783203125 278.323242188 156.543945312 289.454101562 267.193359375 c 1
 239.114257812 161.216796875 170.169921875 47.763671875 71.150390625 -12 c 2
 65.35546875 -15.1357421875 l 1
 59.28125 -12 l 1
 36.7294921875 -0.3564453125 l 1
 28.369140625 3.9599609375 l 1
 30.685546875 5.74609375 l 2
 62.2138671875 136.067382812 91.7060546875 252.92578125 91.7060546875 381.165039062 c 0
 91.7060546875 387.422851562 89.7880859375 408.66796875 85.9150390625 413.1953125 c 1
 75.6669921875 411.147460938 53.744140625 392.02734375 41.9267578125 376.8828125 c 2
 33.32421875 363.118164062 l 1
 23.138671875 374.380859375 l 1
 2.076171875 397.668945312 l 1
 -5.1044921875 405.607421875 l 1
 1.9658203125 413.767578125 l 2
 22.86328125 436.564453125 87.111328125 511 145.729492188 511 c 0
 201.060546875 511 203.858398438 438.2890625 203.858398438 409.434570312 c 0
 203.858398438 374.239257812 189.70703125 253.671875 168.993164062 166.255859375 c 1
 201.118164062 211.880859375 241.26953125 281.607421875 286.791015625 373.798828125 c 0
 305.01953125 412.92578125 324.016601562 455.709960938 343.509765625 501.86328125 c 2
 346.413085938 501.41796875 l 1
 353.840820312 501.86328125 l 1
 392.709960938 504.19140625 l 1
 405.7265625 504.970703125 l 1
 405.424804688 503.63671875 l 2
 402.021484375 359.622070312 381.106445312 221.994140625 369.430664062 121.259765625 c 1
 439.948242188 197.045898438 523.46875 330.262695312 517.422851562 415.099609375 c 0
 516.129882812 426.615234375 509.186523438 433 503.516601562 433 c 0
 497.3515625 433 497.405273438 433.116210938 488.635742188 428.9453125 c 2
 480.069335938 422.385742188 l 1
 472.639648438 431.471679688 l 1
 453.642578125 451.471679688 l 1
 446.315429688 459.184570312 l 1
 453.095703125 468 l 2
 480.217773438 497.799804688 508.772460938 511.268554688 530.524414062 511.268554688 c 0
 591.8984375 511.268554688 616.185546875 468.283203125 620.0234375 414.638671875 c 0
 628.961914062 279.099609375 484.606445312 134.72265625 398.997070312 67.1416015625 c 0
 367.499023438 41.0322265625 321.594726562 13.1708984375 301.688476562 -10.8359375 c 2
 296.616210938 -13.083984375 l 1
 289.091796875 -10.8359375 l 1
 272.981445312 -6.0205078125 l 1
EndSplineSet
Fore
SplineSet
696.625976562 414.638671875 m 0xa8
 705.283203125 282.192382812 561.814453125 137.232421875 464.995117188 67.1416015625 c 0
 429.981445312 41.7939453125 381.424804688 6.056640625 361.616210938 -12.8359375 c 1
 309.311523438 -1.849609375 l 1
 308.411132812 69.7451171875 323.8359375 159.856445312 333.212890625 287 c 1
 294.294921875 210.064453125 164.146484375 20.5966796875 81.5927734375 -15 c 1
 38.5537109375 3.6435546875 l 1
 63.92578125 132.67578125 103.009765625 332.991210938 103.025390625 381.165039062 c 0
 103.02734375 386.87109375 103.2578125 412.0546875 94.5419921875 412.0546875 c 3
 79.53125 412.0546875 57.1875 387.713867188 45.357421875 370.479492188 c 1
 10.294921875 413.767578125 l 1
 32.935546875 438.405273438 99.17578125 511 151.0703125 511 c 3xc8
 208.932617188 511 214.618164062 447.127929688 214.618164062 411.434570312 c 0
 214.618164062 373.50390625 182.666015625 212.911132812 161.8828125 141 c 1
 197.279296875 187.438476562 280.529296875 306.911132812 377.107421875 500.86328125 c 1
 450.5703125 503.19140625 l 1x98
 454.198242188 353.826171875 433.270507812 212.016601562 426.801757812 115 c 1
 500.213867188 176.478515625 603.853515625 322.639648438 593.97265625 416.755859375 c 0
 593.26953125 423.453125 589.485351562 432 576.96484375 432 c 3
 566.102539062 432 560.845703125 430.043945312 549.721679688 423 c 1
 524.081054688 477 l 1
 554.591796875 501.662109375 586.3203125 511.268554688 606.102539062 511.268554688 c 3
 667.4140625 511.268554688 692.834960938 472.634765625 696.625976562 414.638671875 c 0xa8
EndSplineSet
Substitution2: "case-1" W
Substitution2: "pcap-1" w.pcap
Substitution2: "smcp-1" w.smcp
EndChar
StartChar: x
Encoding: 120 120 23
Width: 520
VWidth: 1159
UnlinkRmOvrlpSave: 1
Flags: HW
HStem: -10 103<28.0413 108.316> -9.83984 90.8398<302.517 413.3> 409 100<133.861 241.586 399.746 463.847>
VStem: -0.625318 61.2402<93.2887 117> 41.0866 60.5586<344.292 370.369> 464.019 58.5957<385.72 405.51>
AnchorPoint: "Top" 332.615 537 basechar 0
AnchorPoint: "Bottom" 198.524 -15 basechar 0
LayerCount: 2
Back
SplineSet
42.6474609375 125.3515625 m 2
 70.59375 95.171875 84.8984375 87.646484375 89.244140625 87.431640625 c 0
 108.846679688 93.833984375 183.30078125 199.82421875 216.213867188 243.838867188 c 1
 199.955078125 317.0703125 184.250976562 417.576171875 154.291015625 417.576171875 c 0
 131.482421875 417.576171875 108.153320312 375.961914062 87.6875 335.872070312 c 2
 80.15234375 324.979492188 l 1
 68.0673828125 337.896484375 l 1
 49.5087890625 349.53515625 l 1
 44.9208984375 354.439453125 l 1
 46.701171875 365.931640625 l 2
 72.380859375 453.909179688 119.5703125 509 205.799804688 509 c 0
 270.364257812 509 280.305664062 401.73046875 287.486328125 344.130859375 c 1
 350.334960938 462.580078125 403.70703125 506 447.681640625 506 c 0
 493.793945312 506 534.650390625 461.708984375 535.93359375 433.034179688 c 0
 536.424804688 418.188476562 532.637695312 404.0390625 525.846679688 391.521484375 c 2
 521.729492188 379.552734375 l 1
 514.106445312 380.580078125 l 1
 486.510742188 384.299804688 l 1
 482.34375 384.861328125 l 1
 479.438476562 391.502929688 l 2
 471.576171875 397.043945312 463.383789062 399.15625 453.375 399.15625 c 0
 385.588867188 399.15625 344.314453125 312.202148438 302.427734375 258.899414062 c 1
 358.099609375 100.639648438 371.314453125 76 400.182617188 76 c 0
 406.044921875 76 425.219726562 97.0107421875 451.8046875 135.272460938 c 2
 459.603515625 149.838867188 l 1
 470.17578125 139.848632812 l 1
 493.791015625 117.532226562 l 1
 500.905273438 110.80859375 l 1
 495.749023438 100.087890625 l 2
 461.34765625 47.310546875 419.811523438 -9.83984375 349.090820312 -9.83984375 c 0
 252.538085938 -9.83984375 252.505859375 108.811523438 240.055664062 172.094726562 c 1
 137.857421875 27.5029296875 130.5703125 -10 52.1259765625 -10 c 0
 -1.0341796875 -10 -15.44921875 28.4541015625 -16.75390625 58.919921875 c 0
 -17.369140625 76.7841796875 -12.7529296875 96.9072265625 -1.935546875 125.248046875 c 2
 2.0087890625 142.051757812 l 1
 12.1533203125 139.45703125 l 1
 36.3935546875 133.258789062 l 1
 40.1611328125 132.294921875 l 1
 42.6474609375 125.3515625 l 2
EndSplineSet
Fore
SplineSet
306.903320312 274 m 1x6c
 351.231445312 119.233398438 363.537109375 81 387.998046875 81 c 3
 398.989257812 81 424.142578125 112.907226562 448.749023438 153.404296875 c 1
 501.364257812 111.087890625 l 1
 462.823242188 49.45703125 419.72265625 -9.83984375 349.90625 -9.83984375 c 3
 255.12890625 -9.83984375 244.171875 124.525390625 227.615234375 198 c 1
 227.413085938 198.883789062 217.928710938 234.0859375 217.615234375 236 c 1
 203.482421875 299.637695312 187.462890625 409 159.615234375 409 c 3
 139.16015625 409 115.875976562 360.008789062 101.645507812 324.094726562 c 1
 41.0869140625 346.931640625 l 1
 69.28515625 450.474609375 117.94921875 509 206.615234375 509 c 3
 276.556640625 509 280.80078125 394.77734375 296.219726562 320 c 1
 296.643554688 317.565429688 306.568359375 274.79296875 306.903320312 274 c 1x6c
252.383789062 190 m 1
 133.233398438 24.390625 131.487304688 -10 55.94140625 -10 c 3
 0.1416015625 -10 -15.798828125 24.7216796875 -16.947265625 58.919921875 c 0
 -17.552734375 76.9677734375 -12.9736328125 99.0234375 -0.625 132.19921875 c 1
 60.615234375 117 l 1
 58.8837890625 100.260742188 74.01171875 93 83.615234375 93 c 3xb4
 98.7578125 93 182.186523438 208.577148438 215.615234375 255 c 1
 216.610351562 256.286132812 270.672851562 321.038085938 271.705078125 323 c 1
 344.366210938 432.552734375 384.529296875 506 444.497070312 506 c 3
 497.875 506 534.854492188 459.61328125 535.7578125 433.034179688 c 0
 536.376953125 414.815429688 529.876953125 397.369140625 522.615234375 381 c 1
 464.01953125 385.719726562 l 1
 463.932617188 399.8125 455.629882812 406 450.615234375 406 c 3
 394.806640625 406 364.450195312 352.896484375 297.615234375 252 c 1
 296.780273438 250.973632812 253.256835938 191.130859375 252.383789062 190 c 1
EndSplineSet
Substitution2: "smcp-1" x.smcp
Substitution2: "pcap-1" x.pcap
Substitution2: "case-1" X
EndChar
StartChar: y
Encoding: 121 121 24
Width: 449
VWidth: 1159
Flags: HMW
HStem: 388 20G<110.877 124.418>
VStem: 31.8778 22<273 332.219>
AnchorPoint: "Top" 316 537 basechar 0
AnchorPoint: "Bottom" 148.601 -146.934 basechar 0
LayerCount: 2
Back
SplineSet
115.155273438 -173 m 1
 37.306640625 -173 l 2
 -7.080078125 -173 -14.90625 -172.99609375 -49.322265625 -174.084960938 c 2
 -65.017578125 -174.579101562 l 1
 -61.3720703125 -168.512695312 l 1
 -61.3720703125 -168.512695312 -55.9755859375 -146.509765625 -55.9755859375 -143.698242188 c 2
 -55.9755859375 -123.03125 l 1
 -47.2021484375 -120.58203125 l 2
 2.5869140625 -107.087890625 63.15234375 -77.166015625 143.456054688 31.94140625 c 1
 154.239257812 79.6259765625 158.662109375 137.466796875 158.662109375 194.263671875 c 0
 158.662109375 284.24609375 125.869140625 402.361328125 102.844726562 409.302734375 c 1
 93.9541015625 402.86328125 74.595703125 373.7421875 64.1240234375 349.440429688 c 2
 58.2939453125 329.16796875 l 1
 45.5234375 339.174804688 l 1
 21.98046875 357.624023438 l 1
 14.7607421875 363.28125 l 1
 18.3251953125 376.514648438 l 2
 52.205078125 452.659179688 109.099609375 510 148.290039062 510 c 0
 222.318359375 510 254.70703125 450.072265625 254.70703125 316.2734375 c 0
 254.70703125 275.678710938 253.126953125 229.549804688 250.875 184.930664062 c 1
 317.53125 306.982421875 354.520507812 391.977539062 384.267578125 507.27734375 c 2
 386.846679688 508.407226562 l 1
 397.196289062 507.27734375 l 2
 401.208007812 506.834960938 468.9375 502.493164062 480.145507812 501.8515625 c 2
 483.952148438 501.635742188 l 1
 486.936523438 501.8515625 l 2
 502.536132812 490.634765625 485.981445312 469.990234375 481.133789062 460.40234375 c 0
 470.736328125 437.486328125 455.120117188 410.337890625 451.522460938 403.145507812 c 0
 433.307617188 368.021484375 319.626953125 198.9296875 219.703125 20 c 0
 194.53125 -26.55859375 142.790039062 -136.301757812 126.068359375 -173 c 2
 122.862304688 -173 l 1
 115.155273438 -173 l 1
EndSplineSet
Fore
SplineSet
125.864257812 -173 m 1
 122.810546875 -173 69.3583984375 -173 22.015625 -173 c 1
 -21.2890625 -173 -29.30859375 -173 -62.9912109375 -174.084960938 c 1
 -62.9912109375 -174.084960938 -57.2666015625 -139.495117188 -55.2666015625 -123.698242188 c 1
 -2.5849609375 -101.845703125 60.802734375 -75.51171875 143.358398438 43 c 1
 154.024414062 87.2822265625 158.37109375 141.530273438 158.37109375 194.263671875 c 3
 158.37109375 280.130859375 124.017578125 407.881835938 104.427734375 407.881835938 c 3
 94.3671875 407.881835938 72.5224609375 371.143554688 60.8642578125 341 c 1
 17.0908203125 374.514648438 l 1
 53.4423828125 455.208984375 111.48828125 510 145.999023438 510 c 3
 218.24609375 510 254.416015625 458.829101562 254.416015625 316.2734375 c 3
 254.416015625 279.560546875 255.33203125 237.780273438 251.864257812 196 c 1
 316.780273438 318.958984375 355.930664062 426.278320312 383.602539062 507.27734375 c 1
 390.409179688 506.720703125 479.708984375 502.508789062 495.174804688 501.8515625 c 1
 498.021484375 499.587890625 493.151367188 486.181640625 485.928710938 470.37890625 c 0
 475.837890625 448.298828125 460.57421875 421.830078125 456.514648438 413.946289062 c 0
 438.854492188 379.642578125 324.381835938 205.215820312 219.864257812 20 c 0
 193.552734375 -26.6279296875 142.708984375 -136.172851562 125.864257812 -173 c 1
EndSplineSet
Substitution2: "case-1" Y
Substitution2: "pcap-1" y.pcap
Substitution2: "smcp-1" y.smcp
EndChar
StartChar: z
Encoding: 122 122 25
Width: 394
VWidth: 1159
Flags: HMW
HStem: -79 29<283.571 314.227> 399 20G<145.175 160.675>
VStem: 319.175 68<-39.3516 32.8313>
AnchorPoint: "Bottom" 206.332 -6.18966 basechar 0
AnchorPoint: "Top" 281.245 528 basechar 0
LayerCount: 2
Back
SplineSet
111.596679688 27.4306640625 m 0
 83.3671875 27.4306640625 46.29296875 4.4775390625 30.9638671875 -2.8271484375 c 2
 28.5791015625 -2.8271484375 l 1
 25.955078125 -2.8271484375 l 2
 2.740234375 -2.8271484375 -13.76953125 18.1923828125 -15.6025390625 27.6162109375 c 2
 -15.8759765625 34.8359375 l 1
 -14.373046875 38.0361328125 l 2
 35.6181640625 138.2890625 111.672851562 194.009765625 267.920898438 370.3984375 c 1
 258.241210938 370.10546875 249.8515625 370.446289062 240.854492188 371.640625 c 0
 206.374023438 377.392578125 168.581054688 393.989257812 145.38671875 402.390625 c 1
 128.251953125 392.758789062 118.388671875 378.989257812 100.615234375 356.649414062 c 2
 97.021484375 346.775390625 l 1
 90.9140625 346.775390625 l 2
 77.36328125 346.775390625 59.0400390625 348.7578125 57.6171875 379.151367188 c 0
 55.16015625 410.858398438 128.2890625 510.862304688 159.899414062 510.862304688 c 2
 163.060546875 510.862304688 l 1
 165.811523438 510.862304688 l 2
 181.163085938 501.783203125 194.211914062 480.625976562 256.103515625 474.991210938 c 0
 342.626953125 468.322265625 372.151367188 473.65625 391.249023438 492.930664062 c 2
 400.514648438 500.806640625 l 1
 408.266601562 492.930664062 l 1
 421.24609375 477.241210938 l 1
 426.05859375 471.424804688 l 1
 422.897460938 467.194335938 l 2
 355.267578125 326.92578125 206.061523438 229.650390625 121.000976562 98.3681640625 c 1
 127.486328125 99.130859375 133.485351562 99.4794921875 139.456054688 99.4794921875 c 0
 253.84765625 99.4794921875 284.463867188 -13.5693359375 353.924804688 -13.5693359375 c 0
 363.13671875 -13.5693359375 392.70703125 -5.1005859375 394.400390625 -1.31640625 c 2
 396.72265625 16.689453125 l 1
 406.020507812 16.689453125 l 2
 411.116210938 16.689453125 431.108398438 22.19921875 432.19921875 -8.8349609375 c 0
 437.146484375 -63.7490234375 382.625 -117 303.216796875 -117 c 0
 218.043945312 -117 167.306640625 27.4306640625 111.596679688 27.4306640625 c 0
EndSplineSet
Fore
SplineSet
110.403320312 27.4306640625 m 3
 77.3143782451 27.4306640625 35.4989826971 -5.30884258563 24.76171875 -3.8271484375 c 1
 7.49426241439 -3.8271484375 -15.107954934 15.7712311922 -15.8759765625 33.4306640625 c 1
 36.1812352736 146.046177943 108.067794384 186.002517756 272 377 c 5
 266.925181986 376.493489583 256.225081712 376.366861979 248.40625 376.620117188 c 1
 214.491086034 382.22366769 174.398543932 400.155029297 151 408 c 1
 130.88368954 396.772265625 121.059061011 380.441015625 104.760742188 356.96484375 c 1
 76.6785446619 356.96484375 68.6550596544 365.96484375 67.3935546875 390.862304688 c 1
 65.0586654499 418.879546065 137.346576591 520.862304688 172.706054688 520.862304688 c 1
 189.084198934 514.138122559 202.403362667 490.603485107 264 485 c 1
 341.418912131 476.875000001 371.714220749 481.750000001 393 511 c 1
 435.806640625 482.241210938 l 1
 358.54365825 325.94265399 187.092902448 210.957767373 121.26171875 97.017578125 c 1
 128.54876918 98.7206012022 135.178036663 99.4794921875 141.262695312 99.4794921875 c 3
 250.465245586 99.4794921875 283.998688915 -8.5693359375 354.731445312 -8.5693359375 c 3
 372.727998318 -8.5693359375 396.243977881 -3.17190139016 397.827148438 16.689453125 c 1
 420.807121859 16.689453125 431.79396612 2.56295077009 432.036132812 -10.6728515625 c 1
 436.84521329 -63.2098753127 383.483569832 -117 301.0234375 -117 c 3
 220 -117 169.00158259 27.4306640625 110.403320312 27.4306640625 c 3
EndSplineSet
Substitution2: "case-1" Z
Substitution2: "pcap-1" z.pcap
Substitution2: "smcp-1" z.smcp
EndChar
StartChar: asciitilde
Encoding: 126 126 340
Width: 533
Flags: W
HStem: 193.834 93.2461<249.174 315.835> 263.292 92.498<115.244 189.066>
LayerCount: 2
Fore
SplineSet
28.2340700037 246.486557305 m 1x40
 75.8487109332 311.596025848 163.72691726 371.790039062 175.525390625 371.790039062 c 3x40
 222.976294276 371.790039062 323.535521269 277.080078125 369.662109375 277.080078125 c 3
 385.61600766 277.080078125 429.236640271 312.891693149 452.19921875 352.771484375 c 1
 504.33203125 310.140625 l 1
 462.663603563 250.276535757 386.111177026 177.833984375 365.41796875 177.833984375 c 3x80
 320.266328123 177.833984375 205.589267287 273.291992188 162.959960938 273.291992188 c 3
 143.886823288 273.291992188 98.6078486257 230.195004649 78.5592214391 203.283021586 c 1
 28.2340700037 246.486557305 l 1x40
EndSplineSet
Position2: "cpsp-1" dx=0 dy=0 dh=10 dv=20
Position2: "'case' vertical ajustments for all-caps-1" dx=0 dy=90 dh=0 dv=0
EndChar
StartChar: uni0080
Encoding: 128 128 1449
Width: 436
VWidth: 1159
Flags: W
HStem: -9 58<119.119 232.592> 347 56<245.651 326.02>
VStem: 348.843 70.1571<192.971 323.898>
AnchorPoint: "Top" 269 749 basechar 0
AnchorPoint: "Bottom" 166 -15 basechar 0
LayerCount: 2
Fore
SplineSet
133 240 m 1
 120.611280488 190.914110429 109.771150915 153.515337423 101.25390625 113 c 1
 101.25390625 99 101.25390625 91 105.25390625 85 c 0
 119.25390625 64 152.25390625 49 186.25390625 49 c 3
 265.274978508 49 348.842895935 137.711105401 348.842895935 254.864848442 c 3
 348.842895935 313.650673258 326.738648359 357 282 357 c 3
 227.404580153 357 168.740495759 291.084507042 133 240 c 1
151.25390625 699 m 1
 165.25390625 720 197.25390625 737 229.25390625 754 c 1
 257.25390625 734 272.25390625 708 286.25390625 683 c 1
 246.522187962 655.285714286 207.054184745 529.505494505 145 295 c 1
 169.894117647 325.904761905 264.058823529 413 329 413 c 3
 382.723787767 413 419.000042994 355.814474293 419.000042994 287.09904658 c 3
 419.000042994 144.262741321 263.500271222 -9 155.25390625 -9 c 3
 96.25390625 -9 86 14.9999999999 64.25390625 20 c 0
 49.8258513959 23.317390015 32.25390625 26 26.25390625 25 c 1
 12.25390625 39 l 1
 57.3508550303 168.290846341 126.000000001 461 143.106380923 538.999995344 c 0
 151.731791852 578.329296812 155.25390625 613.137376634 155.25390625 640 c 3
 155.25390625 659.865549112 153.733450853 681.023301632 151.25390625 699 c 1
EndSplineSet
Validated: 33
EndChar
StartChar: uni0081
Encoding: 129 129 1450
Width: 436
VWidth: 1159
Flags: W
HStem: -9 58<119.119 232.592> 347 56<245.651 326.02>
VStem: 348.843 70.1571<192.971 323.898>
AnchorPoint: "Top" 269 749 basechar 0
AnchorPoint: "Bottom" 166 -15 basechar 0
LayerCount: 2
Fore
SplineSet
142.25390625 276 m 1
 126.25390625 213 112.25390625 165 101.25390625 113 c 1
 101.25390625 99 101.25390625 91 105.25390625 85 c 0
 119.25390625 64 152.25390625 49 186.25390625 49 c 3
 265.274978508 49 348.842895935 137.711105401 348.842895935 254.864848442 c 3
 348.842895935 307.894983476 323.8464065 347 273.25390625 347 c 3
 225.25390625 347 163.25390625 307 142.25390625 276 c 1
151.25390625 699 m 1
 165.25390625 720 197.25390625 737 229.25390625 754 c 1
 257.25390625 734 272.25390625 708 286.25390625 683 c 1
 248 657 210 539 150.25390625 319 c 1
 173.25390625 341 260.25390625 403 320.25390625 403 c 3
 379.198505794 403 419.000042994 350.356578555 419.000042994 287.09904658 c 3
 419.000042994 144.262741321 263.500271222 -9 155.25390625 -9 c 3
 96.25390625 -9 86 15 64.25390625 20 c 0
 49.8258513959 23.317390015 32.25390625 26 26.25390625 25 c 1
 12.25390625 39 l 1
 57.3508550303 168.290846341 126 461 143.106380923 538.999995344 c 0
 151.731791852 578.329296812 155.25390625 613.137376634 155.25390625 640 c 3
 155.25390625 659.865549112 153.733450853 681.023301632 151.25390625 699 c 1
EndSplineSet
Validated: 33
EndChar
StartChar: uni0084
Encoding: 132 132 1453
Width: 400
VWidth: 1159
Flags: W
HStem: -6 21G<-2.5 0> 372.562 46.4375<247.867 339.466> 661 28<71.25 113.112> 749 20G<212 251>
VStem: -3 70<-5 81.6634> 316.899 68.0957<292.691 368.052>
AnchorPoint: "Top" 234 749 basechar 0
AnchorPoint: "Bottom" 149 -15 basechar 0
LayerCount: 2
Fore
SplineSet
67 -5 m 1
 61 -5 36 -5 29 -5 c 0
 23 -5 3 -6 -3 -6 c 1
 -2 50.87109375 64.1387022726 197.849516867 83 273 c 0
 147 528 149.875502527 610.991959573 148 641 c 0
 147 657 141 669 124 669 c 3
 119 669 81 662 72 661 c 1
 69 689 l 1
 121 700 189 735 235 769 c 1
 251 752 l 1
 239.424472033 610.632300455 105.439203826 203.750737273 67 -5 c 1
160 224 m 1
 223.146778281 242.481459885 316.899414062 281.513956938 316.899414062 336.72265625 c 3
 316.899414062 357.671875 296.88671875 372.5625 277.14453125 372.5625 c 3
 232.133789062 372.5625 164.78125 312.709960938 116 212 c 1
 105 237 l 1
 149.820864454 335.55073137 242.897243681 419 319 419 c 3
 359.932617188 419 384.995117188 386.326171875 384.995117188 351.640625 c 3
 384.995117188 272.609114851 293.594726562 230.582672024 215 212 c 1
 193.565506719 172.296028881 241 66.4187725632 409 -70 c 1
 404.162109375 -86.9326171875 364.880859375 -97.51953125 344 -101 c 1
 288.884026054 -70.703125834 185.714338074 50 156.583989321 167.999995845 c 0
 152.093886437 186.188316423 151 214.184011026 160 224 c 1
EndSplineSet
Validated: 37
EndChar
StartChar: uni008F
Encoding: 143 143 1436
Width: 689
VWidth: 1159
Flags: W
HStem: -11 41<169 247.388> -5 42<379.234 447> 649 39<122.946 171.89 299.248 360 563.029 604.562 704.962 783>
AnchorPoint: "Top" 444 699 basechar 0
AnchorPoint: "Bottom" 315 -15 basechar 0
LayerCount: 2
Fore
SplineSet
360 649 m 1xa0
 360 649 337 649 325 649 c 0
 308 649 290.8984375 636.963867188 297 620 c 0
 347 483.288085938 406 386.901367188 410 381 c 1
 499 485.5 585.465820312 585.603515625 589 590 c 0
 605 610 615.615234375 633.192382812 594 644 c 0
 584 649 568 650 553 654 c 1
 564 692 l 1
 597 686 728 675 793 691 c 1
 783 648 l 1
 723 646 693.059570312 627.9296875 661 601 c 0
 586 538.248046875 495 429.676757812 429 348 c 1
 416.307617188 296.431640625 398.258789062 242.5546875 374 85 c 0
 368 46 386 41 461 37 c 1
 447 -5 l 1x60
 355 9 272 15 169 -11 c 1
 169 30 l 1
 245 42 283.646484375 57.087890625 295 105 c 2
 344 311 l 1
 339 321.852539062 281.916015625 472.883789062 200 606 c 0
 183 634 161 635 111 651 c 1
 124 690 l 1
 176 684 309 677 366 688 c 1
 360 649 l 1xa0
EndSplineSet
Validated: 33
EndChar
StartChar: uni0091
Encoding: 145 145 1438
Width: 637
VWidth: 1159
Flags: W
HStem: -33 37<525.05 563.625> -10 44<-28.6699 42.3956 161.715 211.377> 301.094 38.9062<209.864 323.702> 656 37<131.637 185.529> 665 42<305.898 449.491>
LayerCount: 2
Fore
SplineSet
209.864257812 345 m 1x28
 250.614257812 344 270.6171875 340 311.6171875 340 c 3
 443.030273438 340 493.649414062 429.618164062 502.122070312 480 c 0
 513.856445312 549.77734375 484.44140625 665 391.65625 665 c 3
 360.65625 665 296.084960938 657.93359375 281.189453125 615 c 0
 253.06640625 533.940429688 228.086914062 426.059570312 209.864257812 345 c 1x28
131.63671875 693 m 1x70
 174.387695312 692 199.138671875 691 242.138671875 691 c 3
 311.138671875 691 344.127929688 707 423.127929688 707 c 3
 537.409179688 707 618.654296875 606.885742188 591.864257812 491 c 0
 571.451171875 402.700195312 493.1015625 340.330078125 418.40625 317.09375 c 1
 456.342773438 129.8046875 481.836914062 5.8916015625 579.850585938 4 c 5
 563.625 -33 l 5xa8
 419.422851562 -37.7060546875 342.909179688 141.10546875 326.416992188 301.09375 c 1
 300.262695312 297.09375 247.947265625 302.21875 199.890625 305 c 1
 183.447265625 217.584960938 171.436523438 154.671875 157.048828125 81 c 0
 149.823242188 44 173.576171875 39 227.330078125 34 c 1
 208.359375 -10 l 1
 132.59765625 7 53.0966796875 9 -31.892578125 -7 c 1
 -28.669921875 34 l 1
 24.828125 36 40.3271484375 38 52.056640625 69 c 1
 119.900390625 301 142.8359375 397 188.696289062 605 c 1
 192.920898438 642 184.913085938 654 122.412109375 656 c 1
 131.63671875 693 l 1x70
EndSplineSet
Validated: 33
EndChar
StartChar: uni0092
Encoding: 146 146 1439
Width: 492
VWidth: 1159
Flags: W
HStem: -11 73<318.5 374.755> 346 65<295.711 391.5>
VStem: 33 17<275.412 284.988> 49 65<0 38.5218>
AnchorPoint: "Bottom" 206 -15 basechar 0
AnchorPoint: "Top" 304 465 basechar 0
LayerCount: 2
Fore
SplineSet
116 268 m 1xd0
 123 291 110 327 95 327 c 3
 85 327 59 297 50 266 c 1
 33 282 l 1xe0
 51 346 121 393 163 413 c 1
 173 411 184.152923188 400.541230437 188 389 c 0
 190.349399914 381.951800259 193.043779824 366.969060585 193.043779824 347.496388872 c 3
 193.043779824 329.869373925 185.430648143 289.928940223 174 257 c 1
 211.253783684 311.8 296.197674419 411 360 411 c 3
 423 411 425.479541107 345.03382196 408 279 c 0
 390 211 374.584992799 171.075959675 366 123 c 0
 361 95 355 62 372 62 c 3
 381 62 399.955351004 79.1941887549 415 98 c 0
 427 113 440 130 446 137 c 1
 463 121 l 1
 447 90 426.071337695 59.0713376952 398 31 c 0
 378 11 347 -9 324 -9 c 3
 313 -9 305.314822283 0.513883287652 301 6 c 0
 297.041572097 11.0329761111 292 20 290 25 c 1
 286 35 285.453219356 49.9708258418 286 62 c 0
 287 84 300.593069324 126.813051364 306 145 c 0
 317 182 338.125817169 243.965523525 343 262 c 0
 353 299 349 346 313 346 c 3
 257.932835821 346 207.986754967 272.044444444 156 190 c 1
 144.846153846 156.153846154 130.018798953 107.131592672 127 86 c 0
 126 79 124.280624847 70.9643739323 123 62 c 0
 122 55 119.6401844 43.0420283963 119 36 c 0
 118 25 115 12 114 0 c 1
 109 0 79 0 77 0 c 1
 75 0 51 0 49 0 c 1
 47 6 49 29 49 39 c 1
 49 44 52 60 52 62 c 0
 52 67 57.696159519 86.0884785569 59 90 c 0
 64 105 92 182 98 200 c 1
 119 266 111 246 116 268 c 1xd0
EndSplineSet
Validated: 33
EndChar
StartChar: uni0097
Encoding: 151 151 1443
Width: 339
VWidth: 1159
Flags: W
HStem: 406 20G<315 335.5> 413 20G<147 173 315 335.5>
VStem: 37 19<295.105 306.953> 48 68<0 66.3041>
AnchorPoint: "Bottom" 101 -15 basechar 0
AnchorPoint: "Top" 224 465 basechar 0
LayerCount: 2
Fore
SplineSet
165 188 m 0xa0
 154 142 146.616025597 108.080127983 142 85 c 0
 140 75 138.801616784 66.8056587436 136 57 c 0
 134 50 130.487927053 38.8417993962 128 32 c 0
 124 21 121 11 116 0 c 1
 111.999999487 0.555916599298 84.0000000343 -2.03721213822 78 -2 c 1
 72 -2 52 -3 48 1 c 1x90
 48 8 54 30 55 34 c 0
 56 38 59.1560911085 55.3121822171 61 59 c 0
 62 61 66.0388386486 80.2932127567 68 85 c 0
 73 97 93.6524459367 169.440399373 107 208 c 0
 116 234 121 266 122 288 c 1
 123 321 115 347 100 347 c 3
 90 347 65 316 56 285 c 1
 37 301 l 1
 58.3129770992 361.606060606 122.603053435 407.060606061 163 426 c 1x60
 189.923301685 421.492036324 199.851927763 397.630503458 199.851927763 365.287501601 c 0
 199.851927763 352.484884919 198.336088907 337.347553582 194 321 c 1
 236.015267176 373.457142857 302.458015267 418.142857143 322 423 c 1
 344.615384615 417.910714286 368.307692308 392.464285714 364 366 c 1
 359.876923077 345 328.953846154 305 297 295 c 1
 292 316.818181818 277 343 265 343 c 3
 251.373333333 343 202.640638977 312.673014759 192 283 c 0
 178 245 169.121207838 205.234141869 165 188 c 0xa0
EndSplineSet
Validated: 33
EndChar
StartChar: uni0098
Encoding: 152 152 1445
Width: 491
VWidth: 1159
Flags: W
HStem: -18 56<288.5 380.569> -10 70<80 170> 341 75<121 180> 387 20G<432.5 440>
AnchorPoint: "Ogonek" 378 23 basechar 0
AnchorPoint: "Bottom" 200 -15 basechar 0
AnchorPoint: "Top" 319 465 basechar 0
LayerCount: 2
Fore
SplineSet
393 399 m 1x60
 397.891304348 402.2 427.239130435 407 438 407 c 1
 442 407 468 406 468 400 c 1
 452 323 400.336025288 287.91364628 366 155 c 0
 359 127.903225806 352 89.9677419355 351 71 c 1
 349 55 353 47 362 47 c 3
 373 47 402 61.2372881356 441 103 c 1
 458 87 l 1
 432 51.3875 403.10154934 26.3134683374 377 10 c 0
 361 -1.95997731933e-14 339 -9 318 -9 c 3x90
 288.297094453 -9 279.123712156 12.1274531995 279.123712156 39.4436158633 c 3
 279.123712156 72.1220775719 289.172394133 112.102973039 297 142 c 1
 249.534653465 98.343283582 158.643564356 -8 93 -8 c 3
 67 -8 48 11 44 41 c 1
 42 66.5873015873 56.8496150977 121.439350011 70 165 c 0
 86 218 109.836873887 266.184369435 121 322 c 0
 123 332 125 340 121 341 c 1
 110 341 65 290 51 276 c 1
 37 292 l 1
 63 335 133 416 180 416 c 3
 210 416 217 396 211 369 c 1
 204 322 180.160776296 312.876910333 145 194 c 0
 124 123 115 60 157 60 c 3
 184.56 60 267.24 141.111111111 316 206 c 1
 325.230769231 234.892561983 343.259895176 290.954016167 346 298 c 0
 353 316 364.249925633 343.328576926 372 360 c 0
 379.35 375.810810811 387.75 389.513513514 393 399 c 1x60
EndSplineSet
Validated: 33
EndChar
StartChar: uni009C
Encoding: 156 156 1454
Width: 420
VWidth: 1159
Flags: W
HStem: -79 29<283.396 314.052> 399 20G<145 160.5>
VStem: 319 68<-39.3516 32.8313>
AnchorPoint: "Bottom" 179 -15 basechar 0
AnchorPoint: "Top" 283 465 basechar 0
LayerCount: 2
Fore
SplineSet
249 -54 m 0
 179 10 115 22 71 5 c 1
 57 1 28 -10 11 -12 c 1
 0 -12 -13 8 -13 15 c 1
 46.5263671875 106.29296875 133.294921875 156.661132812 326 334 c 1
 312 330 283 329 262 331 c 1
 218 336 167 352 137 359 c 1
 116 348 105 332 87 309 c 1
 73 309 69 309 69 318 c 1
 69 343 140 434 156 434 c 1
 171 428 194 407 278 402 c 1
 364 397 398 400 423 418 c 1
 435 404 l 1
 357.3046875 282.458984375 193.840820312 199.684570312 100 75 c 1
 173 86 219.689453125 25.6943359375 273 -20 c 0
 287 -32 309 -56 323 -56 c 3
 336.88671875 -56 340.670898438 -45.1669921875 334.6953125 -34 c 0
 329.545898438 -24.3759765625 318 -21.708984375 318 -4 c 3
 318 13.625 336.514648438 30 354 30 c 3
 382.63671875 30 396 2.12890625 396 -24 c 3
 396 -56.1171875 367.01171875 -89 326 -89 c 3
 296.25 -89 269.265625 -72.5283203125 249 -54 c 0
EndSplineSet
Validated: 33
EndChar
StartChar: uni009D
Encoding: 157 157 1455
Width: 422
VWidth: 1159
Flags: W
HStem: -10 41<144.157 237.848> 373 46<187.586 285.076>
VStem: 30 77.0654<70.1548 252.035> 318.209 75.4111<156.906 336.421>
AnchorPoint: "Top" 270 465 basechar 0
AnchorPoint: "Horn" 378.5 341.8 basechar 0
AnchorPoint: "Ogonek" 237 19 basechar 0
AnchorPoint: "Bottom" 169 -15 basechar 0
AnchorPoint: "Middle" 213 206 basechar 0
LayerCount: 2
Fore
SplineSet
263.326171875 419 m 3
 344.314450374 419 393.620117188 352.466416914 393.620117188 263.104492188 c 3
 393.620117188 115.320959421 273.747519051 -10 166.326171875 -10 c 3
 85.4242891549 -10 30 47.219190677 30 149.212890625 c 3
 30 320.201126604 183.07427471 419 263.326171875 419 c 3
234.326171875 373 m 3
 181.990324412 373 107.065429688 291.00379329 107.065429688 171.232421875 c 3
 107.065429688 81.5936483322 141.169071673 31 190.326171875 31 c 3
 244.214874693 31 318.208984375 122.268002381 318.208984375 246.88671875 c 3
 318.208984375 335.994003184 277.778026657 373 234.326171875 373 c 3
EndSplineSet
Validated: 1
EndChar
StartChar: uni009F
Encoding: 159 159 1459
Width: 819
VWidth: 1159
Flags: W
HStem: -131 116<228.088 481.303> 395 13<643.635 707.537> 396 94<560.587 694.995 700 781.411> 543 20G<345.598 407.668>
VStem: -4.31055 71.3105<114.826 251.711> 463 71.8076<317.269 383.164> 665.41 71.4229<169.635 386.604>
LayerCount: 2
Back
SplineSet
566.584960938 103.28125 m 2
 551.045717591 99.853990027 526.396918181 101.813288846 509.932617188 124.4375 c 0
 491.460704049 149.820446014 474 190.016177352 474 266 c 0
 474 347.871785258 547.090807918 409 690.995117188 409 c 0
 714.444101447 409 728.441654308 408 751.80078125 408 c 0
 790.400429163 408 798.452148438 411.829112514 798.452148438 446.7421875 c 0
 798.452148438 453.010658016 795.542855156 462.558827732 788.389648438 475.028320312 c 2
 780.487304688 488.803710938 l 1
 795.897460938 492.643554688 l 2
 805.431114245 495.019113927 811.157586087 495.019477753 817.674804688 496.643554688 c 2
 825.892578125 498.69140625 l 1
 830.575195312 491.634765625 l 2
 852.281187647 458.924129419 862.531706112 426.556450365 855.313476562 382.078125 c 0
 845.236149195 319.982199345 795.588810098 313 696 313 c 0
 673.112560013 313 660.734872402 314 638.583007812 314 c 0
 592.994631554 314 545.807617188 300.035451238 545.807617188 291 c 0
 545.807617188 262.456041528 577.777708478 214.934105397 605.501953125 206.477539062 c 2
 613.16015625 204.141601562 l 1
 613.942382812 196.172851562 l 2
 617.489800009 160.034369264 587.926355862 112.972072583 569.09375 104.134765625 c 2
 567.88671875 103.568359375 l 1
 566.584960938 103.28125 l 2
210.946289062 221.192382812 m 1
 202.679708991 223.587799472 196.137548584 224.458675047 188.73046875 224.525390625 c 0
 133.085845791 224.978597277 83 171.589252786 83 130 c 0
 83 -3.76361412364 215.49787398 -70 363 -70 c 0
 538.629259226 -70 661.41015625 74.2943795751 661.41015625 222.298828125 c 0
 661.41015625 267.713040625 656.822788166 313.135664373 647.564513447 358.605778124 c 2
 644.440835542 373.947080254 l 1
 660.06683123 372.976939314 l 1
 692.280698416 370.976939314 l 1
 699.897726295 370.504035652 l 1
 702.699300166 363.405167051 l 2
 722.816998008 312.429215636 732.833007812 261.552937678 732.833007812 211.008789062 c 0
 732.833007812 -29.7650010049 556.09535946 -180 345.848632812 -180 c 0
 179.018186576 -180 11.689453125 -71.5832718046 11.689453125 105 c 0
 11.689453125 233.782634569 123.975577402 330.323914095 270.083984375 339.6015625 c 1
 286.426778059 374.254240794 311.172041941 420.512666733 336.240234375 471.310546875 c 2
 341.104492188 481.16796875 l 1
 351.350585938 477.18359375 l 1
 387.350585938 463.18359375 l 1
 399.647460938 458.40234375 l 1
 393.723632812 446.612304688 l 1
 187.724609375 36.6123046875 l 1
 180.583007812 22.3994140625 l 1
 168.876953125 33.1689453125 l 1
 143.876953125 56.1689453125 l 1
 137.470703125 62.0625 l 1
 141.084960938 69.982421875 l 2
 167.358237379 127.547679354 194.726588192 184.565396677 210.946289062 221.192382812 c 1
EndSplineSet
Fore
SplineSet
556 177 m 1xbe
 538.496408568 172.399240892 510.790656625 177.75 496 203 c 1
 481.457290334 228.290637753 463 268.621536633 463 350 c 3
 463 427.479064772 535.097811192 490 694.995117188 490 c 3xbe
 718.026367188 490 732.03125 489 755.80078125 489 c 3
 774.541852462 489 782.452148438 495.370771526 782.452148438 525.7421875 c 3
 782.452148438 538.411058272 777.426296237 553.368858872 767.798828125 571 c 1
 789.459465384 578.5 804.915534611 578.5 826.576171875 586 c 1
 853.814868278 552.461538461 864.997156787 522.596297831 860.46875 477 c 0
 853.309966432 404.918572021 810.628366248 395 700 395 c 3xde
 677.554164067 395 665.175521165 396 642.583007812 396 c 3
 601.182785088 396 534.807617188 383.447641538 534.807617188 374 c 3
 534.807617188 339.459262773 568.740821125 287.560119726 603 277 c 1
 607.655573386 238.374422217 577.842105263 184.031623129 556 177 c 1xbe
229 303 m 1
 156.859375 323.347826087 67 259.669555556 67 199 c 3
 67 53.7857142857 213.099009901 -15 367 -15 c 3
 542.932353062 -15 665.41015625 126.466435508 665.41015625 271.298828125 c 3
 665.41015625 317.521975105 657.75421439 363.757719367 642.323242188 410 c 1
 667.756650389 409.22 682.103701168 408.78 707.537109375 408 c 1xde
 727.15415966 358.292632383 736.833007812 308.960646354 736.833007812 260.008789062 c 3
 736.833007812 18.2857115977 560.315660974 -131 349.848632812 -131 c 3
 171.148347777 -131 -4.310546875 -13.4726774194 -4.310546875 174 c 3
 -4.310546875 309.128415841 121.728982438 412.528743629 285.923828125 419 c 1
 301.389648438 452.765625 332.1953125 508.680664062 359.000976562 563 c 1
 432.000976562 533 l 1
 340.57860479 359.643329327 255.26865233 190.356670673 170 17 c 1
 112 57 l 1
 158.117770287 153.935487238 203.704794607 246.223081167 229 303 c 1
EndSplineSet
EndChar
StartChar: cent
Encoding: 162 162 1236
Width: 473
Flags: W
HStem: -9 63<150.253 274.436> 370 51<159.213 276.324>
VStem: 25 62<120.66 283.256>
LayerCount: 2
Fore
SplineSet
21 242 m 3
 21 319.202206929 44.2270386841 363.632979436 88.7998046875 423.400390625 c 0
 138.66991561 490.270986569 202.71998196 514.200195312 288 514.200195312 c 3
 353.638979933 514.200195312 384.555555556 487.904424253 446 471 c 1
 414.806989397 425.996516927 397.792619978 398.603092448 366.599609375 353.599609375 c 1
 347.86038644 383.656589605 298 430 250 430 c 3
 223.615504466 430 186.43468164 423.774943294 171.599609375 411.799804688 c 0
 127.193593013 375.954465253 115 322.047592083 115 280 c 3
 115 177.921598759 175.8199373 78 281 78 c 3
 327.217469443 78 359.501988535 103.92297712 380.600585938 120.200195312 c 1
 395.375366211 96.1251220703 405.225219727 80.0750732422 420 56 c 1
 383.532750661 32.2527131337 331.409546019 -10.7998046875 238.799804688 -10.7998046875 c 3
 155.493442647 -10.7998046875 21 63.7193224155 21 242 c 3
EndSplineSet
Refer: 1461 58113 N 0.0181668 0.693762 -0.968418 0.0253589 229.417 -98.881 2
EndChar
StartChar: currency
Encoding: 164 164 1238
Width: 463
Flags: MW
HStem: 450.961 38.8428<87.4308 206.876> 706.86 38.8428<86.6769 208.358>
LayerCount: 2
Fore
SplineSet
141.529296875 66.0029296875 m 1
 75.0634765625 -11.0634765625 l 1
 27.4365234375 36.5634765625 l 1
 104.41796875 102.944335938 l 1
 85.9673373456 128.615592035 74.9765625 160.039676236 74.9765625 193.963867188 c 0
 74.9765625 227.548521702 85.7651127537 258.807115837 104.107421875 284.366210938 c 1
 27.4365234375 350.436523438 l 1
 75.0634765625 398.063476562 l 1
 141.294921875 321.232421875 l 1
 166.604750157 338.654324002 197.46287053 349.577148438 230.802734375 349.577148438 c 0
 264.85446267 349.577148438 296.085985888 339.088354938 322.474609375 321.000976562 c 1
 388.936523438 398.063476562 l 1
 436.563476562 350.436523438 l 1
 359.435546875 283.909179688 l 1
 376.558585328 258.845082269 387.168945312 228.096657011 387.168945312 194.344726562 c 0
 387.168945312 160.330136531 376.430482131 129.322934725 358.522460938 104.004882812 c 1
 436.563476562 36.5634765625 l 1
 388.936523438 -11.0634765625 l 1
 321.659179688 66.814453125 l 1
 295.664189643 47.678184241 264.072839249 37.150390625 230.940429688 37.150390625 c 0
 198.015665574 37.150390625 167.053412233 47.4565652745 141.529296875 66.0029296875 c 1
242.623046875 79.4267578125 m 0
 291.912025984 79.4267578125 335.461914062 119.971398558 335.461914062 172.693359375 c 0
 335.461914062 248.811699915 284.224411819 307.315429688 219.36328125 307.315429688 c 0
 168.000758742 307.315429688 126.634765625 266.3473881 126.634765625 215.212890625 c 0
 126.634765625 140.27552737 179.829606722 79.4267578125 242.623046875 79.4267578125 c 0
EndSplineSet
EndChar
StartChar: yen
Encoding: 165 165 452
Width: 463
VWidth: 1159
UnlinkRmOvrlpSave: 1
Flags: W
HStem: -4.67871 27.0137<146.569 183.29 299.257 339.58> 171.125 39.1<81 396> 271.775 39.1<81 396> 587.232 25.69<19.3948 54.5358 167.676 182.54 281.486 320.156 397.924 437>
VStem: 81 315<171.125 210.225> 81 315<271.775 310.875> 207.261 75.837<36.0924 306.389>
LayerCount: 2
Fore
SplineSet
185.742 586.334 m 1xf2
 192.531 586.418 175.157 583.632 167.301 583.917 c 0
 155.331 581.691 154.813 575.465 161.169 562.095 c 0
 210.725 457.854 251.72 406.49 255.486 401.838 c 1
 288.578 474.974 296.853 483.776 315.947 539.048 c 0
 320.974 553.598 329.289 569.356 316.519 578.514 c 0
 310.401 583.77 292.681 586.523 280.505 587.232 c 1
 281.818 612.922 l 1
 303.4 609.144 401.166 602.808 437 612.588 c 1
 437 584.514 l 1
 399.769 581.961 385.546 571.019 364.396 543.431 c 0
 331.463 500.469 300.119 425.931 274.891 363.709 c 1
 274.315 309.249 272.282 244.117 283.098 65.501 c 0
 285.016 33.8209 297.386 32.9414 342.783 26.6895 c 1
 339.58 -1.14258 l 1
 280.655 7.16309 208.32 10.7812 148.485 -4.67871 c 1
 141.09 22.335 l 1
 185.948 31.7314 205.669 38.7314 207.261 76.7793 c 0
 207.788 89.3788 205.843 344.768 205.118 337.751 c 1
 203.981 344.357 150.2 451.985 77.1982 552.015 c 0
 58.1482 578.118 49.2658 578.581 17.5654 587.716 c 1
 20.0312 613.417 l 1
 52.2452 609.881 150.699 605.606 182.54 612.427 c 1
 185.742 586.334 l 1xf2
EndSplineSet
Refer: 453 -1 N 0.9 0 0 0.85 443.25 -108.95 2
Refer: 453 -1 N 0.9 0 0 0.85 443.25 -8.29971 2
EndChar
StartChar: copyright
Encoding: 169 169 903
Width: 770
Flags: W
HStem: 0 62.7334<275.664 491.682> 107.127 46.64<287.343 364.132> 436.247 55.44<342.47 423.404> 618.886 62.7333<278.109 494.127>
VStem: 37.4082 63.5371<229.306 441.283> 193.753 65.9588<183.633 322.452> 668.846 63.5453<240.335 447.587>
LayerCount: 2
Fore
SplineSet
384.892578125 618.885742188 m 3
 237.456991357 618.885742188 100.9453125 498.748478677 100.9453125 334.92578125 c 3
 100.9453125 171.606243593 231.997960887 62.7333984375 384.892578125 62.7333984375 c 3
 532.331437505 62.7333984375 668.845703125 182.871375868 668.845703125 346.693359375 c 3
 668.845703125 499.12194495 537.790486055 618.885742188 384.892578125 618.885742188 c 3
384.896 681.619 m 3
 572.009 681.619 732.391 534.6 732.391 347.494 c 3
 732.391 147.017 565.326 0 384.896 0 c 3
 197.787 0 37.4082 133.65 37.4082 334.125 c 3
 37.4082 534.598 204.47 681.619 384.896 681.619 c 3
EndSplineSet
Refer: 2 99 N 0.88 0 0 0.88 165.743 120.327 2
EndChar
StartChar: ordfeminine
Encoding: 170 170 1240
Width: 306
Flags: W
HStem: 289 62<36 273> 386 57<92.1653 163.513 241 264.67> 510 57<106.41 182> 568 21G<55.5714 110> 612 57<108.302 178.72>
VStem: 36 56<443.917 492.988> 50 58<588 607.674> 181 56<462.099 510 563.775 599.723>
LayerCount: 2
Fore
SplineSet
182 510 m 1xfd
 179 510 178 508 174 508 c 1
 153.076923077 505 114.283546931 495.255052317 106 492 c 0
 97 488.463414634 92 482.097560976 92 463 c 3
 92 451 101 443 113 443 c 3
 128.692307692 443 160.076923077 461 181 476 c 1
 181 480 181 478.8 181 484 c 1
 181 499 182 500 182 510 c 1xfd
160 669 m 3
 187.721518987 669 225.519038194 639.896124349 233 624 c 0
 237.965820312 613.448242188 240 597 240 587 c 1
 240 550.325757576 237 519.113636364 237 484 c 1
 237 471 237.757359313 458.485281374 240 450 c 0
 241 448 l 3
 248 448 258 453 265 457 c 1
 289 405 l 1
 275 399 254 390 237 390 c 3
 216 390 200 404 193 418 c 1
 160.913043478 396 135.065217391 386 111 386 c 3
 64 386 36 420 36 462 c 1xfd
 36 476.698113208 38.5033652914 495.066511558 41 503 c 0
 45.2828265995 516.609421998 55.1803593414 528.07704613 74 540.2890625 c 0
 87.2064463179 548.858691514 134.084033613 561 184 567 c 1
 184 568.666666667 184 573 184 573 c 1
 184 588.1875 181 594.09375 177 600 c 1
 173 605.6 161.8 612 153 612 c 3
 144.734693878 612 108 604.058823529 108 597 c 3
 108 592.090909091 110 589.636363636 110 588 c 1
 56 568 l 1
 55.1428571429 572.655172414 50 586.620689655 50 595 c 3xfb
 50 607 49.1173759745 614.628026684 60 629 c 0
 74.4230769231 648.047619048 127.307692308 669 160 669 c 3
EndSplineSet
Refer: 1461 58113 N 0.237 0 0 1 36 320 2
Position2: "cpsp-1" dx=0 dy=0 dh=7 dv=14
EndChar
StartChar: degree
Encoding: 176 176 1244
Width: 307
Flags: W
HStem: 450.961 63.8428<92.906 203.143> 681.86 63.8428<92.2621 202.742>
VStem: 0.241211 63.8145<543.5 653.817> 230.947 63.8154<543.775 654.451>
LayerCount: 2
Fore
SplineSet
147.408203125 514.803710938 m 0
 191.759833332 514.803710938 230.947265625 551.41678875 230.947265625 599.026367188 c 0
 230.947265625 645.862561404 194.036093971 681.860351562 147.310546875 681.860351562 c 0
 101.19548978 681.860351562 64.0556640625 644.895156912 64.0556640625 598.756835938 c 0
 64.0556640625 552.424963203 102.283017918 514.803710938 147.408203125 514.803710938 c 0
147.376953125 450.9609375 m 0
 67.7209799365 450.9609375 0.2412109375 517.25500347 0.2412109375 598.8984375 c 0
 0.2412109375 680.403073513 65.820211378 745.703125 147.247070312 745.703125 c 0
 229.660015085 745.703125 294.762695312 682.06127958 294.762695312 599.2578125 c 0
 294.762695312 515.4282111 225.625352612 450.9609375 147.376953125 450.9609375 c 0
EndSplineSet
EndChar
StartChar: ordmasculine
Encoding: 186 186 1249
Width: 358
VWidth: 1159
Flags: W
HStem: 304 34<-1.79981 358> 370.536 36.1748<136.115 235.577> 647.002 39.7666<116.35 222.741>
VStem: 23.5791 55.9961<463.994 605.623> 276.167 57.3965<447.855 593.556>
LayerCount: 2
Fore
SplineSet
180.543945312 686.768554688 m 1
 276.709960938 686.768554688 333.563476562 606.377929688 333.563476562 530.818359375 c 1
 333.563476562 444.318359375 269.990234375 370.536132812 180.123046875 370.536132812 c 1
 94.27734375 370.536132812 23.5791015625 433.458984375 23.5791015625 522.08984375 c 1
 23.5791015625 633.205078125 117.4375 686.768554688 180.543945312 686.768554688 c 1
169.442382812 647.001953125 m 1
 113.729492188 647.001953125 79.5751953125 596.493164062 79.5751953125 541.794921875 c 1
 79.5751953125 473.078125 126.454101562 406.7109375 185.43359375 406.7109375 c 1
 243.959960938 406.7109375 276.166992188 461.763671875 276.166992188 516.84375 c 1
 276.166992188 597.084960938 218.982421875 647.001953125 169.442382812 647.001953125 c 1
EndSplineSet
Refer: 331 8722 N 0.914126 0 0 0.62963 -33.0631 184.37 2
Validated: 1
Position2: "cpsp-1" dx=0 dy=0 dh=7 dv=14
EndChar
StartChar: eth
Encoding: 240 240 454
Width: 471
VWidth: 1159
UnlinkRmOvrlpSave: 1
Flags: W
HStem: -5 49<172.89 302.553> 359 46<174.141 312.123> 700 27.453<74.4455 86.7927>
VStem: 28 64<133.432 266.724> 366 69<130.061 315.66>
LayerCount: 2
Fore
SplineSet
348.139 315.39 m 1
 309.311 349.295 235.815 359 222 359 c 0
 198 359 92 331.005 92 226 c 0
 92 129.917 150.98 44 252 44 c 0
 332.374 44 366 128.15 366 202 c 0
 366 235.619 359.775 274.394 348.139 315.39 c 1
319.727 395.21 m 1
 297.195 448.096 267.132 501.537 231.091 549.926 c 1
 113 477 l 1
 97 506 l 1
 210.377 576.358 l 1
 168.161 627.531 119.003 671.266 65 700 c 1
 69.0967 706.582 77.2373 727.453 77.2373 727.453 c 1
 145.386 707.325 209.364 664.636 263.844 609.538 c 1
 379 681 l 1
 398 653 l 1
 287.162 584.553 l 1
 376.496 483.21 435 349.111 435 235 c 0
 435 113.963 360.284 -5 193 -5 c 0
 102.911 -5 28 65.9238 28 171 c 0
 28 326.39 176 405 264 405 c 0
 275.736 405 298.098 401.774 319.727 395.21 c 1
EndSplineSet
Substitution2: "case-1" Eth
EndChar
StartChar: dotlessi
Encoding: 305 305 51
Width: 277
VWidth: 1159
Flags: HMW
HStem: 354 75<141 212>
VStem: 60 202
AnchorPoint: "Top" 207 559 basechar 0
LayerCount: 2
Back
SplineSet
199 245.162109375 m 4
 189 200.400103857 180 130.945913089 181 113.999023438 c 5
 182 105 184.857142857 103.040364584 190 107.423828125 c 5
 196.468085106 112.000777756 216.484848485 131.716901507 228 148.6484375 c 5
 270 115 l 5
 216.310810811 33.8 164.16014482 -11 133 -11 c 7
 88.9913865398 -11 72 29.967779147 72 72.783203125 c 7
 72 126.962573505 95.8359921096 188.052301212 111 245.3515625 c 4
 116.758530255 267.110950393 138.067162804 339.618213091 145 398 c 4
 145.25 400.105263158 145 401.789473684 144 402 c 5
 140.897959184 402 104.727272727 360.333333334 96 347 c 5
 64 388.947265625 l 5
 90.6842105263 429.884907383 171.763157894 507 220 507 c 7
 264.886363636 507 268.156733654 482.296130674 265 448.813476562 c 4
 264.2 440.32808431 259.528090578 426.711122373 257 419.720703125 c 4
 240.428571429 373.899072266 203.201494864 263.968843002 199 245.162109375 c 4
EndSplineSet
Fore
SplineSet
177 245.162109375 m 4
 167 202.788992746 158 137.041480056 159 120.999023438 c 5
 160 112 162.857142857 110.040364584 168 114.423828125 c 5
 174.468085106 119.000777756 194.484848485 138.716901507 206 155.6484375 c 5
 248 115 l 5
 194.310810811 33.8 142.16014482 -11 111 -11 c 7
 66.9913865398 -11 50 29.967779147 50 72.783203125 c 7
 50 126.962573505 73.3606987216 188.180199608 89 245.3515625 c 4
 94.2504246443 264.545126671 113.881760173 328.477980401 120 380 c 4
 120.25 382.105263158 120 383.789473684 119 384 c 5
 116.479591837 384 87.0909090907 354.454545455 80 345 c 5
 42 388.947265625 l 5
 68.6842105263 429.884907383 149.763157894 507 198 507 c 7
 242.886363636 507 246.156733654 482.296130674 243 448.813476562 c 4
 242.2 440.32808431 237.528090578 426.711122373 235 419.720703125 c 4
 218.428571429 373.899072266 181.201494864 263.968843002 177 245.162109375 c 4
EndSplineSet
Substitution2: "case-1" I
EndChar
